<?xml version="1.0" encoding="utf-8" ?>
<svg xmlns="http://www.w3.org/2000/svg" xmlns:xlink="http://www.w3.org/1999/xlink" width="1198" height="959">
	<path transform="scale(0.936637 0.936637)" d="M450.973 8.39372C471.405 6.79683 494.941 14.5288 511.681 25.8448C528.176 36.9945 541.42 53.5622 548.405 72.2547C552.332 82.7627 554.336 93.4323 556.454 104.394L565.408 102.311C578.366 100.383 590.063 108.907 599.92 116.069C603.89 105.505 610.158 95.2701 614.996 85.0273C618.892 76.7765 621.731 67.3737 626.796 59.7992C628.811 56.7859 631.518 54.2675 634.694 52.5102C638.183 50.5793 642.785 50.3833 646.556 51.5777C651.329 53.0899 654.503 55.6163 657.38 59.684C661.026 64.8391 663.579 71.1612 666.405 76.7993L682.862 109.783L734.275 211.392C746.565 201.406 757.847 192.331 772.626 186.083C785.056 180.827 799.513 178.376 812.812 181.423C817.703 182.544 822.52 184.796 827.165 186.682C829.016 183.265 829.053 175.601 829.534 171.466C825.174 171.585 818.714 172.301 814.637 170.921C813.197 170.434 812.183 169.852 811.2 168.656C807.365 163.985 804.831 158.083 801.622 152.959C795.902 143.825 789.232 134.933 784.326 125.367C787.62 118.218 791.79 111.252 795.678 104.4C799.699 97.3151 803.819 89.3219 809.465 83.411C813.016 82.8651 817.192 83.498 820.825 83.5582L845.996 83.7346L935.938 84.0146C937.478 84.0689 939.007 84.3345 940.402 85.0167C943.403 86.4837 945.683 90.4307 947.604 93.0947C953.305 101.002 959.575 109.7 962.989 118.873L965.244 124.824C962.115 133.196 956.923 139.775 951.956 147.106C946.507 155.147 941.481 163.442 934.494 170.282C931.672 173.043 922.71 171.718 918.672 171.684L919.42 184.53C930.03 189.702 937.9 196.171 945.712 204.869C953.496 198.071 961.202 191.722 970.5 187.03C988.189 178.103 1006.9 176.713 1025.73 182.935C1041.53 188.156 1056.14 200.142 1064.65 214.411C1066.93 218.233 1068.52 222.574 1070.53 226.567C1085.87 219.307 1102.28 216.528 1118.89 220.723C1137.95 225.538 1154.56 238.824 1164.51 255.705C1178.58 279.577 1178.09 304.556 1171.45 330.728C1185.86 331.665 1198.11 334.986 1210.09 343.237C1226.38 354.453 1236.52 372.371 1239.84 391.651C1243.25 411.528 1238.86 427.406 1231.03 445.579C1231.3 446.727 1238.57 449.506 1240.18 450.387C1250.81 456.195 1259.33 463.477 1266.1 473.552C1274.86 486.595 1278.62 503.336 1275.51 518.813C1270.99 541.254 1256.63 559.301 1236.64 570.236C1233.8 571.786 1230.9 573.174 1227.86 574.272C1225.59 575.092 1222.76 575.695 1220.79 577.021L1223.53 585.018C1229.84 606.251 1228.72 629.078 1217.95 648.75C1207.97 666.986 1189.96 680.935 1170.01 686.464C1148.47 692.435 1125.48 688.116 1106.61 676.591C1101.65 673.563 1097.57 669.091 1092.65 666.297L1068.04 685.902C1067.95 695.92 1069.51 706.256 1070.66 716.208L1074.12 750.465C1074.24 751.755 1074.8 758.911 1075.18 759.239C1075.57 759.579 1076.14 759.629 1076.61 759.83C1077.71 760.294 1079.11 760.746 1079.97 761.589C1081.21 762.797 1080.87 765.647 1080.94 767.337L1099.36 772.979C1127.8 783.214 1165 799.297 1178.43 828.315C1180.14 832.025 1181.48 836.092 1181.99 840.156C1182.9 847.464 1182.31 855.326 1182.27 862.702C1182.23 872.519 1183.75 885.392 1180.26 894.562C1169.95 921.662 1137.78 936.751 1113.09 947.717C1053.69 971.471 990.115 984.122 926.938 992.79L781.33 1006.81C657.399 1014.25 532.213 1014.01 408.75 999.64C350.195 992.826 291.454 982.597 234.892 965.771C199.369 955.204 147.071 936.321 128.545 901.447C126.396 897.401 124.865 892.916 124.2 888.379C123.381 882.796 123.811 876.71 123.751 871.057C123.625 859.08 122.289 845.778 125.889 834.242C133.021 811.389 155.694 797.002 175.756 786.538C174.09 783.929 172.574 781.221 171.488 778.317C168.711 770.894 168.239 763.618 167.504 755.81C166.332 743.362 165.008 726.553 170.397 714.956C175.718 703.508 192.591 696.534 203.728 692.503L203.894 678.204C199.061 675.288 194.624 672.4 190.28 668.759L178.461 677.082C160.004 688.766 136.376 692.82 115.059 687.854C94.2222 683.001 74.9073 669.045 63.6035 650.941C50.3392 629.698 51.2007 607.514 56.7523 584.076L44.1631 581.38C28.2164 576.285 16.3889 563.85 9.01417 549.148C-0.19026 530.799 0.0456119 510.079 6.61689 490.942C13.8071 470.004 28.1247 454.547 47.8983 444.877C47.0864 442.103 45.5133 439.44 44.4638 436.727C41.4375 428.904 39.2018 420.265 38.7467 411.875C37.5247 389.346 44.1895 368.635 59.4992 351.877C73.6585 336.378 89.7782 331.496 110.001 330.648C104.732 314.864 101.6 297.396 105.377 280.913L109.455 267.253C116.901 248.1 131.543 231.895 150.525 223.744C171.069 214.922 189.104 219.111 208.96 227.127C212.842 218.387 217.079 210.671 223.502 203.503C240.452 184.589 258.912 177.746 283.713 176.411L285.386 163.724L289.073 150.492C296.237 131.999 309.611 115.617 328.125 107.692C332.775 105.702 337.627 104.495 342.5 103.216C344.186 102.774 346.717 101.743 348.422 101.755C350.022 101.767 352.669 103.243 354.199 103.865C356.661 80.027 365.199 59.4964 381.192 41.5726C399.308 21.2693 423.956 9.92058 450.973 8.39372ZM401.443 656.098C396.698 659.36 391.986 662.886 386.87 665.54C376 671.178 364.62 672.261 352.694 670.045C349.697 669.489 344.537 666.985 341.929 667.176L345.444 690.266C358.666 694.133 370.819 698.398 381.748 707.038C385.484 710.787 388.48 714.065 390.001 719.238L390.157 719.75C392.902 728.943 390.836 739.972 391.421 749.528L402.228 749.542L402.266 689.236L402.352 667.711C402.363 664.137 402.869 659.894 401.915 656.484L401.443 656.098Z"/>
	<path fill="#028446" transform="scale(0.936637 0.936637)" d="M204.317 652.714L204.321 670.682L196.732 665.086L204.317 652.714Z"/>
	<path fill="#FAA230" transform="scale(0.936637 0.936637)" d="M682.113 314.633L695.784 313.775C698.813 313.524 701.93 313.009 704.944 313.514L706.329 316.642C700.18 317.31 693.817 317.001 687.632 316.993C685.86 316.991 682.645 317.413 681.02 316.919L678.444 316.035C679.784 315.783 680.882 315.201 682.113 314.633Z"/>
	<path fill="#FEF1E6" transform="scale(0.936637 0.936637)" d="M996.371 754.832C997.685 752.171 999.131 749.855 1000.89 747.463L1036.7 756.801L1036.27 757.154C1033.21 757.387 1030.25 756.075 1027.33 755.358C1020.87 753.775 1013.59 752.055 1006.95 752.052C1005.81 752.051 1003.86 751.788 1002.87 752.093C1001.19 752.606 998.245 754.976 996.668 755.96L996.371 754.832Z"/>
	<path fill="#A58780" transform="scale(0.936637 0.936637)" d="M179.079 739.862C187.379 744.497 195.55 747.818 204.518 750.944C196.635 753.007 185.637 747.992 178.645 744.598L179.079 739.862Z"/>
	<path fill="#E98E1D" transform="scale(0.936637 0.936637)" d="M620.79 315.958L682.113 314.633C680.882 315.201 679.784 315.783 678.444 316.035L681.02 316.919L633.463 318.26L635.607 317.477C636.644 317.435 637.379 317.463 638.438 317.271C637.223 317.314 636.267 317.386 635.111 316.943C631.375 315.512 623.609 318.145 620.79 315.958Z"/>
	<path fill="#3A5411" transform="scale(0.936637 0.936637)" d="M204.742 639.079C205.031 643.741 204.778 648.083 204.317 652.714L196.732 665.086L190.205 659.318C192.684 655.745 195.06 651.983 197.788 648.596C199.644 646.292 202.815 643.791 204.261 641.343C204.529 640.889 204.622 639.644 204.742 639.079Z"/>
	<path fill="#FAA230" transform="scale(0.936637 0.936637)" d="M392.057 756.716L402.012 756.758C402.254 761.043 402.882 766.462 401.17 770.501L398.598 770.976L388.783 772.075L392.057 756.716Z"/>
	<path fill="#FAA230" transform="scale(0.936637 0.936637)" d="M1071.07 617.338L1073.01 617.171C1074.64 619.844 1074.93 623.672 1075.48 626.745L1065.31 634.318L1063.74 635.026C1061.7 633.079 1061.64 622.614 1061.32 619.424C1064.15 618.298 1067.98 618.272 1071.07 617.338Z"/>
	<path fill="#FAA230" transform="scale(0.936637 0.936637)" d="M293.333 462.3C294.221 462.012 294.543 462.001 295.442 462.056C295.353 467.321 293.525 472.617 293.277 477.98C293.097 481.883 293.384 485.838 293.548 489.739C293.614 491.313 294.031 493.652 293.672 495.173C293.179 497.263 290.853 500.118 289.685 501.99L287.465 465.065L293.333 462.3Z"/>
	<path fill="#CAB2AB" transform="scale(0.936637 0.936637)" d="M187.263 787.474C185.946 786.692 184.697 785.653 183.552 784.635C172.112 774.459 173.829 749.18 173.103 734.89L179.079 739.862L178.645 744.598C178.792 755.867 178.669 766.928 182.518 777.678C183.756 781.137 186.316 784.061 187.263 787.474Z"/>
	<path fill="#811816" transform="scale(0.936637 0.936637)" d="M264.883 458.141C261.119 456.709 257.544 452.877 255.68 449.355C251.748 441.928 251.236 432.454 253.646 424.479C257.492 411.755 266.487 402.982 276.906 395.35L276.881 398.863C267.953 406.847 256.393 418.112 255.738 430.873C255.157 442.211 257.989 449.384 264.883 458.141Z"/>
	<path fill="#B65951" transform="scale(0.936637 0.936637)" d="M140.747 567.562C139.232 568.337 137.578 568.987 135.91 569.337C130.294 570.515 123.977 568.597 119.28 565.482C106.443 556.97 103.848 538.461 101.092 524.534C112.805 524.217 125.779 522.909 137.003 526.684L136.328 526.714C132.583 526.835 129.027 526.107 125.312 525.879C118.459 525.458 111.533 525.99 104.772 527.133C106.614 538.364 109.445 555.153 119.442 562.26C126.528 567.297 132.605 566.555 140.747 567.562Z"/>
	<path fill="#FAA230" transform="scale(0.936637 0.936637)" d="M723.143 376.401L711.683 313.016C713.693 311.868 716.83 311.817 719.145 311.477L738.189 308.708C745.563 307.321 753.309 304.616 760.706 303.88C760.366 304.446 760.143 305.1 759.688 305.577C759.34 305.941 756.868 306.531 756.297 306.721L744.082 310.379C734.125 312.889 723.793 314.841 713.528 315.308L720.999 356.399C722.012 362.643 723.428 369.096 723.716 375.404L723.832 376.541L723.143 376.401Z"/>
	<path fill="#B65951" transform="scale(0.936637 0.936637)" d="M300.129 481.72C300.15 478.478 299.577 474.895 299.899 471.722C300.562 465.197 304.073 458.005 308.194 453.004C317.165 442.113 338.044 441.184 351.203 439.81L351.56 461.128C351.341 465.463 351.144 467.51 347.745 470.585C349.718 461.677 349.336 452.947 349.244 443.895C336.891 443.851 321.143 444.465 311.79 453.671C305.739 459.625 302.712 467.3 300.96 475.469C300.513 477.551 300.675 479.674 300.129 481.72Z"/>
	<path fill="#E14402" transform="scale(0.936637 0.936637)" d="M525.772 544.662C529.97 545.782 534.762 545.638 539.098 546.033L577.707 549.215C586.988 549.886 600.482 548.728 608.865 552.645C598.356 552.801 529.352 552.064 525.067 548.571L525.772 544.662Z"/>
	<path fill="#B65951" transform="scale(0.936637 0.936637)" d="M276.906 395.35L296.329 381.838C299.847 387.83 303.616 395.85 305.247 402.598C309.855 414.212 312.069 428.807 306.858 440.553C302.856 449.573 294.639 456.015 285.625 459.506L285.06 459.729C283.753 460.209 282.417 459.887 281.096 459.643C290.908 454.237 299.024 450.831 304.351 440.09C310.419 427.856 305.963 413.059 301.937 400.935L295.382 386.295C288.826 389.508 283.054 394.87 276.881 398.863L276.906 395.35Z"/>
	<path fill="#E14402" transform="scale(0.936637 0.936637)" d="M318.759 504.398C324.079 508.887 332.813 510.421 339.271 512.828L391.833 531.6C390.848 532.771 389.755 534.431 388.351 535.05C368.838 529.962 348.234 522.154 330.437 512.752C326.452 510.646 322.005 508.668 318.451 505.881L318.759 504.398Z"/>
	<path fill="#FAA230" transform="scale(0.936637 0.936637)" d="M448.762 405.55L452.283 401.541L491.131 407.512C496.726 408.369 503.433 408.686 508.769 410.413C508.829 412.186 508.033 413.636 507.343 415.224L461.764 408.151C457.897 407.524 451.855 407.838 448.762 405.55Z"/>
	<path fill="#CAB2AB" transform="scale(0.936637 0.936637)" d="M235.41 894.865C232.596 894.312 229.755 893.251 227.275 891.814C216.63 885.647 211.982 874.558 209.059 863.169C205.095 847.726 203.35 831.252 200.659 815.511L198.96 805.473C198.818 804.624 198.24 802.796 198.393 802.071C198.482 801.644 198.839 801.321 199.062 800.945L201.949 801.697L207.794 838.548C210.22 854.228 211.48 878.011 225.839 887.862C227.973 889.326 234.731 892.518 235.41 894.865Z"/>
	<path fill="#B65951" transform="scale(0.936637 0.936637)" d="M135.365 519.428C134.166 519.068 133.452 518.723 132.474 517.939C130.797 514.226 130.578 510.319 130.36 506.295C129.556 491.46 133.668 477.508 138.099 463.523C150.628 472.72 165.47 480.023 171.566 495.315C174.207 502.102 175.308 511.141 172.121 517.939C171.35 519.583 170.331 521.155 169.157 522.54C172.127 511.49 172.788 503.15 167.976 492.502C160.659 481.531 151.207 475.626 140.502 468.415C135.888 478.036 132.962 490.279 133.194 500.965C133.331 507.277 134.579 513.209 135.365 519.428Z"/>
	<path fill="#B65951" transform="scale(0.936637 0.936637)" d="M342.458 566.556C341.242 560.767 343.004 554.99 345.966 550.003C349.573 543.929 355 539.314 361.875 537.519C369.028 535.65 379.114 536.753 385.514 540.667C386.861 541.491 387.3 542.36 387.502 543.883C388.446 550.996 384.888 561.241 380.221 566.612C374.657 573.014 367.953 576.65 359.362 577.061C353.474 577.343 349.485 576.259 344.252 573.648L346.352 571.666C349.196 573.706 351.948 574.52 355.41 574.879C361.302 575.49 368.944 574.016 373.584 570.171C382.385 562.879 383.457 554.176 384.555 543.433C377.89 540.925 369.091 538.828 362.048 540.554C353.494 542.652 347.976 550.422 345.367 558.391C344.612 560.7 344.309 563.802 342.988 565.808L342.458 566.556Z"/>
	<path fill="#028446" transform="scale(0.936637 0.936637)" d="M921.389 194.006C928.177 199.19 934.047 204.831 940.032 210.922C938.406 214.109 935.3 217.208 933.042 220.019L929.208 226.131L923.327 225.322C922.503 221.629 922.662 217.584 922.477 213.802L921.389 194.006Z"/>
	<path fill="#FAA230" transform="scale(0.936637 0.936637)" d="M609.922 423.113C610.318 420.795 610.199 418.795 611.875 417.084L653.985 416.616C657.76 416.58 666.617 415.462 669.688 417.178L670.515 421.401C663.579 423.416 655.25 423.071 648.042 423.076L609.922 423.113Z"/>
	<path fill="#FAA230" transform="scale(0.936637 0.936637)" d="M814.902 486.301L813.25 485.74L780.205 405.314L811.018 398.421L821.074 395.601C822.02 395.32 824.159 394.385 825 394.425C825.652 394.456 826.25 394.804 826.875 394.994L826.482 395.371C823.621 397.989 819.526 399.044 815.918 400.252C805.59 403.708 794.756 405.592 784.48 409.169L805.769 460.704C808.902 468.47 814.075 477.964 814.902 486.301Z"/>
	<path fill="#FAA230" transform="scale(0.936637 0.936637)" d="M576.96 212.497L580.23 206.67L638.086 209.015C639.092 210.421 639.01 211.557 639.215 213.254L637.812 214.437L587.305 213.49C583.875 213.287 580.206 213.764 576.96 212.497Z"/>
	<path fill="#FAA230" transform="scale(0.936637 0.936637)" d="M572.566 405.174L583.251 314.433L620.79 315.958C623.609 318.145 631.375 315.512 635.111 316.943C636.267 317.386 637.223 317.314 638.438 317.271C637.379 317.463 636.644 317.435 635.607 317.477L633.463 318.26L632.858 318.369C628.223 319.127 623.342 318.916 618.654 318.952C608.263 319.032 597.374 318.615 587.076 320.091C583.25 344.639 581.103 369.717 575.765 393.982C575.082 397.089 574.691 402.889 572.566 405.174Z"/>
	<path fill="#811816" transform="scale(0.936637 0.936637)" d="M229.374 468.863C226.006 471.094 220.369 471.564 216.413 470.933C203.466 468.867 193.349 460.598 186.012 449.98C175.753 435.135 183.026 412.159 185.872 395.955C203.593 402.745 227.977 408.213 237.95 426.13C241.896 433.218 243.627 441.45 241.444 449.321C240.718 444.681 240.375 439.833 239.121 435.304C236.669 426.448 231.195 420.359 223.933 415.048C213.54 407.447 200.482 403.569 188.379 399.583C183.503 415.72 180.746 434.014 188.928 449.634C193.299 457.978 202.28 464.459 211.167 467.175C216.984 468.954 223.346 468.993 229.374 468.863Z"/>
	<path fill="#FEF1E6" transform="scale(0.936637 0.936637)" d="M761.674 782.994C761.838 781.081 761.687 779.96 762.812 778.373L858.026 778.297L857.979 782.61C856.926 783.494 856.412 783.906 855 783.92L828.404 782.938L761.674 782.994Z"/>
	<path fill="#FAA230" transform="scale(0.936637 0.936637)" d="M677.017 422.087L676.88 417.602C677.191 417.217 677.388 416.702 677.812 416.447C678.519 416.023 681.971 416.045 683.058 415.95L710.025 414.385C730.764 412.624 751.77 410.572 772.188 406.48C774.282 407.2 774.356 408.169 775.411 410.056C753.615 415.406 730.593 417.115 708.32 419.322C698.048 420.34 687.318 422.092 677.017 422.087Z"/>
	<path fill="#FEF1E6" transform="scale(0.936637 0.936637)" d="M416.803 889.501C413.528 886.62 410.164 883.522 409.486 878.965C408.36 871.397 409.287 863.809 409.258 856.208C409.233 850.088 407.521 827.869 410.312 824.008L415.8 823.627C416.32 824.437 416.671 825.18 416.853 826.139C417.994 832.152 416.912 840.528 416.895 846.798L416.803 889.501Z"/>
	<path fill="#FAA230" transform="scale(0.936637 0.936637)" d="M514.314 414.436C515.164 413.168 515.846 411.338 517.458 411.067C519.322 410.753 521.919 411.49 523.8 411.718L536.559 412.973L575.285 415.766L591.915 416.405C595.609 416.483 599.909 416.083 603.42 417.306C603.915 418.862 603.852 420.347 603.848 421.957C581.484 422.318 559.49 420.285 537.263 418.097C530.31 417.412 520.226 418.21 514.314 414.436Z"/>
	<path fill="#CAB2AB" transform="scale(0.936637 0.936637)" d="M832.53 225.167L831.445 224.344C830.613 219.708 832.076 213.039 832.516 208.281L835.94 171.846L845.027 171.836L841.176 224.702C838.817 225.515 835.088 225.135 832.53 225.167Z"/>
	<path fill="#FAA230" transform="scale(0.936637 0.936637)" d="M639.624 96.8259C640.055 102.77 635.253 111.322 632.821 116.841L600.977 180.638C597.925 186.468 595.027 194.422 591.015 199.513L590.047 200.53L589.524 201.06L585.312 200.539L584.603 199.48L639.624 96.8259Z"/>
	<path fill="#FDDE88" transform="scale(0.936637 0.936637)" d="M354.461 473.764C357.041 471.87 359.723 469.569 362.68 468.342C371.644 473.893 382.125 476.626 392.239 479.365L413.75 485.102C418.741 486.263 423.673 486.966 428.585 488.512L422.62 495.312L398.706 489.433C391.274 487.548 357.492 478.883 354.461 473.764Z"/>
	<path fill="#FDDE88" transform="scale(0.936637 0.936637)" d="M862.798 492.971L857.973 486.168C876.762 481.558 894.725 477.014 911.327 466.64C914.518 467.802 917.536 469.961 920.56 471.544L936.198 478.896C942.23 481.525 949.333 482.529 954.947 485.822C952.799 486.953 950.436 486.259 948.125 485.958C942.646 485.244 936.968 484.247 931.676 482.602C928.344 481.567 924.914 480.48 921.734 479.054C919.84 478.205 916.837 476.25 914.852 476.003C912.582 475.72 905.127 479.206 902.639 480.04L862.798 492.971Z"/>
	<path fill="#FDDE88" transform="scale(0.936637 0.936637)" d="M645.491 511.966C645.525 509.496 645 507.088 646.562 505.124L747.5 501.341C749.268 502.567 749.268 505.186 749.735 507.263C741.752 508.254 733.949 508.056 725.938 508.331L680.312 510.25L655.037 511.472C651.839 511.604 648.698 512.138 645.491 511.966Z"/>
	<path fill="#CAB2AB" transform="scale(0.936637 0.936637)" d="M830.847 362.597L830.37 362.067C827.619 358.965 822.174 352.955 821.121 349.088C820.723 347.623 822.326 342.184 822.449 340.191L824.899 297.547L836.074 297.553L830.847 362.597Z"/>
	<path fill="#E14402" transform="scale(0.936637 0.936637)" d="M519.775 543.322C519.427 545.133 518.819 546.83 518.221 548.571C517.832 548.78 517.489 549.115 517.055 549.197C515.529 549.483 512.21 548.713 510.538 548.549L491.532 546.8L394.555 538.077L399.436 532.509C399.928 532.87 400.712 533.636 401.25 533.839C402.208 534.202 404.423 534.041 405.504 534.111L415.855 534.835L519.775 543.322Z"/>
	<path fill="#FEF1E6" transform="scale(0.936637 0.936637)" d="M996.879 887.091C995.802 886.114 994.966 884.929 994.264 883.653C993.411 882.103 993.07 880.58 993.305 878.82C994.636 868.843 999.033 858.068 1001.8 848.332L1019.25 785.583L1025.4 787.165L1006.34 856.131L999.845 879.643C999.394 881.248 998.854 884.86 998.02 886.134C997.749 886.55 997.26 886.772 996.879 887.091Z"/>
	<path fill="#63676F" transform="scale(0.936637 0.936637)" d="M996.668 755.96C998.245 754.976 1001.19 752.606 1002.87 752.093C1003.86 751.788 1005.81 752.051 1006.95 752.052C1013.59 752.055 1020.87 753.775 1027.33 755.358C1030.25 756.075 1033.21 757.387 1036.27 757.154L1036.7 756.801C1043.98 757.951 1051.59 760.181 1058.69 762.198C1063.33 763.515 1068.03 764.508 1072.41 766.595C1074.16 769.161 1073.84 772.304 1073.69 775.39L1033.75 765.815C1028.65 764.671 1000.31 759.551 997.812 757.458C997.331 757.055 997.05 756.46 996.668 755.96Z"/>
	<path fill="#FDDE88" transform="scale(0.936637 0.936637)" d="M756.597 507.742C756.199 505.588 755.349 502.929 755.703 500.78L851.132 487.436C852.777 489.46 854.096 491.781 855.49 493.984C853.474 495.512 851.167 495.104 848.767 495.343L838.496 496.759L777.812 504.871C770.897 505.823 763.377 506.155 756.597 507.742Z"/>
	<path fill="#FDDE88" transform="scale(0.936637 0.936637)" d="M430.17 496.202L436.088 490.021L529.63 500.551L527.808 507.791C517.634 507.18 507.335 505.558 497.211 504.347L460 500.129L440.078 497.918C436.776 497.489 433.323 497.32 430.17 496.202Z"/>
	<path fill="#FDDE88" transform="scale(0.936637 0.936637)" d="M534.246 508.137L535.996 500.984L610.936 504.149L629.365 504.414C632.177 504.447 635.522 504.111 638.186 505.023C639.208 506.886 638.785 509.829 638.759 511.93C630.51 510.76 621.714 511.173 613.359 510.975L561.478 509.148C552.413 508.845 543.248 509.394 534.246 508.137Z"/>
	<path fill="#FAA230" transform="scale(0.936637 0.936637)" d="M650.157 309.762L646.562 308.991C646.255 308.623 645.835 308.325 645.639 307.888C645.344 307.231 645.616 304.664 645.611 303.864L645.604 288.873L645.678 208.79L685.082 207.676C691.043 207.446 697.55 206.158 703.438 207.016L705.578 210.416L650.071 215.134L650.126 281.086C650.128 290.31 651.218 300.68 650.157 309.762Z"/>
	<path fill="#FAA230" transform="scale(0.936637 0.936637)" d="M459.938 395.687L457.974 395.265L457.677 394.159L519.757 307.023L554.151 312.078L574.432 313.719C575.393 313.832 575.873 314.129 576.641 314.678L577.08 318.708C576.766 318.932 575.602 319.935 575.312 319.971C573.022 320.257 569.048 319.196 566.618 318.957C554.182 317.729 541.664 316.812 529.338 314.692L520.672 312.861L499.399 343.659L479.534 370.908C473.238 379.489 467.428 388.082 459.938 395.687Z"/>
	<path fill="#FAA230" transform="scale(0.936637 0.936637)" d="M934.919 437.38C945.548 439.679 956.556 442.162 966.107 447.526C978.595 454.539 986.88 465.639 990.76 479.289L935.913 451.748L934.919 437.38Z"/>
	<path fill="#FEF1E6" transform="scale(0.936637 0.936637)" d="M398.037 816.801C396.593 816.659 395.329 816.628 394.062 815.838C391.934 804.109 393.448 790.231 393.673 778.297L487.378 778.078L523.438 777.734C525.012 777.774 526.065 778.076 527.314 779.067L527.633 783.098L435.113 783.989L410.312 783.949C407.306 783.843 404.155 782.912 401.144 783.209C399.802 783.342 399.021 784.025 398.073 784.879L398.037 816.801Z"/>
	<path fill="#FAA230" transform="scale(0.936637 0.936637)" d="M935.859 453.494L990.731 485.273C989.611 490.706 988.961 494.104 984.693 497.891L979.108 501.467C973.73 496.914 969.666 495.494 962.788 494.039C964.203 491.253 965.14 488.319 966.134 485.364C965.033 483.152 963.774 480.429 961.643 479.042C958.261 476.841 951.877 475.987 947.911 474.725C943.975 473.473 940.142 471.823 936.324 470.253L935.859 453.494Z"/>
	<path fill="#80919E" transform="scale(0.936637 0.936637)" d="M1025.4 787.165L1035.39 790.122C1034.45 795.651 1032.49 801.168 1030.94 806.559L1022.45 835.966C1018.18 850.858 1015.03 866.232 1009.95 880.856C1009.21 882.983 1008.4 885.875 1006.43 887.194C1004.57 888.441 1001.55 889.135 999.375 888.479C998.511 888.218 997.52 887.734 996.879 887.091C997.26 886.772 997.749 886.55 998.02 886.134C998.854 884.86 999.394 881.248 999.845 879.643L1006.34 856.131L1025.4 787.165Z"/>
	<path fill="#FAA230" transform="scale(0.936637 0.936637)" d="M342.458 566.556L342.988 565.808C344.309 563.802 344.612 560.7 345.367 558.391C347.976 550.422 353.494 542.652 362.048 540.554C369.091 538.828 377.89 540.925 384.555 543.433C383.457 554.176 382.385 562.879 373.584 570.171C368.944 574.016 361.302 575.49 355.41 574.879C351.948 574.52 349.196 573.706 346.352 571.666L344.252 573.648C342.875 571.99 342.404 571.061 342.347 568.892L342.458 566.556Z"/>
	<defs>
		<linearGradient id="gradient_0" gradientUnits="userSpaceOnUse" x1="372.03186" y1="548.85736" x2="342.70328" y2="569.93213">
			<stop offset="0" stop-color="#350000"/>
			<stop offset="1" stop-color="#600000"/>
		</linearGradient>
	</defs>
	<path fill="url(#gradient_0)" transform="scale(0.936637 0.936637)" d="M342.347 568.892C353.14 557.186 366.049 549.851 381.213 545.16L346.352 571.666L344.252 573.648C342.875 571.99 342.404 571.061 342.347 568.892Z"/>
	<path fill="#5E4F4F" transform="scale(0.936637 0.936637)" d="M996.371 754.832L996.668 755.96C997.05 756.46 997.331 757.055 997.812 757.458C1000.31 759.551 1028.65 764.671 1033.75 765.815L1073.69 775.39C1071.46 780.775 1068.66 785.165 1064.83 789.563L993.788 770.947C993.583 765.715 994.014 759.543 996.371 754.832Z"/>
	<path fill="#3A5411" transform="scale(0.936637 0.936637)" d="M1130.65 904.289C1136.21 900.131 1142.61 896.844 1148.4 892.947C1152.02 890.514 1156.46 887.494 1159.69 884.619C1162.75 881.891 1165.4 878.707 1168.44 875.958C1170.73 873.88 1172.94 872.174 1175.1 869.865C1175.26 876.951 1176.08 885.27 1173.91 892.093L1173.63 893.005C1172 898.202 1168.36 902.674 1164.79 906.685C1155.62 917.003 1144.74 924.542 1132.5 930.805C1124.11 935.096 1115.19 939.383 1106.07 941.739C1108.69 938.452 1112.37 935.775 1115.47 932.938C1121.13 927.759 1126.34 921.429 1130.32 914.871C1131.73 912.548 1136.18 905.143 1135.62 902.842L1134.88 902.976C1133.43 903.254 1132.04 903.801 1130.65 904.289Z"/>
	<path fill="#B65951" transform="scale(0.936637 0.936637)" d="M317.479 571.638C324.483 566.907 330.874 562.13 336.92 556.17C336.723 560.224 335.813 565.853 336.914 569.743C337.532 571.93 339.735 574.437 339.904 576.567C339.953 577.182 339.201 578.816 338.997 579.482L336.856 587.215C334.835 595.808 333.342 604.632 332.691 613.443C331.916 623.92 331.694 635.213 332.677 645.66L338.466 688.068L321.935 684.28C323.406 678.318 322.67 670.751 323.121 664.512L325.578 631.314C326.158 624.83 327.545 618.603 327.003 612.04C326.474 605.618 324.073 598.922 322.557 592.645C320.884 585.719 319.841 578.345 317.479 571.638Z"/>
	<path fill="#63676F" transform="scale(0.936637 0.936637)" d="M858.026 778.297L895.626 778.096L895.574 816.708L856.635 816.767L853.101 816.691C853.131 813.476 853.566 809.554 852.559 806.502C853.999 806.451 855.515 806.411 856.843 805.79C859.855 804.379 861.036 801.545 862.038 798.618C861.928 795.318 862.098 792.187 860.607 789.159C860.827 786.796 859.223 785.438 858.317 783.389L857.979 782.61L858.026 778.297Z"/>
	<path fill="#80919E" transform="scale(0.936637 0.936637)" d="M862.038 798.618C863.459 805.407 860.726 810.54 857.1 816.062L856.635 816.767L853.101 816.691C853.131 813.476 853.566 809.554 852.559 806.502C853.999 806.451 855.515 806.411 856.843 805.79C859.855 804.379 861.036 801.545 862.038 798.618Z"/>
	<path fill="#FAA230" transform="scale(0.936637 0.936637)" d="M135.365 519.428C134.579 513.209 133.331 507.277 133.194 500.965C132.962 490.279 135.888 478.036 140.502 468.415C151.207 475.626 160.659 481.531 167.976 492.502C172.788 503.15 172.127 511.49 169.157 522.54C167.32 525.818 164.036 529.568 160.683 531.338C159.41 532.01 158.953 532.454 157.566 532.005C156.802 514.195 150.798 496.509 141.852 481.213L146.315 503.568C148.372 512.673 151.09 521.281 154.056 530.119C148.401 524.865 143.539 520.061 135.365 519.428Z"/>
	<path fill="#FAA230" transform="scale(0.936637 0.936637)" d="M140.747 567.562C132.605 566.555 126.528 567.297 119.442 562.26C109.445 555.153 106.614 538.364 104.772 527.133C111.533 525.99 118.459 525.458 125.312 525.879C129.027 526.107 132.583 526.835 136.328 526.714L137.003 526.684C144.971 530.028 149.787 534.595 153.128 542.611C155.593 548.526 155.658 554.861 153.509 560.892C152.824 562.216 152.42 563.139 151.059 563.898C147.688 565.178 144.246 566.709 140.747 567.562Z"/>
	<path fill="#811816" transform="scale(0.936637 0.936637)" d="M151.059 563.898C147.546 560.211 143.209 557.27 139.317 553.993C130.026 546.17 122.129 538.833 111.437 532.754C122.335 535.019 131.179 538.869 139.595 546.278C144.66 550.738 148.891 555.99 153.509 560.892C152.824 562.216 152.42 563.139 151.059 563.898Z"/>
	<path fill="#FAA230" transform="scale(0.936637 0.936637)" d="M1160.4 524.77C1167.64 524.417 1175.32 525.045 1182.53 525.857C1180.14 534.957 1177.7 544.328 1173 552.553C1169.1 559.38 1163.07 564.996 1155.33 567.042C1149.63 568.55 1136.72 570.113 1131.56 566.33C1129.99 565.174 1129.3 564.157 1128.84 562.325C1131.23 559.727 1134.58 557.978 1137.49 555.989L1149.83 546.904L1167.81 533.774L1167.81 533.087L1126.19 557.309C1127.9 549.295 1129.71 542.691 1135.04 536.232C1141.52 528.393 1150.64 525.618 1160.4 524.77Z"/>
	<path fill="#FAA230" transform="scale(0.936637 0.936637)" d="M1143.92 469.802L1145.63 469.539C1146.08 469.812 1146.17 469.828 1146.56 470.291C1148 471.983 1149.13 475.332 1150.01 477.396C1154.42 487.773 1156.51 498.029 1154.59 509.299C1154.31 510.966 1153.69 515.838 1152.75 517.085C1152.49 517.426 1146.47 518.871 1145.53 519.218C1139.21 521.542 1134.46 525.528 1129.06 529.386C1127.09 529.265 1126.79 529.429 1125.24 528.079C1125.58 524.11 1127.94 519.969 1129.41 516.257L1138.49 492.784C1138.98 491.444 1139.68 490.6 1139.06 489.259L1119.96 524.758C1118.62 524.172 1116.16 519.158 1115.47 517.673C1112.19 510.654 1112.6 501.877 1115.34 494.722C1120.33 481.641 1131.82 475.239 1143.92 469.802Z"/>
	<path fill="#FEF1E6" transform="scale(0.936637 0.936637)" d="M417.016 770.917L409.394 770.92L409.427 546.72C410.932 545.966 414.742 547.035 416.522 547.287L417.016 770.917Z"/>
	<path fill="#811816" transform="scale(0.936637 0.936637)" d="M647.809 867.749L732.975 867.731L732.765 887.421C724.751 888.553 715.14 887.58 706.976 887.6L648.003 887.734L647.809 867.749Z"/>
	<path fill="#811816" transform="scale(0.936637 0.936637)" d="M555.775 867.742L641.24 867.739L641.138 887.543L555.807 887.529L555.775 867.742Z"/>
	<path fill="#E14402" transform="scale(0.936637 0.936637)" d="M269.487 678.449C264.826 679.061 260.016 680.777 256.074 677.702C251.073 673.801 247.659 669.047 246.951 662.629C245.797 652.167 251.014 644.342 254.929 635.155C259.887 623.522 260.758 613.29 257.675 601.065C269.241 599.3 276.744 599.715 286.366 606.896C298.116 615.664 307.83 632.594 309.814 647.111C311.239 657.53 308.963 667.642 302.562 676.14L299.642 679.61L288.348 678.491C291.706 675.096 294.949 671.825 297.047 667.478C300.861 659.574 300.283 648.886 297.419 640.781C292.528 626.941 282.567 616.34 269.416 610.219C268.761 616.236 268.633 622.077 266.956 627.966C263.666 639.513 253.968 651.809 257.104 664.303C258.863 671.312 263.73 674.787 269.487 678.449Z"/>
	<path fill="#FAA230" transform="scale(0.936637 0.936637)" d="M300.129 481.72C300.675 479.674 300.513 477.551 300.96 475.469C302.712 467.3 305.739 459.625 311.79 453.671C321.143 444.465 336.891 443.851 349.244 443.895C349.336 452.947 349.718 461.677 347.745 470.585C338.05 477.015 328.998 484.913 320.782 493.141L318.172 495.747C314.522 498.49 311.666 502.14 308.701 505.583L299.145 502.124L300.129 481.72Z"/>
	<path fill="#811816" transform="scale(0.936637 0.936637)" d="M318.172 495.747C316.879 490.279 315.768 485.698 316.539 480.037C318.387 466.456 330.743 457.162 340.889 449.359C335.572 456.828 329.71 464.509 325.609 472.711C323.7 476.529 318.769 488.359 320.476 492.485L320.782 493.141L318.172 495.747Z"/>
	<path fill="#FAA230" transform="scale(0.936637 0.936637)" d="M269.487 678.449C263.73 674.787 258.863 671.312 257.104 664.303C253.968 651.809 263.666 639.513 266.956 627.966C268.633 622.077 268.761 616.236 269.416 610.219C282.567 616.34 292.528 626.941 297.419 640.781C300.283 648.886 300.861 659.574 297.047 667.478C294.949 671.825 291.706 675.096 288.348 678.491L269.487 678.449Z"/>
	<path fill="#B65951" transform="scale(0.936637 0.936637)" d="M1042.23 791.998L1059.33 796.338C1061.13 796.779 1063.59 797.716 1065.4 797.049L1070.29 795.199L1075.78 850.229L1061.56 850.216C1050.15 850.229 1037.54 851.295 1026.27 850.007L1042.23 791.998Z"/>
	<path fill="#FAA230" transform="scale(0.936637 0.936637)" d="M276.881 398.863C283.054 394.87 288.826 389.508 295.382 386.295L301.937 400.935C305.963 413.059 310.419 427.856 304.351 440.09C299.024 450.831 290.908 454.237 281.096 459.643C278.083 460.366 275.112 460.662 272.035 460.946C277.747 449.253 283.152 437.599 286.874 425.098L294.181 395.543C285.568 408.309 279.063 424.85 274.442 439.507C273.214 443.404 270.156 457.679 268.125 459.894L264.883 458.141C257.989 449.384 255.157 442.211 255.738 430.873C256.393 418.112 267.953 406.847 276.881 398.863Z"/>
	<path fill="#B65951" transform="scale(0.936637 0.936637)" d="M1118.88 547.724C1118.52 554.658 1118.15 561.448 1122.14 567.47C1125.62 572.739 1130.61 574.665 1136.56 575.898C1140.1 576.631 1143.88 576.363 1147.49 576.308C1145.61 579.318 1099.5 610.204 1092.79 614.888L1078.95 624.645C1078.65 619.654 1078.09 613.847 1076.43 609.12C1075.44 606.306 1073.28 603.772 1072.98 600.771C1072.67 597.605 1070.58 576.978 1071.19 575.912C1071.26 575.786 1071.48 575.88 1071.62 575.863L1074.06 575.531L1082.7 573.978C1099.38 570.533 1108.5 560.351 1118.88 547.724Z"/>
	<path fill="#028446" transform="scale(0.936637 0.936637)" d="M296.693 504.342C299.021 505.398 301.354 506.519 303.835 507.166C305.918 507.71 308.21 507.773 310.191 508.615C316.204 511.168 321.899 515.514 327.739 518.564C337.179 523.494 347.179 527.387 357.003 531.469C348.091 537.565 340.399 544.288 332.51 551.607C325.449 557.863 315.226 566.893 305.938 569.29C303.201 569.996 300.589 569.592 298.226 568.093C296.09 566.739 294.371 564.622 293.896 562.081C292.3 553.536 293.102 543.384 292.619 534.61L291.631 520.335C291.489 518.365 291.02 515.854 291.228 513.928C291.482 511.576 295.341 506.538 296.693 504.342Z"/>
	<path fill="#FAA230" transform="scale(0.936637 0.936637)" d="M229.374 468.863C223.346 468.993 216.984 468.954 211.167 467.175C202.28 464.459 193.299 457.978 188.928 449.634C180.746 434.014 183.503 415.72 188.379 399.583C200.482 403.569 213.54 407.447 223.933 415.048C231.195 420.359 236.669 426.448 239.121 435.304C240.375 439.833 240.718 444.681 241.444 449.321C240.189 455.97 239.105 461.26 233.996 465.972C223.826 444.339 213.894 421.423 193.011 407.952C196.9 412.849 200.763 417.705 203.969 423.092L216.086 445.429C220.515 452.916 225.558 459.761 230.826 466.676C230.557 467.941 230.26 467.985 229.374 468.863Z"/>
	<path fill="#B65951" transform="scale(0.936637 0.936637)" d="M1031.76 462.584C1033.19 465.853 1034.52 469.753 1036.67 472.602C1041.02 478.374 1050.96 479.81 1057.6 480.909L1068.03 596.083C1067.01 595.917 1066.61 595.58 1065.86 594.896C1062.94 592.259 1060.6 588.61 1057.96 585.656L1042.57 569.034C1041.62 568.008 1038.59 565.437 1038.14 564.267C1037.24 561.909 1037.8 556.317 1037.6 553.573L1031.76 462.584Z"/>
	<path fill="#B65951" transform="scale(0.936637 0.936637)" d="M1027.86 455.867C1030.1 466.808 1029.85 479.239 1030.62 490.432L1035.02 560.482L1014.62 539.921L995.75 520.062C995.177 516.245 994.632 512.37 993.611 508.643C993.342 507.663 991.827 503.881 991.983 503.102C992.136 502.341 993.367 500.716 993.768 499.943C999.512 488.886 997.941 477.859 994.319 466.399C998.724 467.441 1003.24 468.275 1007.78 467.916C1016.53 467.226 1022.37 462.307 1027.86 455.867Z"/>
	<path fill="#FEF1E6" transform="scale(0.936637 0.936637)" d="M829.675 289.972C821.777 290.309 814.804 291.022 808.545 285.294C803.36 280.551 802.9 273.86 802.633 267.253C802.246 257.685 801.267 245.461 808.574 238.011C815.479 230.971 825.384 233.088 834.193 233.128L854.893 233.157C853.372 247.227 852.414 261.171 852.823 275.338C852.958 280.023 852.822 284.96 853.886 289.542C846.359 289.577 836.957 288.524 829.675 289.972Z"/>
	<path fill="#028446" transform="scale(0.936637 0.936637)" d="M160.821 470.949C167.04 472.512 171.678 476.129 176.905 479.636C187.625 486.83 199.769 494.864 206.465 506.242C208.792 510.197 210.632 515.941 213.733 519.222L213.955 547.144C214.012 552.706 214.434 558.679 213.672 564.179C213.459 565.719 212.758 567.39 211.746 568.576C210.854 569.623 209.235 570.821 207.812 570.792C203.135 570.694 198.366 568.044 194.336 565.928C181.589 559.237 169.146 549.869 158.654 540.034C163.081 537.898 167.424 535.501 170.959 532.027C177.282 525.813 180.62 516.938 180.646 508.151C180.695 491.482 171.962 482.062 160.821 470.949Z"/>
	<path fill="#FAA230" transform="scale(0.936637 0.936637)" d="M862.798 492.971L902.639 480.04C905.127 479.206 912.582 475.72 914.852 476.003C916.837 476.25 919.84 478.205 921.734 479.054C924.914 480.48 928.344 481.567 931.676 482.602C936.968 484.247 942.646 485.244 948.125 485.958C950.436 486.259 952.799 486.953 954.947 485.822L955.488 487.302C947.204 503.753 927.306 518.973 909.973 524.748L890.555 531.071L862.798 492.971Z"/>
	<path fill="#FAA230" transform="scale(0.936637 0.936637)" d="M981.752 382.833C992.918 384.984 1005 392.688 1012.97 400.709C1022.18 409.983 1028.82 422.156 1028.76 435.448C1028.73 444.034 1023.51 451.316 1017.64 457.124C1016.25 455.745 1015.53 453.549 1014.68 451.793L1009.14 440.792L987.657 399.16L986.675 397.284L986.226 397.597C988.222 404.453 991.549 411.141 994.272 417.75L1011.95 459.914C1003.2 460.575 995.328 459.677 987.826 454.901C979.297 449.47 973.17 441.089 971.071 431.155C967.397 413.764 972.169 397.395 981.752 382.833Z"/>
	<path fill="#FAA230" transform="scale(0.936637 0.936637)" d="M354.461 473.764C357.492 478.883 391.274 487.548 398.706 489.433L422.62 495.312L391.833 531.6L339.271 512.828C332.813 510.421 324.079 508.887 318.759 504.398C320.923 501.183 324.386 498.626 327.244 495.997C335.904 488.03 344.665 480.314 354.461 473.764Z"/>
	<path fill="#FAA230" transform="scale(0.936637 0.936637)" d="M1091.04 397.827L1094.27 397.795C1094.6 398.187 1094.86 398.446 1095.1 398.882C1096.18 400.822 1096.43 404.053 1096.84 406.234C1099.06 418.013 1099.36 429.915 1095.78 441.485C1092 453.727 1083.48 464.976 1071.98 470.873C1064.03 474.95 1055.27 473.544 1047.13 470.893L1083.06 413.376L1085.63 409.475L1085.31 408.848L1041.2 466.908C1039.16 464.516 1038.26 458.059 1037.81 454.901C1036.16 443.119 1038.36 429.95 1045.71 420.337C1056.29 406.494 1074.32 399.978 1091.04 397.827Z"/>
	<path fill="#CAB2AB" transform="scale(0.936637 0.936637)" d="M761.674 782.994L828.404 782.938L855 783.92C856.412 783.906 856.926 783.494 857.979 782.61L858.317 783.389C859.223 785.438 860.827 786.796 860.607 789.159C862.098 792.187 861.928 795.318 862.038 798.618C861.036 801.545 859.855 804.379 856.843 805.79C855.515 806.411 853.999 806.451 852.559 806.502C853.566 809.554 853.131 813.476 853.101 816.691L762.03 816.381L761.674 782.994Z"/>
	<path transform="scale(0.936637 0.936637)" d="M852.559 806.502L851.195 806.02C848.954 805.03 847.326 803.008 846.594 800.697C845.707 797.898 845.728 794.335 847.25 791.751C848.522 789.59 850.872 787.843 853.307 787.251C856.123 786.567 858.258 787.83 860.607 789.159C862.098 792.187 861.928 795.318 862.038 798.618C861.036 801.545 859.855 804.379 856.843 805.79C855.515 806.411 853.999 806.451 852.559 806.502Z"/>
	<path fill="#B65951" transform="scale(0.936637 0.936637)" d="M415.8 823.627L466.333 823.485L466.194 893.311L445.218 892.736C435.342 892.739 426.149 893.407 416.803 889.501L416.895 846.798C416.912 840.528 417.994 832.152 416.853 826.139C416.671 825.18 416.32 824.437 415.8 823.627Z"/>
	<path fill="#028446" transform="scale(0.936637 0.936637)" d="M1092.28 464.159C1097.4 467.084 1103.44 472.804 1106.4 477.938C1107.97 480.656 1109.28 484.033 1111.38 486.356C1108.35 491.699 1106.47 498.044 1106.25 504.186C1105.77 517.218 1109.29 524.789 1118.12 534.111L1109.79 546.695C1099.99 559.911 1087.95 565.54 1072.04 567.98L1064.46 482.424C1076.28 478.468 1083.88 473.125 1092.28 464.159Z"/>
	<path fill="#CAB2AB" transform="scale(0.936637 0.936637)" d="M762.523 823.47L816.46 823.488L816.496 893.772L789.327 893.824C783.704 893.858 776.811 894.499 771.413 892.918C767.784 891.855 765.269 889.896 762.469 887.433L762.523 823.47Z"/>
	<path fill="#CAB2AB" transform="scale(0.936637 0.936637)" d="M472.602 823.469L527.513 823.492L527.541 856.292L527.51 878.242C527.503 880.475 527.968 884.016 527.272 886.121C526.821 887.485 525.365 888.726 524.37 889.721C516.357 893.935 507.608 892.725 498.798 892.737L472.514 892.714L472.602 823.469Z"/>
	<path fill="#B65951" transform="scale(0.936637 0.936637)" d="M845.027 171.836L911.748 171.468L915.686 225.713C906.217 225.688 835.197 226.481 832.53 225.167C835.088 225.135 838.817 225.515 841.176 224.702L845.027 171.836Z"/>
	<path fill="#292829" transform="scale(0.936637 0.936637)" d="M902.607 90.6966L930.311 90.6587C932.053 90.6547 936.003 90.0898 937.484 90.6036C938.044 90.7979 939.556 92.4968 940.027 92.9743C942.417 95.3986 944.24 98.5062 946.136 101.326C951.057 108.646 955.33 116.39 959.331 124.245C956.64 128.87 934.127 163.732 931.573 164.325C928.958 164.932 925.322 164.494 922.609 164.494L902.75 164.494L816.232 164.478L809.19 152.333L899.256 151.555L919.745 120.869L902.607 90.6966Z"/>
	<path fill="#FAA230" transform="scale(0.936637 0.936637)" d="M270.145 467.677C273.148 467.505 277.772 466.677 280.565 467.592C282.272 470.383 281.939 474.389 282.122 477.594L283.139 497.06L286.235 543.744C286.609 550.372 285.788 560.303 288.168 566.329C289.958 570.86 293.741 574.227 298.438 575.467C304.935 577.183 311.738 574.354 317.479 571.638C319.841 578.345 320.884 585.719 322.557 592.645C324.073 598.922 326.474 605.618 327.003 612.04C327.545 618.603 326.158 624.83 325.578 631.314L323.121 664.512C322.67 670.751 323.406 678.318 321.935 684.28L306.81 681.763C310.213 677.082 313.616 672.243 315.318 666.651C319.917 651.541 314.613 634.771 307.335 621.436C300.021 608.038 288.266 597.736 273.611 593.402L268.319 592.52L269.2 591.896C270.242 585.861 269.942 579.348 270.033 573.232L270.251 539.182L270.366 494.227C270.382 485.41 270.692 476.474 270.145 467.677Z"/>
	<path fill="#E14402" transform="scale(0.936637 0.936637)" d="M270.145 467.677C273.148 467.505 277.772 466.677 280.565 467.592C280.187 468.016 279.639 468.336 279.43 468.864C278.914 470.163 279.168 473.631 279.088 475.129L278.057 497.621L273.611 593.402L268.319 592.52L269.2 591.896C270.242 585.861 269.942 579.348 270.033 573.232L270.251 539.182L270.366 494.227C270.382 485.41 270.692 476.474 270.145 467.677Z"/>
	<path fill="#B65951" transform="scale(0.936637 0.936637)" d="M821.838 823.815L880.538 823.826L880.544 859.514C880.576 866.908 881.372 875.205 879.815 882.465C879.241 885.141 877.765 887.188 876.225 889.384C873.681 891.497 871.449 893.017 868.158 893.792C863.724 894.835 857.916 894.194 853.324 894.198L821.723 894.159L821.838 823.815Z"/>
	<path fill="#FAA230" transform="scale(0.936637 0.936637)" d="M430.17 496.202C433.323 497.32 436.776 497.489 440.078 497.918L460 500.129L497.211 504.347C507.335 505.558 517.634 507.18 527.808 507.791L519.775 543.322L415.855 534.835L405.504 534.111C404.423 534.041 402.208 534.202 401.25 533.839C400.712 533.636 399.928 532.87 399.436 532.509L430.17 496.202Z"/>
	<path fill="#FAA230" transform="scale(0.936637 0.936637)" d="M240.48 469.585C241.883 466.706 243.611 463.939 244.723 460.931C246.57 455.931 247.321 450.651 248.225 445.421L248.717 445.153C249.719 446.663 249.959 448.244 250.327 449.997C254.669 458.325 260.521 464.518 269.573 467.51L270.145 467.677C270.692 476.474 270.382 485.41 270.366 494.227L270.251 539.182L270.033 573.232C269.942 579.348 270.242 585.861 269.2 591.896L268.319 592.52C262.276 592.878 256.47 593.246 251.291 596.708C249.444 599.866 250.575 603.056 251.452 606.398C254.604 618.409 251.76 628.102 245.836 638.612L245.271 639.579C244.43 641.381 243.663 643.283 242.639 644.986L241.752 522.988L241.447 488.587C241.388 482.717 242.264 475.165 240.48 469.585Z"/>
	<path fill="#811816" transform="scale(0.936637 0.936637)" d="M240.48 469.585C241.883 466.706 243.611 463.939 244.723 460.931C246.57 455.931 247.321 450.651 248.225 445.421L248.717 445.153C249.719 446.663 249.959 448.244 250.327 449.997C248.62 458.954 249.165 468.627 248.834 477.754L247.046 548.084L245.039 609.105C244.731 617.501 243.84 626.132 243.941 634.512C243.963 636.276 244.332 638.066 245.271 639.579C244.43 641.381 243.663 643.283 242.639 644.986L241.752 522.988L241.447 488.587C241.388 482.717 242.264 475.165 240.48 469.585Z"/>
	<path fill="#CAB2AB" transform="scale(0.936637 0.936637)" d="M527.633 783.098L527.474 816.47L430.974 816.451L408.783 816.46C405.469 816.461 401.225 815.959 398.037 816.801L398.073 784.879C399.021 784.025 399.802 783.342 401.144 783.209C404.155 782.912 407.306 783.843 410.312 783.949L435.113 783.989L527.633 783.098Z"/>
	<path transform="scale(0.936637 0.936637)" d="M428.393 789.88C430.016 789.58 431.28 789.481 432.893 789.975C435.619 790.808 437.715 792.274 438.977 794.882C440.056 797.112 439.761 800.188 438.928 802.451C437.782 805.566 435.612 806.785 432.812 808.158C431.272 808.402 429.777 808.635 428.247 808.204C425.786 807.513 424.025 805.969 422.782 803.765C421.289 801.119 421.149 798.503 422.109 795.625C423.125 792.58 425.705 791.191 428.393 789.88Z"/>
	<path fill="#B65951" transform="scale(0.936637 0.936637)" d="M429.024 795.507L429.604 795.413C431.603 795.403 431.895 796.086 433.199 797.382C433.533 799.653 433.282 799.888 432.188 801.945C431.094 802.592 430.675 802.485 429.426 802.525L427.58 800.508C427.525 797.894 427.549 797.654 429.024 795.507Z"/>
	<path fill="#FAA230" transform="scale(0.936637 0.936637)" d="M534.246 508.137C543.248 509.394 552.413 508.845 561.478 509.148L613.359 510.975C621.714 511.173 630.51 510.76 638.759 511.93L638.741 553.268L608.865 552.645C600.482 548.728 586.988 549.886 577.707 549.215L539.098 546.033C534.762 545.638 529.97 545.782 525.772 544.662L534.246 508.137Z"/>
	<path fill="#FAA230" transform="scale(0.936637 0.936637)" d="M749.735 507.263L757.125 550.571L645.163 553.259L645.491 511.966C648.698 512.138 651.839 511.604 655.037 511.472L680.312 510.25L725.938 508.331C733.949 508.056 741.752 508.254 749.735 507.263Z"/>
	<path fill="#811816" transform="scale(0.936637 0.936637)" d="M307.383 811.134C328.778 808.403 348.603 804.502 368.814 796.857L358.567 839.202C355.865 850.531 353.647 862.865 349.013 873.563C346.238 879.97 341.35 887.878 335.243 891.584C330.264 894.606 323.363 895.253 317.695 895.947C308.811 897.034 299.99 897.745 291.039 897.885C298.416 876.799 303.194 855.749 305.711 833.552C306.557 826.085 307.576 818.663 307.383 811.134Z"/>
	<path fill="#FAA230" transform="scale(0.936637 0.936637)" d="M855.49 493.984L884.065 532.799C883.012 533.285 768.023 550.576 763.771 550.004L756.597 507.742C763.377 506.155 770.897 505.823 777.812 504.871L838.496 496.759L848.767 495.343C851.167 495.104 853.474 495.512 855.49 493.984Z"/>
	<path fill="#CAB2AB" transform="scale(0.936637 0.936637)" d="M854.893 233.157L906.173 233.229C912.676 233.244 920.674 232.232 926.981 233.397C929.944 233.944 934.016 236.333 936.073 238.496C942.808 245.576 941.237 262.765 940.751 272.118C940.458 277.749 938.192 283.29 933.83 287.053C931.454 289.104 928.391 290.321 925.29 290.643C915.68 291.638 905.198 290.211 895.464 290.153L829.675 289.972C836.957 288.524 846.359 289.577 853.886 289.542C852.822 284.96 852.958 280.023 852.823 275.338C852.414 261.171 853.372 247.227 854.893 233.157Z"/>
	<path fill="#B65951" transform="scale(0.936637 0.936637)" d="M670.515 421.401L676.413 497.963L625.089 497.949C618.521 497.955 608.72 499.45 602.613 497.447C601.316 494.229 603.425 484.34 603.827 480.495L609.922 423.113L648.042 423.076C655.25 423.071 663.579 423.416 670.515 421.401Z"/>
	<path fill="#811816" transform="scale(0.936637 0.936637)" d="M826.875 394.994C829.995 397.265 832.565 400.685 835.13 403.555L848.352 418.43L891.659 467.213C871.344 474.312 851.111 479.993 829.975 484.129C825.209 485.062 819.728 486.76 814.902 486.301C814.075 477.964 808.902 468.47 805.769 460.704L784.48 409.169C794.756 405.592 805.59 403.708 815.918 400.252C819.526 399.044 823.621 397.989 826.482 395.371L826.875 394.994Z"/>
	<path fill="#028446" transform="scale(0.936637 0.936637)" d="M393.196 543.747L401.88 545.333L401.824 644.623C398.566 650.53 390.062 656.634 384.103 659.418C372.865 664.668 361.029 666.199 349.237 661.94L340.725 657.191C339.856 644.515 338.801 631.757 339.472 619.043C340.149 606.207 342.557 593.196 345.889 580.817C348.926 580.706 352.399 582.32 355.524 582.63C364.265 583.496 373.427 580.691 380.175 575.117C390.432 566.646 392.068 556.289 393.196 543.747Z"/>
	<path fill="#028446" transform="scale(0.936637 0.936637)" d="M793.493 188.995C805.283 187.302 815.307 190.12 825.945 194.824L824.282 224.921C818.922 225.588 812.65 226.034 807.907 228.828C802.149 232.221 798.287 238.411 796.629 244.747L796.488 245.274C795.345 249.64 795.478 254.36 795.356 258.852C795.099 268.239 794.327 277.998 799.359 286.379C803.466 293.22 809.828 296.184 817.286 298.042C816.315 306.137 816.134 314.419 815.896 322.566C815.765 327.043 816.474 334.64 814.554 338.607C811.658 335.419 809.324 331.334 806.885 327.769L738.829 218.861L739.22 218.318C741.161 215.733 744.809 213.284 747.369 211.196C761.346 199.792 775.54 191.833 793.493 188.995Z"/>
	<path fill="#B65951" transform="scale(0.936637 0.936637)" d="M507.343 415.224L480.808 489.82L419.658 478.465C410.881 476.835 401.437 475.866 392.939 473.171L448.762 405.55C451.855 407.838 457.897 407.524 461.764 408.151L507.343 415.224Z"/>
	<path fill="#811816" transform="scale(0.936637 0.936637)" d="M919.387 850.224L888.131 850.21L888.085 824.042C891.601 823.961 897.244 824.302 900.107 821.959C902.03 820.385 902.568 818.85 902.792 816.403C903.652 806.988 903.033 796.865 903.014 787.381C903.007 784.214 903.775 776.247 901.501 773.858L901.088 773.473C897.334 769.929 892.431 770.743 887.664 770.819L888.762 725.556C888.959 716.825 888.546 707.424 889.619 698.774C891.806 681.143 900.042 662.841 912.353 650.029C925.629 636.213 941.286 630.508 960.179 630.095C941.176 642.576 928.655 658.013 924.022 680.713C919.514 702.798 920.811 726.171 920.408 748.62L919.387 850.224Z"/>
	<path fill="#B65951" transform="scale(0.936637 0.936637)" d="M639.624 96.8259L639.887 96.2619C640.81 94.3179 641.856 92.5915 643.071 90.8191L700.278 200.557L589.524 201.06L590.047 200.53L591.015 199.513C595.027 194.422 597.925 186.468 600.977 180.638L632.821 116.841C635.253 111.322 640.055 102.77 639.624 96.8259Z"/>
	<path fill="#B65951" transform="scale(0.936637 0.936637)" d="M887.536 619.023L1053.6 619.006L1067.7 757.278L1035.57 748.714L1035.57 736.434C1035.59 719.167 1035.71 701.174 1030.88 684.444C1024.57 662.639 1010.07 642.254 989.843 631.322C973.576 622.528 956.178 620.401 938.438 625.739C920.632 631.096 905.6 644.138 895.938 659.836C892.725 665.055 890.424 670.65 887.531 676.024L887.536 619.023Z"/>
	<path fill="#5E4F4F" transform="scale(0.936637 0.936637)" d="M809.19 152.333L792.376 124.916L811.988 90.0166L902.607 90.6966L919.745 120.869L899.256 151.555L809.19 152.333Z"/>
	<path fill="#B65951" transform="scale(0.936637 0.936637)" d="M760.706 303.88C761.401 304.109 761.917 304.239 762.458 304.762C764.427 306.665 766.191 309.873 767.816 312.17L778.908 327.822L822.563 389.08L727.754 406.244L723.143 376.401L723.832 376.541L723.716 375.404C723.428 369.096 722.012 362.643 720.999 356.399L713.528 315.308C723.793 314.841 734.125 312.889 744.082 310.379L756.297 306.721C756.868 306.531 759.34 305.941 759.688 305.577C760.143 305.1 760.366 304.446 760.706 303.88Z"/>
	<path fill="#B65951" transform="scale(0.936637 0.936637)" d="M459.938 395.687C467.428 388.082 473.238 379.489 479.534 370.908L499.399 343.659L520.672 312.861L529.338 314.692C541.664 316.812 554.182 317.729 566.618 318.957C569.048 319.196 573.022 320.257 575.312 319.971C575.602 319.935 576.766 318.932 577.08 318.708L576.772 319.682C575.902 322.576 575.771 326.008 575.415 329.019L573.383 345.735L565.764 408.448C534.908 406.792 504.701 404.015 474.24 398.661C469.739 397.87 464.002 397.662 459.938 395.687Z"/>
	<path fill="#B65951" transform="scale(0.936637 0.936637)" d="M514.314 414.436C520.226 418.21 530.31 417.412 537.263 418.097C559.49 420.285 581.484 422.318 603.848 421.957C602.005 428.597 602.139 437.362 601.42 444.337L595.862 497.625L486.968 490.341L505.295 440.094C508.192 432.17 512.454 423.259 514.211 415.045L514.314 414.436Z"/>
	<path fill="#B65951" transform="scale(0.936637 0.936637)" d="M201.949 801.697C209.177 804.275 217.208 805.664 224.752 807.06C246.018 810.995 267.451 812.484 289.062 811.885C295.056 811.719 301.449 811.865 307.383 811.134C307.576 818.663 306.557 826.085 305.711 833.552C303.194 855.749 298.416 876.799 291.039 897.885L262.837 897.753C253.582 897.681 244.278 897.826 235.41 894.865C234.731 892.518 227.973 889.326 225.839 887.862C211.48 878.011 210.22 854.228 207.794 838.548L201.949 801.697Z"/>
	<path fill="#B65951" transform="scale(0.936637 0.936637)" d="M705.578 210.416L758.701 297.503C741.403 301.621 724.262 305.063 706.562 306.955C687.872 308.953 668.937 309.209 650.157 309.762C651.218 300.68 650.128 290.31 650.126 281.086L650.071 215.134L705.578 210.416Z"/>
	<path fill="#B65951" transform="scale(0.936637 0.936637)" d="M639.215 213.254L639.421 309.47C608.839 309.552 578.147 308.306 547.763 304.761C539.673 303.818 531.541 303.328 523.627 301.333L576.96 212.497C580.206 213.764 583.875 213.287 587.305 213.49L637.812 214.437L639.215 213.254Z"/>
	<path fill="#B65951" transform="scale(0.936637 0.936637)" d="M240.48 469.585C242.264 475.165 241.388 482.717 241.447 488.587L241.752 522.988L242.639 644.986C240.12 654.311 238.267 664.216 243.377 673.021C244.992 675.803 247.188 678.168 249.344 680.534L220.51 686.862L210.439 690.043C209.941 684.967 210.428 679.654 210.518 674.549L211.102 644.877C211.179 640.823 211.609 636.362 211.258 632.342C211.198 631.648 210.994 630.783 210.692 630.154C209.295 627.242 187.779 617.62 183.11 614.972C171.904 608.614 160.805 601.894 150.656 593.924C143.73 588.485 137.347 582.23 130.908 576.225C139.401 575.51 148.2 574.302 155.191 568.973C160.775 564.716 161.978 559.86 162.863 553.288C171.709 560.461 181.014 566.082 191.024 571.433C195.913 574.047 201.203 577.156 206.875 577.485C210.17 577.676 214.012 575.561 216.22 573.254C218.468 570.906 219.688 567.723 220.246 564.564C221.926 555.043 220.77 544.586 220.742 534.948L220.66 477.816L230.65 475.867C234.343 474.484 237.522 472.141 240.48 469.585Z"/>
	<path fill="#FAA230" transform="scale(0.936637 0.936637)" d="M240.48 469.585C242.264 475.165 241.388 482.717 241.447 488.587L241.752 522.988L242.639 644.986C240.12 654.311 238.267 664.216 243.377 673.021C244.992 675.803 247.188 678.168 249.344 680.534L220.51 686.862C220.255 686.294 219.625 685.699 219.45 685.167C218.908 683.526 220.434 676.387 220.696 674.196L227.352 619.771C231.215 571.905 229.324 523.799 230.65 475.867C234.343 474.484 237.522 472.141 240.48 469.585Z"/>
	<path fill="#B65951" transform="scale(0.936637 0.936637)" d="M775.411 410.056L807.609 488.086L683.278 498.319L678.896 445.604L677.644 429.794C677.454 427.323 677.594 424.47 677.017 422.087C687.318 422.092 698.048 420.34 708.32 419.322C730.593 417.115 753.615 415.406 775.411 410.056Z"/>
	<path fill="#B65951" transform="scale(0.936637 0.936637)" d="M204.518 750.944C244.728 759.726 284.983 762.62 325.855 756.238C346.687 752.985 365.351 748.206 383.29 736.65L384.71 735.724C384.861 748.542 384.972 774.207 375.48 783.797C370.574 788.754 365.018 791.163 358.671 793.736C332.125 804.495 300.857 805.407 272.533 805.239C249.199 805.1 223.229 802.315 201.212 794.445C196.762 792.854 191.363 791.165 187.748 787.991L187.263 787.474C186.316 784.061 183.756 781.137 182.518 777.678C178.669 766.928 178.792 755.867 178.645 744.598C185.637 747.992 196.635 753.007 204.518 750.944Z"/>
	<defs>
		<linearGradient id="gradient_1" gradientUnits="userSpaceOnUse" x1="774.33606" y1="774.37756" x2="528.05518" y2="727.22406">
			<stop offset="0" stop-color="#6C7684"/>
			<stop offset="1" stop-color="#95B1C0"/>
		</linearGradient>
	</defs>
	<path fill="url(#gradient_1)" transform="scale(0.936637 0.936637)" d="M639.153 593.532C641.408 593.197 644.039 593.328 646.339 593.328C673.204 593.322 703.039 606.412 721.856 625.471C737.16 640.972 748.215 660.407 752.949 681.729C755.569 693.524 755.11 705.804 755.099 717.808L755.022 756.768L754.72 887.185L739.977 887.191L740.061 753.773L740.079 716.421C740.083 707.1 740.543 697.497 738.868 688.293C736.148 673.353 728.807 656.281 719.157 644.394C702.673 624.087 678.602 610.912 652.655 608.347L646.562 608.075C622.231 607.649 596.45 616.811 579 634.046C565.445 647.434 554.767 664.647 550.434 683.292C547.956 693.954 548.532 705.042 548.534 715.906L548.538 754.121L548.556 887.18L534.393 887.18L534.349 751.031L534.339 712.792C534.336 702.507 533.831 692.356 535.894 682.215C539.581 664.087 548.643 646.601 560.524 632.533C580.625 608.733 608.527 596.198 639.153 593.532Z"/>
	<path fill="#811816" transform="scale(0.936637 0.936637)" d="M640.9 58.8304L643.119 58.7395C646.18 58.7516 648.577 60.3225 650.453 62.6796C654.144 67.3171 655.875 73.6734 657.991 79.129L665.919 97.481L686.224 137.899L703.222 171.417L731.353 219.767C765.247 278.717 800.925 336.875 842.942 390.468C862.656 415.612 884.01 439.299 906.258 462.193L898.709 464.818C885.857 453.356 875.009 439.723 863.613 426.848L828.788 384.73L808.071 358.735L776.369 312.676L760.056 288.42L724.522 227.252L692.497 171.917L661.57 111.068C657.865 103.797 654.602 93.9404 649.073 87.9919C647.306 86.09 645.153 84.4551 642.461 84.4265C640.182 84.4023 638.377 85.9828 636.791 87.466L636.353 87.8835L636.161 88.1591C629.057 98.1301 624.369 111.087 618.882 122.092L590.197 176.2C555.564 237.549 518.743 298.55 477.65 355.785L436.184 409.475L404.479 448.6C398.281 456.137 392.369 464.386 385.275 471.092L373.062 467.047C381.851 458.952 389.453 449.506 397.003 440.27L422.581 408.883C489.753 326.241 545.457 234.12 595.52 140.286L622.392 88.213C626.251 80.3599 629.237 71.9203 633.45 64.2624C635.253 60.9858 637.512 59.834 640.9 58.8304Z"/>
	<path fill="#97EB70" transform="scale(0.936637 0.936637)" d="M945.274 238.284C942.494 235.078 939.79 231.971 936.533 229.227C947.546 210.716 965.594 193.91 986.836 188.412C1003.41 184.122 1021.81 187.39 1036.36 196.252C1049.44 204.215 1060.35 217.589 1063.96 232.605L1065.33 239.021C1081.07 228.901 1097.06 223.535 1115.9 227.658C1133.01 231.401 1147.94 243.532 1157.12 258.172C1168.12 275.72 1171.28 298.601 1166.58 318.735C1164.89 325.953 1161.79 333.023 1158.8 339.788C1173.79 336.708 1189.02 338.358 1201.96 346.911C1217.7 357.305 1228.86 373.588 1232.53 392.147C1235.79 408.627 1231.95 424.781 1224.77 439.672C1223.88 436.628 1224.02 432.972 1223.78 429.792C1223.28 423.317 1222.48 416.74 1220.37 410.569C1213.87 391.637 1201.51 377.529 1183.47 368.8C1171.54 363.022 1157.42 361.479 1144.43 364.256C1139.66 365.278 1134.93 367.183 1130.32 368.795C1136.06 364.361 1142.18 359.435 1146.68 353.724C1156.13 341.716 1159.35 328.583 1157.37 313.553C1155.11 296.302 1144.9 278.4 1130.98 267.895C1119.92 259.551 1104.26 253.922 1090.33 255.949C1075.33 258.133 1064.95 265.107 1056.11 277.154C1054.17 258.501 1049.58 241.821 1034.8 228.961C1021.4 217.302 1005.42 213.232 987.974 214.413C970.702 215.582 956.295 225.623 945.274 238.284Z"/>
	<path fill="#B65951" transform="scale(0.936637 0.936637)" d="M275.609 685.445L276.201 685.382C285.299 684.758 295.091 686.573 304.062 687.898C324.455 690.911 347.638 694.659 365.924 704.514C369.182 706.27 372.88 708.048 375.674 710.48C379.193 713.543 383.719 718.18 383.791 723.157C383.833 726.061 382.221 728.115 380.346 730.142C375.012 735.906 367.332 738.991 360.122 741.64C335.965 750.517 310.546 752 285.065 753.267C263.271 753.402 242.163 751.845 220.799 747.488C205.686 744.405 190.386 740.182 178.272 730.111C176.246 728.426 175.111 726.635 175.006 723.951C174.843 719.816 176.786 716.568 179.462 713.612C186.349 706.004 196.75 701.625 206.203 698.247C228.528 690.268 252.003 686.822 275.609 685.445Z"/>
	<path transform="scale(0.936637 0.936637)" d="M273.344 686.67C292.313 685.961 310.907 689.1 329.219 693.691C343.173 697.189 358.894 701.816 370.028 711.291C372.989 713.812 375.47 716.927 375.644 720.966C375.798 724.541 374.237 727.606 371.809 730.13C367.652 734.453 362.545 737.159 357.046 739.417C341.557 745.775 323.341 747.32 306.742 748.322L287.656 749.543C265.369 749.729 241.765 748.468 220 743.343C211.064 741.239 202.04 738.535 194.062 733.875C190.458 731.77 184.832 728.357 183.891 723.927C183.163 720.499 184.098 717.2 186.091 714.353C190.529 708.012 198.805 703.976 205.77 701.089C222.444 694.178 238.881 691.104 256.521 688.147L273.344 686.67Z"/>
	<path fill="#E14402" transform="scale(0.936637 0.936637)" d="M325.224 729.999C327.815 726.123 331.238 723.175 335.955 722.284C340.875 721.354 344.214 723.028 348.094 725.837C346.058 729.068 344.556 730.81 340.667 731.618C335.934 732.602 329.642 731.96 325.224 729.999Z"/>
	<path fill="#811816" transform="scale(0.936637 0.936637)" d="M348.094 725.837C350.101 728.163 351.964 730.078 351.758 733.373L351.721 733.805C347.078 737.517 335.341 739.206 329.485 738.761C327.909 738.641 326.323 737.71 325.429 736.411C324.44 734.974 324.366 733.145 324.761 731.491L325.224 729.999C329.642 731.96 335.934 732.602 340.667 731.618C344.556 730.81 346.058 729.068 348.094 725.837Z"/>
	<path fill="#811816" transform="scale(0.936637 0.936637)" d="M248.825 718.093C251.093 720.55 253.802 723.818 253.674 727.365C253.602 729.335 252.416 730.819 250.938 732.031C247.167 735.121 236.86 734.094 232.231 733.199C226.651 732.12 218.865 731.613 215.211 726.74C215.353 723.936 216.125 721.668 217.475 719.223C218.495 721.317 219.482 723.367 221.506 724.667C225.547 727.262 233.562 726.354 237.965 725.25C242.87 724.019 246.112 722.557 248.825 718.093Z"/>
	<path fill="#E14402" transform="scale(0.936637 0.936637)" d="M217.475 719.223C218.502 717.484 219.775 715.864 221.142 714.378C224.08 711.181 227.904 709.23 232.262 709.061C239.67 708.773 243.883 713.449 248.825 718.093C246.112 722.557 242.87 724.019 237.965 725.25C233.562 726.354 225.547 727.262 221.506 724.667C219.482 723.367 218.495 721.317 217.475 719.223Z"/>
	<path fill="#811816" transform="scale(0.936637 0.936637)" d="M285.177 711.562C287.461 711.518 289.373 711.644 291.579 712.298C298.313 714.295 304.179 719.921 307.466 726.042C308.825 728.572 309.9 731.017 309.062 733.889C303.887 737.581 295.998 738.086 289.855 739.001C283.738 739.438 272.171 739.726 266.755 736.742C264.954 735.75 264.444 734.851 263.791 732.991C264.251 729.649 265.821 726.276 267.702 723.486C272.213 716.797 277.3 713.167 285.177 711.562Z"/>
	<path fill="#811816" transform="scale(0.936637 0.936637)" d="M268.881 694.176L271.494 693.945C297.925 692.684 327.827 698.072 352.18 708.215C356.918 710.189 362.803 712.618 366.522 716.249C368.443 718.124 369.503 719.642 369.586 722.364C367.92 727.774 362.307 730.475 357.716 733.076C356.786 729.698 355.834 726.525 353.953 723.538C351.422 719.516 347.77 716.938 343.125 715.989C337.275 714.793 331.203 716.259 326.369 719.675C322.453 722.441 319.418 726.981 318.797 731.801C318.283 735.781 319.956 738.108 322.289 741.059L322.924 741.855C318.895 742.285 295.438 745.624 292.908 744.244C298.903 743.179 309.755 742.877 314.197 738.431C315.539 737.087 316.32 734.884 316.251 732.991C315.984 725.736 309.668 716.02 304.24 711.538C298.662 706.932 290.972 704.362 283.75 705.248C273.705 706.48 266.641 714.332 260.938 721.971L259.922 722.953C258.185 721.975 257.34 718.333 256.289 716.511C252.097 709.238 243.642 705.037 235.793 703.124C230.795 701.906 226.742 702.485 222.338 705.177C216.438 708.783 210.372 715.063 208.904 722.051C208.227 725.278 208.348 728.381 210.361 731.112C214.072 736.145 226.001 738.143 231.903 739.213C241.103 740.881 249.56 740.527 257.37 735.089C259.739 738.096 261.757 741.105 265.609 742.221C268.286 742.997 270.959 743.02 273.539 744.156C268.221 744.949 262.836 743.232 257.5 742.827C251.467 742.37 245.415 742.706 239.375 742.116C223.005 740.517 199.209 735.513 188.448 722.339L192.247 716.548C195.776 712.301 201.504 709.52 206.483 707.363C225.683 699.048 248.177 696.097 268.881 694.176Z"/>
	<path fill="#B65951" transform="scale(0.936637 0.936637)" d="M416.522 547.287L466.413 552.217L466.25 770.911L417.016 770.917L416.522 547.287Z"/>
	<path fill="#B65951" transform="scale(0.936637 0.936637)" d="M836.074 297.553L920.003 297.701L926.056 410.88L927.787 443.643C928.158 451.621 928.195 459.896 929.553 467.765C925.117 465.444 920.147 463.259 916.143 460.252C910.067 455.686 904.687 449.604 899.355 444.193C874.434 418.903 852.017 391.063 830.847 362.597L836.074 297.553Z"/>
	<path fill="#97EB70" transform="scale(0.936637 0.936637)" d="M120.43 335.027C109.812 312.923 108.563 292.137 116.735 269.055C122.53 252.689 136.487 238.542 152.12 231.327C165.036 225.367 181.959 224.594 195.345 229.601C201.702 231.979 208.186 235.745 213.657 239.763C219.319 220.559 229.655 203.616 247.812 193.866C262.45 186.006 280.825 183.21 296.875 188.207C318.153 194.833 335.551 209.284 345.729 229.162C348.876 235.309 351.123 242.068 352.595 248.809C366.659 237.314 380.489 227.157 399.628 229.046C416.419 230.704 429.381 239.315 439.804 252.359C452.533 268.287 456.79 289.737 454.382 309.671C453.174 319.668 450.333 328.667 445.952 337.717C443.731 334.006 445.75 323.674 445.618 318.828C445.212 303.928 439.132 289.94 429.723 278.563C420.84 267.823 407.252 261.23 393.454 260.136C377.423 258.865 364.714 266.062 352.877 276.159C350.509 267.821 348.222 260.032 343.846 252.473C333.91 235.314 317.46 223.926 298.438 219.02C283.794 215.244 266.819 217.792 253.811 225.466C235.658 236.175 227.428 251.434 222.275 271.339C212.851 263.975 203.909 258.276 191.741 256.62C176.356 254.526 159.707 260.221 147.659 269.695C132.8 281.379 124.286 300.055 121.801 318.459C121.062 323.935 121.12 329.516 120.43 335.027Z"/>
	<path fill="#B65951" transform="scale(0.936637 0.936637)" d="M681.02 316.919C682.645 317.413 685.86 316.991 687.632 316.993C693.817 317.001 700.18 317.31 706.329 316.642L706.29 317.585C706.225 320.43 707.377 323.787 707.965 326.609L710.893 342.128C714.845 363.54 719.106 385.271 721.222 406.948C678.347 410.549 635.588 411.378 592.6 409.808C587.841 409.635 576.119 410.788 572.56 407.912C572.533 407.044 572.383 406.018 572.566 405.174C574.691 402.889 575.082 397.089 575.765 393.982C581.103 369.717 583.25 344.639 587.076 320.091C597.374 318.615 608.263 319.032 618.654 318.952C623.342 318.916 628.223 319.127 632.858 318.369L633.463 318.26L681.02 316.919Z"/>
	<path fill="#811816" transform="scale(0.936637 0.936637)" d="M956.086 501.078C957.993 501.188 959.918 501.293 961.791 501.69C965.274 502.429 968.359 503.707 971.095 506.045C977.058 511.141 982.393 517.286 987.779 522.989L1013.72 550.395L1045.1 583.555C1053.15 592.009 1061.97 600.169 1068.35 609.986L999.214 610.61L887.456 611.44C887.479 606.355 887.2 539.577 887.491 539.164C887.582 539.034 895.174 537.682 895.861 537.54C919.733 532.611 940.282 519.32 956.086 501.078Z"/>
	<path fill="#B65951" transform="scale(0.936637 0.936637)" d="M877.723 541.695L879.069 541.516C880.634 543.094 879.89 552.832 879.895 555.573L880.016 770.775L824.688 770.906L822.5 770.748C822.282 770.457 821.963 770.22 821.845 769.875C821.187 767.953 821.844 762.481 821.843 760.199L821.837 727.339L821.806 551.599L877.723 541.695Z"/>
	<path fill="#B65951" transform="scale(0.936637 0.936637)" d="M960.179 630.095C980.592 632.472 996.371 641.451 1009.06 657.519C1030.31 684.414 1027.99 714.541 1027.61 746.813C1018.47 744.381 1008.43 741.114 999.083 740.098C992.258 744.616 988.798 750.462 987.167 758.469C985.986 764.263 985.752 771.235 988.139 776.752C990.254 778.791 993.161 779.098 995.897 779.793L1011.71 783.742L993.742 850.245L919.387 850.224L920.408 748.62C920.811 726.171 919.514 702.798 924.022 680.713C928.655 658.013 941.176 642.576 960.179 630.095Z"/>
	<path fill="#811816" transform="scale(0.936637 0.936637)" d="M647.532 614.37C669.747 615.986 690.449 624.869 706.305 640.584C719.114 653.28 727.853 670.147 731.498 687.781C733.123 695.644 732.635 703.838 732.611 711.831L732.59 744.004L732.829 861.975L647.719 862.014L647.532 614.37Z"/>
	<path transform="scale(0.936637 0.936637)" d="M681.013 725.242C685.689 725.193 689.738 725.176 694.141 726.912C700.556 729.442 705.073 735.189 707.515 741.44C709.85 747.419 709.669 754.354 706.923 760.177C703.513 767.409 697.682 770.489 690.543 773.13C684.809 773.695 679.602 773.342 674.413 770.704C668.991 767.947 665.041 762.703 663.181 756.979L662.913 756.122C661.096 750.502 661.363 743.507 663.996 738.152C667.596 730.832 673.606 727.7 681.013 725.242Z"/>
	<path fill="#FAA230" transform="scale(0.936637 0.936637)" d="M682.99 732.724C686.085 732.438 688.422 732.762 691.26 734.096C695.839 736.248 699.548 740.526 701.1 745.316C702.377 749.256 701.768 753.674 699.794 757.26C697.166 762.031 693.268 763.834 688.298 765.148C685.359 765.351 682.883 765.156 680.165 763.919C675.797 761.93 672.141 758.02 670.608 753.452C669.291 749.532 669.122 746.005 671.015 742.211C673.653 736.923 677.569 734.556 682.99 732.724Z"/>
	<path fill="#811816" transform="scale(0.936637 0.936637)" d="M637.877 614.724C639.065 614.508 639.971 614.678 641.149 614.838C641.476 615.306 641.634 615.457 641.778 616.088C642.706 620.148 641.819 626.702 641.82 630.974L641.819 673.06L641.775 862.019L559.219 861.988L556.28 861.773C555.917 861.275 555.814 861.208 555.626 860.523C554.896 857.858 555.58 853.264 555.578 850.344L555.574 817.499L555.526 730.525C555.493 717.289 553.675 701.994 556.038 689.041C558.811 673.845 565.681 660.988 574.69 648.633C589.759 627.967 613.452 618.584 637.877 614.724Z"/>
	<path transform="scale(0.936637 0.936637)" d="M596.762 725.89C599.702 725.775 602.915 725.433 605.789 726.181L606.562 726.402C607.851 726.761 609.111 727.129 610.312 727.729C617.171 731.153 621.326 736.762 623.647 743.949C625.497 749.678 624.378 756.454 621.484 761.65C617.848 768.177 611.946 771.36 604.99 773.24C599.183 773.442 594.266 772.879 589.044 770.094C584.062 767.437 580.407 761.618 578.77 756.355C576.854 750.194 576.985 743.096 580.177 737.352C583.923 730.609 589.703 727.974 596.762 725.89Z"/>
	<path fill="#FAA230" transform="scale(0.936637 0.936637)" d="M596.77 733.427C599.387 733.23 602.419 732.778 604.956 733.562C609.461 734.954 613.261 738.783 615.383 742.933C617.264 746.612 617.783 750.262 616.388 754.208C614.554 759.397 610.986 762.139 606.105 764.316C603.072 765.041 599.986 765.752 596.925 764.692C592.496 763.157 588.873 759.395 587.025 755.155C585.352 751.316 584.817 746.247 586.605 742.33C588.721 737.696 592.22 735.331 596.77 733.427Z"/>
	<path fill="#028446" transform="scale(0.936637 0.936637)" d="M1161.56 484.753C1175.02 482.356 1190.57 475.669 1201.2 466.979C1207.2 462.074 1212.04 456.465 1217.6 451.162L1225.39 452.778C1239.23 456.182 1252.6 465.572 1260.01 477.83C1267.57 490.321 1270.74 507.827 1267.19 522.044C1263.13 538.276 1252.32 552.469 1237.93 560.994C1228.78 566.411 1219.82 568.897 1209.55 571.135C1219.21 591.646 1223.81 613.656 1216.03 635.629C1209.99 652.669 1196.17 667.74 1179.84 675.393C1161.94 683.776 1141.57 683.671 1123.23 676.842C1111.54 672.493 1102.44 664.331 1093.81 655.617L1067.03 677.525L1063.85 644.615L1140.07 590.49L1161.01 575.372C1166.71 571.252 1172.82 567.394 1177.01 561.631C1185.33 550.187 1188.55 533.998 1191.68 520.436C1181.04 518.357 1171.16 517.029 1160.27 516.944C1162.96 506.1 1164.05 495.787 1161.56 484.753Z"/>
	<path fill="#028446" transform="scale(0.936637 0.936637)" d="M60.5366 448.474C64.3055 451.308 67.7127 454.631 71.5894 457.309C82.6148 464.927 95.8328 469.726 108.96 472.18C114.939 473.297 122.045 473.559 127.779 475.323C123.949 488.951 122.954 502.304 125.196 516.288C116.354 516.293 103.151 515.279 95.1999 519.705C93.227 523.079 95.3705 529.525 96.325 533.168C100.295 548.323 103.874 563.992 118.354 572.455C119.958 573.392 121.508 574.158 123.292 574.701L122.53 574.752C129.261 585.952 139.015 593.619 149.37 601.329C160.247 609.427 171.482 616.731 183.516 622.99L195.312 628.912C197.893 630.104 201.09 631.105 203.268 632.975C204.897 634.373 204.641 637.079 204.742 639.079C204.622 639.644 204.529 640.889 204.261 641.343C202.815 643.791 199.644 646.292 197.788 648.596C195.06 651.983 192.684 655.745 190.205 659.318C181.751 667.341 171.869 674.142 160.911 678.156C141.486 685.27 119.458 684.239 100.803 675.424C84.5033 667.722 69.6631 652.651 63.6998 635.481C59.0398 622.063 58.732 604.64 62.7223 590.978C64.3533 585.394 66.9249 580.058 69.4524 574.841C65.9524 575.164 62.5554 576.154 59.0411 576.406C51.544 576.942 45.1906 574.876 38.7281 571.26C25.4783 563.845 15.9907 550.21 12.0751 535.702C6.95837 516.745 10.0519 496.963 20.1022 480.117C29.6175 464.168 42.5156 453.06 60.5366 448.474Z"/>
	<path fill="#489E13" transform="scale(0.936637 0.936637)" d="M1106.07 941.739C1039.39 969.036 966.85 980.831 895.65 989.438C813.396 999.381 730.673 1003.74 647.835 1003.94C565.988 1004.14 483.843 1000.84 402.554 991.036C347.04 984.337 291.102 974.898 237.573 958.476C205.324 948.582 170.422 936.766 146.038 912.399C133.243 899.613 131.372 887.912 131.38 870.473C152.653 904.14 193.999 916.69 229.378 929.325C256.142 938.882 284.537 944.577 312.367 950.002C393.125 965.745 475.705 972.808 557.896 975.121L637.447 975.476L713.171 975.769L773.004 972.479L882.45 964.325L967.689 951.948C996.155 947.117 1024.67 941.601 1052.5 933.822C1079.45 926.29 1105.38 916.311 1130.65 904.289C1132.04 903.801 1133.43 903.254 1134.88 902.976L1135.62 902.842C1136.18 905.143 1131.73 912.548 1130.32 914.871C1126.34 921.429 1121.13 927.759 1115.47 932.938C1112.37 935.775 1108.69 938.452 1106.07 941.739Z"/>
	<path fill="#CAB2AB" transform="scale(0.936637 0.936637)" d="M813.307 552.274C815.026 552.118 815.111 551.945 816.482 552.947C817.685 558.924 816.871 566.43 816.871 572.571L816.858 613.859L816.742 770.92L761.84 770.91L761.901 728.285C761.92 706.729 762.576 686.797 755.359 666.075C744.568 635.09 721.582 611.552 692.341 597.408C665.971 584.653 633.955 583.211 606.42 592.994C575.669 603.92 551.953 626.482 537.829 655.615C526.868 678.908 527.425 701.026 527.458 726.032L527.532 770.765L472.612 770.907L472.573 552.541L531.25 556.377C605.582 560.284 680.206 562.396 754.548 557.528C774.018 556.254 794.026 555.168 813.307 552.274Z"/>
	<path fill="#00C546" transform="scale(0.936637 0.936637)" d="M945.274 238.284C956.295 225.623 970.702 215.582 987.974 214.413C1005.42 213.232 1021.4 217.302 1034.8 228.961C1049.58 241.821 1054.17 258.501 1056.11 277.154C1064.95 265.107 1075.33 258.133 1090.33 255.949C1104.26 253.922 1119.92 259.551 1130.98 267.895C1144.9 278.4 1155.11 296.302 1157.37 313.553C1159.35 328.583 1156.13 341.716 1146.68 353.724C1142.18 359.435 1136.06 364.361 1130.32 368.795C1134.93 367.183 1139.66 365.278 1144.43 364.256C1157.42 361.479 1171.54 363.022 1183.47 368.8C1201.51 377.529 1213.87 391.637 1220.37 410.569C1222.48 416.74 1223.28 423.317 1223.78 429.792C1224.02 432.972 1223.88 436.628 1224.77 439.672C1223.06 443.781 1220.67 447.917 1217.6 451.162C1212.04 456.465 1207.2 462.074 1201.2 466.979C1190.57 475.669 1175.02 482.356 1161.56 484.753C1157.84 475.989 1153.67 468.231 1148.51 460.205C1133.24 466.059 1120.67 472.184 1111.38 486.356C1109.28 484.033 1107.97 480.656 1106.4 477.938C1103.44 472.804 1097.4 467.084 1092.28 464.159C1095.46 459.826 1098.43 455.174 1100.61 450.255C1109.56 430.047 1106.59 408.511 1098.8 388.652L1078.05 392.237C1065.04 395.15 1051.59 402.228 1042.64 412.221C1039.7 415.509 1037.4 419.429 1035.05 423.155C1033.12 421.147 1032.17 416.044 1031.03 413.321C1021.82 391.36 1000.19 381.424 979.559 372.936L970.622 386.072C961.072 402.965 960.258 419.965 965.246 438.307C955.261 434.298 945.238 432.009 934.708 429.963C933.612 427.69 933.999 422.443 933.864 419.834L932.324 389.17L927.436 297.942L932.47 296.725C938.251 294.914 942.771 289.807 945.356 284.481C948.483 278.037 948.642 271.224 948.683 264.199C948.739 254.876 948.301 247.176 945.274 238.284Z"/>
	<path fill="#028446" transform="scale(0.936637 0.936637)" d="M449.221 345.823C456.515 332.986 461.84 320.057 463.421 305.24C465.549 285.297 459.321 261.154 446.486 245.544C434.039 230.406 417.592 221.536 398.104 219.794C381.782 218.335 369.948 224.547 357.89 234.637L349.627 218.631C339.482 201.819 324.586 188.791 306.197 181.533C301.305 179.602 296.039 178.474 290.934 177.233C291.612 164.301 295.736 151.308 302.786 140.418C314.524 122.287 330.158 113.942 350.673 109.447C354.953 111.43 358.294 113.925 361.898 116.941C361.467 92.46 368.27 68.3923 384.652 49.6996C402.828 28.9613 426.279 18.0245 453.75 16.3604C475.033 15.0712 499.265 24.7369 514.942 38.784C531.032 53.2008 542.653 72.8052 546.762 94.0855C548.495 103.06 548.914 112.288 549.435 121.391C554.614 115.786 559.647 110.468 567.745 110.085C578.699 109.566 588.327 116.456 596.188 123.323L570.618 170.667L497.103 293.896L472.038 331.228C469.468 334.964 465.074 339.501 463.331 343.559L462.973 344.436L449.221 345.823Z"/>
	<path fill="#00C546" transform="scale(0.936637 0.936637)" d="M120.43 335.027C121.12 329.516 121.062 323.935 121.801 318.459C124.286 300.055 132.8 281.379 147.659 269.695C159.707 260.221 176.356 254.526 191.741 256.62C203.909 258.276 212.851 263.975 222.275 271.339C227.428 251.434 235.658 236.175 253.811 225.466C266.819 217.792 283.794 215.244 298.438 219.02C317.46 223.926 333.91 235.314 343.846 252.473C348.222 260.032 350.509 267.821 352.877 276.159C364.714 266.062 377.423 258.865 393.454 260.136C407.252 261.23 420.84 267.823 429.723 278.563C439.132 289.94 445.212 303.928 445.618 318.828C445.75 323.674 443.731 334.006 445.952 337.717L442.702 347.961L449.221 345.823L462.973 344.436C459.352 349.828 455.433 355.998 451.062 360.76C441.949 374.955 431.274 387.789 420.755 400.936L379.263 450.546C377.686 452.277 374.788 456.388 372.992 457.388C371.737 458.087 369.225 458.406 367.754 458.907C364.531 460.004 361.58 461.506 358.73 463.371C358.722 453.29 359.258 442.628 357.398 432.693C342.546 433.809 328.87 435.952 314.51 439.963C315.378 436.372 316.514 432.542 316.765 428.854C318.003 410.644 310.275 390.76 300.931 375.505L298.56 371.929C291.844 376.026 285.498 380.644 279.163 385.3C266.943 394.283 253.665 404.635 249.841 420.151L247.817 433.108C245.985 429.015 244.242 424.494 241.684 420.806C231.436 406.032 214.329 399.424 198.193 393.284C193.112 391.351 187.703 389.639 182.294 388.951C179.74 394.492 178.698 399.931 177.615 405.903C175.095 419.795 174.365 434.413 179.35 447.882C183.716 459.678 192.993 468.479 204.356 473.606C207.397 474.978 210.917 476.01 214.17 476.742L213.733 519.222C210.632 515.941 208.792 510.197 206.465 506.242C199.769 494.864 187.625 486.83 176.905 479.636C171.678 476.129 167.04 472.512 160.821 470.949L146.219 461.6C142.94 459.407 139.996 456.962 136.299 455.49C131.786 460.811 129.069 468.512 127.779 475.323C122.045 473.559 114.939 473.297 108.96 472.18C95.8328 469.726 82.6148 464.927 71.5894 457.309C67.7127 454.631 64.3055 451.308 60.5366 448.474C58.7059 446.28 57.329 444.07 55.9252 441.595L55.6806 441.238C46.2727 426.453 44.7455 406.117 48.2096 389.332C51.8172 371.853 62.1366 356.486 77.0684 346.694C91.3244 337.346 107.025 337.123 123.146 340.496L120.43 335.027Z"/>
	<path fill="#97EB70" transform="scale(0.936637 0.936637)" d="M449.221 345.823L462.973 344.436C459.352 349.828 455.433 355.998 451.062 360.76C440.483 364.732 430.432 370.057 424.245 379.935C421.862 383.741 420.238 387.862 417.964 391.699C417.768 388.434 418.455 384.2 419.148 380.978C422.435 365.683 429.79 356.431 442.702 347.961L449.221 345.823Z"/>
	<path fill="#97EB70" transform="scale(0.936637 0.936637)" d="M55.9252 441.595L55.6806 441.238C46.2727 426.453 44.7455 406.117 48.2096 389.332C51.8172 371.853 62.1366 356.486 77.0684 346.694C91.3244 337.346 107.025 337.123 123.146 340.496C134.633 346.694 144.588 361.679 152.247 372.015C135.175 363.789 118.122 360.236 99.704 366.628C83.5613 372.23 71.7479 384.221 64.4711 399.473C61.1305 406.474 58.7959 414.183 57.7066 421.861C57.2167 425.314 56.8976 428.742 56.8565 432.231C56.8214 435.209 57.2886 438.916 55.9252 441.595Z"/>
	<path fill="#FAA230" transform="scale(0.936637 0.936637)" d="M1081.3 774.97C1089.86 776.996 1098.05 780.312 1106.23 783.522C1127.65 791.934 1152.46 802.892 1166.56 821.911C1173.11 830.738 1176.49 840.147 1174.73 851.216C1172.29 866.525 1159.43 877.406 1147.5 885.916C1118.88 906.332 1082.48 917.469 1048.94 926.731C1000.17 940.2 950.667 947.928 900.527 954.216C791.086 967.943 679.147 971.761 568.94 967.739L489.16 962.868L419.658 958.542L341.875 948.338C288.199 939.249 171.527 916.52 139.267 870.354C132.995 861.379 130.011 850.254 132.099 839.405C135.254 823.009 148.363 812.083 161.447 803.164C167.634 798.822 174.773 795.482 181.488 792.051C183.603 793.66 188.807 796.046 190.145 797.852C190.924 798.903 191.579 805.805 191.903 807.526L198.878 845.671C200.781 856.187 202.464 867.758 206.549 877.663C209.286 884.3 213.321 890.75 219.187 895.04C235.048 906.639 258.457 905.304 277.136 905.306C292.198 905.308 307.228 905.068 322.12 902.544C329.565 901.282 336.975 899.447 342.81 894.376C357.701 881.438 362.235 855.592 366.638 837.182L372.639 811.249L375.202 796.98C375.386 795.891 375.48 793.33 375.946 792.532C376.517 791.556 379.121 789.914 380.069 789.086C382.091 787.321 383.67 785.263 385.214 783.082L385.023 808.376C384.995 812.231 384.274 817.743 386.186 821.138C390.753 825.121 396.23 823.934 401.892 823.77L401.776 856.459C401.694 864.084 400.671 872.474 402.238 879.984C403.603 886.525 408.219 892.473 413.839 895.956C417.964 898.512 422.309 899.759 427.099 900.253C433.391 900.902 440.057 900.454 446.384 900.41L478.181 900.336L506.236 900.283C510.47 900.269 515.751 900.841 519.842 899.782L520.625 899.558C524.637 898.468 528.053 895.727 531.443 893.387C539.687 894.478 548.343 893.922 556.652 893.877L595.757 893.764L731.651 893.496L752.067 893.462C753.159 893.461 756.81 893.091 757.633 893.454C758.799 893.968 760.46 895.728 761.562 896.54C764.584 898.765 768.386 900.156 772.02 901.018C775.66 901.882 779.851 901.487 783.595 901.499L805.256 901.541L868.095 901.477C872.99 901.274 878.674 897.776 881.918 894.169C890.197 884.961 888.151 869.042 887.612 857.738L991.832 857.809C989.384 866.86 983.012 878.013 987.57 887.404C989.411 891.197 992.864 894.039 996.82 895.392C1001.06 896.842 1003.97 896.472 1008.06 894.409C1019.1 888.835 1019.5 872.053 1022.72 861.591C1022.93 860.914 1023.68 857.969 1024.12 857.555C1024.25 857.431 1028.75 857.571 1029.38 857.573L1061.34 857.726C1066.71 857.796 1076.88 859.311 1081.56 856.857C1082.6 855.545 1083.49 854.781 1083.66 853.025C1084.05 849.138 1082.79 843.99 1082.39 840.025L1078.78 803.009C1078.31 797.979 1077.13 792.03 1077.42 787.047C1077.54 785.133 1078.66 783.509 1079.3 781.753C1080.09 779.556 1080.66 777.222 1081.3 774.97Z"/>
</svg>
