<?xml version="1.0" encoding="utf-8" ?>
<svg xmlns="http://www.w3.org/2000/svg" xmlns:xlink="http://www.w3.org/1999/xlink" width="817" height="817">
	<path transform="scale(0.798692 0.798692)" d="M510.363 57.1994L511.017 57.1175C528.379 56.7594 543.191 69.5182 547.577 85.8665C548.378 88.8531 548.71 91.9155 549.094 94.9767C549.213 95.9282 549.186 98.1165 549.57 98.9245C550.205 100.263 552.34 102.218 553.357 103.42L565.589 117.503C589.818 145.301 615.022 171.343 642.724 195.711L688.886 234.458L689.696 223.04C694.039 182.325 708.651 134.456 741.514 107.83C742.909 108.444 744.034 109.551 745.175 110.551C748.877 113.799 752.239 118.094 755.281 121.963C778.798 151.87 783.917 190.173 786.091 226.9C809.055 205.453 833.493 188.263 864.372 180.422C874.112 177.949 883.197 176.629 893.221 176.188C896.155 176.059 900.33 175.493 902.967 177.061C904.4 178.959 904.616 181.347 904.892 183.651C905.739 190.71 905.244 197.873 904.777 204.943C902.649 237.165 887.475 269.945 867.223 294.707C859.522 304.122 850.854 312.438 841.738 320.449C844.1 321.604 846.725 322.287 849.164 323.281C851.648 324.292 854.856 326.161 857.5 326.473C859.974 326.765 862.675 326.335 865.189 326.4C870.271 326.531 875.218 328.461 879.038 331.833C883.891 336.118 887.342 341.882 887.694 348.475C888.253 358.958 883.404 365.82 876.639 373.205L993.555 495.719C994.336 497.005 994.353 499.421 994.433 500.921C994.828 508.384 994.033 515.206 991.637 522.307C986.67 537.03 975.561 549.682 961.577 556.477C946.742 563.685 932.106 563.688 916.722 558.27C912.654 569.502 908.141 578.437 899.415 586.876C890.103 595.882 877.432 602.272 864.415 603.46C860.388 603.827 856.089 603.499 852.037 603.445L852.213 630.949L866.169 621.367C868.936 619.477 873.225 616.623 876.784 617.657C879.045 618.314 880.571 619.699 881.803 621.691C884.388 625.875 885.207 631.666 886.122 636.429C890.202 657.666 890.282 678.013 885.271 699.099C900.395 690.968 914.917 684.895 931.364 679.997C935.517 678.76 941.677 676.476 946.032 677.182C948.559 677.591 950.487 678.677 951.932 680.795C954.727 684.89 954.385 691.852 954.002 696.629C952.626 713.789 947.655 731.88 940.496 747.5C938.456 751.952 936.053 756.261 933.653 760.526C932.625 762.352 930.561 765.126 930.217 767.104C949.332 763.805 968.111 763.235 986.757 769.218C989.924 770.234 993.657 771.194 996.562 772.825C997.616 773.416 999.186 774.684 999.414 775.903C999.784 777.883 998.441 780.832 997.801 782.73L990.975 800.563C975.38 836 948.576 867.179 914.59 886.101C908.713 889.373 902.761 892.499 896.615 895.24L884.612 900.198C883.24 900.751 880.675 901.502 879.55 902.378C878.512 903.186 877.035 907.743 876.025 909.226C868.908 919.68 855.227 924.982 843.902 929.248C822.284 937.391 800.092 942.1 777.5 946.482L744.375 952.771L498.379 968.23L413.815 964.766L365.568 962.437C315.575 958.472 264.781 952.411 216 940.583C204.968 937.908 194.154 934.899 183.451 931.104C172.759 927.313 162.116 922.753 153.535 915.144C151.796 913.601 149.474 910.871 148.862 908.602C148.555 907.465 148.71 902.784 148.315 902.27C148.315 902.269 147.301 901.984 147.267 901.975C137.058 899.102 127.058 895.619 117.578 890.798C98.8907 881.294 82.3861 868.752 67.8853 853.623C50.9954 836.001 39.2973 815.443 29.8928 793.064C27.5601 787.514 24.4326 781.633 24.5622 775.5C24.9268 774.767 25.0899 774.036 25.7974 773.594C29.3097 771.397 33.7946 770.21 37.7356 768.993C57.2985 762.952 76.5694 763.322 96.3338 767.815C89.4337 756.432 83.2206 744.979 78.6588 732.432C74.219 720.22 71.5015 706.402 71.4752 693.391C71.4676 689.614 71.3887 685.807 73.1497 682.341C74.3213 680.035 76.5441 678.419 79.0004 677.676C83.4023 676.343 90.277 678.411 94.5709 679.757C109.98 684.59 123.599 691.743 137.779 699.226L135.88 689.945C132.726 672.022 134.124 654.339 137.587 636.612C138.536 631.757 139.546 625.591 142.596 621.566C143.781 620.003 145.755 618.599 147.75 618.394C155.663 617.581 165.014 626.366 170.757 631.126C171.26 628.16 170.926 624.722 170.931 621.706L170.947 604.516C160.353 603.809 150.513 603.028 140.75 598.491C123.751 590.593 112.995 576.444 106.682 559.184C105.456 558.985 103.687 559.599 102.44 559.864C99.3392 560.522 96.2188 561.261 93.0814 561.72C87.7487 562.5 80.7824 562.585 75.4628 561.677C63.8384 559.695 53.5987 555.362 45.0587 547.035C34.6451 536.882 28.0551 522.918 28.0783 508.25C28.0848 504.148 28.2223 496.565 30.6006 493.173C32.7946 490.043 37.0856 487.066 39.8648 484.307L64.4921 459.317L111.122 411.053L145.985 374.683C141.559 369.218 138.709 364.514 137.841 357.355C136.911 349.681 140.02 340.386 144.901 334.456C150.002 328.258 157.683 324.076 165.875 324.638C169.216 324.867 172.758 325.629 176.091 325.224C182.245 324.475 188.306 320.926 193.785 318.192L215.047 307.405C273.383 277.295 326.769 239.912 376.444 197.099C404.023 173.33 430.206 148.403 454.493 121.252L469.417 104.132C470.644 102.752 473.775 100.045 474.459 98.5021C474.857 97.6043 474.482 94.1819 474.513 93.0344C474.72 85.4079 477.877 77.206 482.638 71.25C489.929 62.1272 499.086 58.6315 510.363 57.1994Z"/>
	<path fill="#E5B1A1" transform="scale(0.798692 0.798692)" d="M159.857 839.909L149.579 831.708C154.376 817.774 163.463 808.683 175.585 800.577L177.223 812.942C169.662 821.22 164.459 829.706 159.857 839.909Z"/>
	<path fill="#E5B1A1" transform="scale(0.798692 0.798692)" d="M166.538 914.364C163.247 912.814 160.199 910.767 157.502 908.324C156.517 907.431 155.013 906.035 154.427 904.895C153.082 902.283 153.255 891.484 153.055 888.091L150.196 839.638L159.707 845.989C162.44 863.075 163.497 880.717 165.313 897.95L166.505 909.25C166.679 910.848 167.238 912.883 166.538 914.364Z"/>
	<path fill="#47E43F" transform="scale(0.798692 0.798692)" d="M146.006 628.161C146.329 626.513 146.857 625.475 147.75 624.061L148.75 623.665C156.732 627.135 164.679 633.425 171.018 639.355L171.447 705.135C169.146 702.575 167.823 697.85 166.548 694.626C161.086 680.811 156.403 666.892 152.759 652.473C150.795 644.701 149.677 635.247 146.006 628.161Z"/>
	<path fill="#FDC665" transform="scale(0.798692 0.798692)" d="M654.45 215.458L657.706 217.961L690.541 243.751L690.064 244.556C689.767 245.064 689.549 245.482 689.345 246.034C687.4 251.293 682.008 255.014 678.518 259.268L674.027 256.509L671.475 254.734C668.665 251.706 664.649 249.397 661.362 246.84L644.551 233.086C641.969 230.854 638.958 228.693 637.246 225.705L639.056 224.811L638.858 224.184L638 224.377L637.25 224.255L636.875 224.875L636.793 223.36L637.68 222.418L637.384 221.794C637.912 221.246 639.439 220.938 640.171 220.686L649.504 217.588C651.247 217.059 652.819 216.259 654.45 215.458Z"/>
	<path fill="#B5594F" transform="scale(0.798692 0.798692)" d="M654.45 215.458L657.706 217.961L650.644 220.861C650.487 219.674 649.986 218.669 649.504 217.588C651.247 217.059 652.819 216.259 654.45 215.458Z"/>
	<path fill="#8E1B20" transform="scale(0.798692 0.798692)" d="M649.504 217.588C649.986 218.669 650.487 219.674 650.644 220.861L639.056 224.811L638.858 224.184L638 224.377L637.25 224.255L636.875 224.875L636.793 223.36L637.68 222.418L637.384 221.794C637.912 221.246 639.439 220.938 640.171 220.686L649.504 217.588Z"/>
	<path fill="#FEBB84" transform="scale(0.798692 0.798692)" d="M690.541 243.751L730.82 270.91L742.268 278.604C744.206 279.914 746.571 281.203 748.266 282.773L739.174 286.272C735.046 286.943 730.899 288.487 726.93 289.81C719.292 285.984 712.553 281.328 705.37 276.75L678.518 259.268C682.008 255.014 687.4 251.293 689.345 246.034C689.549 245.482 689.767 245.064 690.064 244.556L690.541 243.751Z"/>
	<path fill="#04B661" transform="scale(0.798692 0.798692)" d="M171.447 705.135L172.008 736.045C167.744 728.427 161.526 721.7 155.338 715.583C152.548 712.825 147.926 709.693 146.093 706.25C144.11 702.525 143.594 697.858 142.824 693.75C138.632 671.381 139.629 650.02 146.006 628.161C149.677 635.247 150.795 644.701 152.759 652.473C156.403 666.892 161.086 680.811 166.548 694.626C167.823 697.85 169.146 702.575 171.447 705.135Z"/>
	<path fill="#FDC665" transform="scale(0.798692 0.798692)" d="M365.459 216.356L381.671 223.212L386.126 225.22L352.407 252.567L349.981 254.59L317.953 277.547C312.911 280.931 306.98 283.696 302.584 287.884L280.582 278.474C283.832 276.652 286.885 274.096 289.895 271.894L307.286 259.126L365.459 216.356Z"/>
	<path fill="#FEBB84" transform="scale(0.798692 0.798692)" d="M739.174 286.272L748.266 282.773C749.105 283.727 749.913 284.868 750.979 285.561C754.827 285.53 759.971 289.372 763.396 291.268L782.566 301.619C804.291 312.845 826.491 323.147 849.5 331.482C852.475 332.56 855.961 333.963 859.111 334.392C865.572 335.27 868.832 333.612 874.149 338.672C877.258 341.631 878.884 344.763 879.765 348.915L876.644 349.908L875.558 350.151C866.898 352.455 858.045 349.495 849.656 347.305C826.109 341.155 803.542 331.998 781.752 321.208L777.971 319.194C774.34 316.438 769.838 314.669 765.779 312.613L747.731 302.808C742.457 299.815 737.022 296.836 732.475 292.787L734.437 291.836L734.114 290.752C735.412 289.14 737.214 288.385 738.602 286.901L739.174 286.272Z"/>
	<path fill="#360007" transform="scale(0.798692 0.798692)" d="M739.174 286.272L748.266 282.773C749.105 283.727 749.913 284.868 750.979 285.561L734.437 291.836L734.114 290.752C735.412 289.14 737.214 288.385 738.602 286.901L739.174 286.272Z"/>
	<path fill="#FEBB84" transform="scale(0.798692 0.798692)" d="M277.474 280.802C284.033 284.551 290.575 287.388 297.597 290.128C286.807 297.029 275.738 302.922 264.5 308.999C259.846 311.515 252.817 317.207 247.505 317.124L246.25 315.363L245.316 315.84L244.887 318.684L227.158 327.671C211.797 335.19 196.054 343.03 179.877 348.63C172.538 351.171 164.808 352.926 157.281 354.825C153.63 355.746 150.073 356.872 146.363 357.572C146.407 354.565 146.378 351.446 147.048 348.5C148.384 342.625 152.227 337.266 157.663 334.529C163.603 331.538 168.304 333.807 174.5 333.492C178.68 333.279 183.102 331.897 187 330.407C201.205 324.977 214.734 316.558 228.01 309.16L277.474 280.802Z"/>
	<path fill="#04B661" transform="scale(0.798692 0.798692)" d="M875.049 624.027C876.689 624.575 876.727 624.754 877.491 626.326C879.745 630.961 880.476 636.841 881.267 641.896C884.302 661.312 885.064 683.503 878.199 702.281C875.902 708.564 871.577 713.556 867.508 718.759L852.066 737.521L852.202 670.778L852.143 648.83C852.137 646.073 851.613 642.211 852.399 639.582C852.81 638.665 853.345 637.941 854.074 637.25C858.782 632.786 868.491 624.001 875.049 624.027Z"/>
	<path fill="#47E43F" transform="scale(0.798692 0.798692)" d="M852.399 639.582C852.81 638.665 853.345 637.941 854.074 637.25C858.782 632.786 868.491 624.001 875.049 624.027C874.748 628.457 872.574 633.401 871.241 637.673C867.006 651.242 862.891 664.943 856.833 677.836C855.737 680.168 854.254 682.202 852.77 684.294C851.731 680.888 852.49 675.418 852.477 671.69L852.399 639.582Z"/>
	<path fill="#47E43F" transform="scale(0.798692 0.798692)" d="M879.957 849.179L879.519 821.073C889.412 811.801 899.849 803.433 909.138 793.465L918.364 783.054C920.168 780.886 922.216 777.552 924.604 776.147C927.198 774.621 930.566 773.905 933.458 773.096C948.963 768.759 964.405 769.594 979.909 773.341C972.858 781.273 964.954 788.676 957.129 795.837C940.409 811.137 922.866 824.68 903.5 836.485C895.877 841.131 888.228 845.774 879.957 849.179Z"/>
	<path fill="#04B661" transform="scale(0.798692 0.798692)" d="M171.993 795.524C163.951 801.145 157.238 807.75 150.777 815.078C146.483 812.639 142.003 807.681 138.272 804.347C115.834 784.292 95.5073 760.414 84.9606 731.844C80.7616 720.47 78.0553 708.372 77.3197 696.266C77.1125 692.856 76.6531 688.467 78.3299 685.373C79.2115 683.747 79.9197 683.636 81.5527 683.134C82.2416 689.024 87.2753 696.164 90.2505 701.348C108.19 732.607 130.31 758.633 157.169 782.514C161.341 786.224 165.334 790.419 169.722 793.833L171.993 795.524Z"/>
	<path fill="#47E43F" transform="scale(0.798692 0.798692)" d="M44.07 773.312C63.3437 768.939 83.3093 768.509 102.205 775.147C115.773 792.027 131.102 806.685 147.562 820.73C144.276 829.79 143.905 837.63 144.22 847.144L143.959 848.75L143.25 848.864C113.15 833.938 85.4668 815.973 61.4846 792.227C55.3493 786.152 49.3604 780.165 44.07 773.312Z"/>
	<path fill="#04B661" transform="scale(0.798692 0.798692)" d="M944.918 683.167C946.063 683.564 946.676 683.54 947.235 684.703C948.428 687.187 948.144 691.577 948.042 694.303C947.46 709.863 943.503 725.274 937.598 739.636C933.363 749.934 928.303 759.975 921.893 769.103C914.389 779.789 905.25 789.115 896.001 798.275C890.479 803.743 884.517 809.851 878.004 814.115C871.88 806.274 863.889 796.424 853.94 793.271C862.719 787.223 869.901 779.611 877.348 772.051C900.251 748.8 920.445 724.262 937.31 696.254C939.882 691.982 942.933 687.745 944.918 683.167Z"/>
	<path fill="#04B661" transform="scale(0.798692 0.798692)" d="M739.869 116.997L741 116.125C745.133 118.058 748.184 122.744 750.713 126.387C758.251 137.245 764.313 148.667 768.857 161.095C775.996 180.622 779.114 201.65 779.747 222.364C780.429 244.703 778.394 266.891 771.475 288.231C762.376 282.986 751.489 278.522 743.438 271.863L744.389 269.747C746.949 263.525 747.331 255.97 748.387 249.356C753.622 216.577 754.129 182.794 748.577 150.03C746.664 138.74 744.358 127.569 739.869 116.997Z"/>
	<path fill="#04B661" transform="scale(0.798692 0.798692)" d="M888.21 182.812L898.444 182.506C898.544 190.195 898.978 198.122 898.173 205.779C894.609 239.685 878.379 275.102 854.416 299.487L834.571 317.957L803.487 304.035L803.716 303.876C811.16 298.347 818.052 291.858 824.692 285.408C847.11 263.634 865.994 237.734 879.154 209.354C883.163 200.71 886.937 192.339 888.21 182.812Z"/>
	<path fill="#47E43F" transform="scale(0.798692 0.798692)" d="M853.94 793.271L852.277 791.75C851.219 787.396 851.972 782.197 851.977 777.704L852.016 747.825C852.031 746.875 852.207 746.486 852.793 745.751L868.737 727.242C873.484 721.27 877.485 713.973 883.049 708.75C894.95 697.579 911.774 692.141 927.006 687.252C932.638 685.445 938.963 682.992 944.918 683.167C942.933 687.745 939.882 691.982 937.31 696.254C920.445 724.262 900.251 748.8 877.348 772.051C869.901 779.611 862.719 787.223 853.94 793.271Z"/>
	<path fill="#47E43F" transform="scale(0.798692 0.798692)" d="M81.5527 683.134C88.5125 683.858 94.459 686.089 100.983 688.43C124.963 697.037 144.486 710.497 160.552 730.217L171.55 744.96C174.125 748.543 173.001 759.262 173.203 763.839L174.627 793.5C173.764 794.29 173.008 794.924 171.993 795.524L169.722 793.833C165.334 790.419 161.341 786.224 157.169 782.514C130.31 758.633 108.19 732.607 90.2505 701.348C87.2753 696.164 82.2416 689.024 81.5527 683.134Z"/>
	<path fill="#04B661" transform="scale(0.798692 0.798692)" d="M144.22 847.144C144.634 847.61 146.847 890.715 147.089 896.119C137.995 893.415 128.965 889.293 120.459 885.084C76.0242 863.094 46.7808 824.319 31.0693 777.95L44.07 773.312C49.3604 780.165 55.3493 786.152 61.4846 792.227C85.4668 815.973 113.15 833.938 143.25 848.864L143.959 848.75L144.22 847.144Z"/>
	<path fill="#04B661" transform="scale(0.798692 0.798692)" d="M979.909 773.341L993.03 778.192C988.9 788.997 984.784 799.952 979.453 810.232C960.646 846.499 929.903 873.799 892.806 890.362L879.906 894.965L879.957 849.179C888.228 845.774 895.877 841.131 903.5 836.485C922.866 824.68 940.409 811.137 957.129 795.837C964.954 788.676 972.858 781.273 979.909 773.341Z"/>
	<path fill="#47E43F" transform="scale(0.798692 0.798692)" d="M743.438 271.863L694.107 237.451L696.237 216.79C700.33 186.991 709.762 158.169 726.459 133.019C730.172 127.425 734.489 121.077 739.869 116.997C744.358 127.569 746.664 138.74 748.577 150.03C754.129 182.794 753.622 216.577 748.387 249.356C747.331 255.97 746.949 263.525 744.389 269.747L743.438 271.863Z"/>
	<path fill="#47E43F" transform="scale(0.798692 0.798692)" d="M803.487 304.035L777.329 291.45C779.636 282.013 782.357 272.615 783.836 263L785.284 251.42L786.22 239.723C786.347 238.21 786.171 236.718 787.147 235.488C790.785 230.907 795.644 226.944 799.974 222.999C820.201 204.573 845.864 190.296 872.785 184.733C877.841 183.689 883.077 183.334 888.21 182.812C886.937 192.339 883.163 200.71 879.154 209.354C865.994 237.734 847.11 263.634 824.692 285.408C818.052 291.858 811.16 298.347 803.716 303.876L803.487 304.035Z"/>
	<path fill="#C68366" transform="scale(0.798692 0.798692)" d="M177.223 812.942L177.609 813.61C179.819 817.175 184.208 819.537 187.781 821.491C207.659 832.36 232.094 837.119 254.171 841.299C304.437 850.818 356.113 855.15 407.247 855.527L407.217 881.731C343.977 881.162 280.071 876.682 218.5 861.462C198.523 856.524 177.44 850.943 159.857 839.909C164.459 829.706 169.662 821.22 177.223 812.942Z"/>
	<path fill="#C68366" transform="scale(0.798692 0.798692)" d="M849.507 800.232L854.5 803.109C863.802 808.569 868.978 814.208 871.737 824.815C870.947 829.008 869.249 832.242 866.353 835.357C860.072 842.116 850.933 846.731 842.52 850.139C829.213 855.53 815.202 858.943 801.23 862.134C748.31 874.22 693.64 880.06 639.406 881.484L617.026 881.695L616.991 855.515C684.517 853.696 754.25 850.176 818.966 829.148C828.623 826.01 841.301 822.397 849.082 815.769C850.131 810.922 849.528 805.198 849.507 800.232Z"/>
	<path fill="#FEDA2B" transform="scale(0.798692 0.798692)" d="M376.946 207.082C408.718 179.729 439.093 150.205 466.611 118.556C470.899 113.625 476.829 108.052 479.948 102.329C480.921 100.545 481.289 98.5074 481.454 96.5C481.65 94.0967 481.559 91.6584 482.006 89.2816C483.248 82.6925 486.788 76.5567 491.831 72.1454C498.062 66.6957 506.038 63.901 514.307 64.5618C522.078 65.1827 529.677 69.9255 534.592 75.8073C538.03 79.9211 540.459 85.309 541.316 90.5818C542.143 95.6713 541.531 100.636 544.669 105.062C556.448 121.676 572.495 136.368 586.677 150.954C603.917 168.685 620.765 186.675 639.474 202.899C644.344 207.122 649.218 211.698 654.45 215.458C652.819 216.259 651.247 217.059 649.504 217.588L640.171 220.686C639.439 220.938 637.912 221.246 637.384 221.794L633.411 222.913C627.408 216.653 620.095 211.353 613.818 205.305C590.04 182.393 566.944 159.168 546.753 132.939C540.394 124.678 533.565 115.858 528.904 106.528C527.449 103.616 526.096 100.583 525.05 97.5C523.148 91.8957 521.785 85.6572 516.463 82.25C514.979 81.3002 512.973 80.5772 511.225 81.101L510.5 81.371C507.78 82.3028 504.95 83.7114 503.577 86.3873C500.214 92.9445 498.509 100.008 494.901 106.5C487.368 120.053 476.941 133.207 466.917 145L450.942 163.316C447.168 168.025 442.381 172.299 438.134 176.603L401.934 211.002C398.43 214.102 395.3 217.642 391.589 220.502L391.153 220.83C386.364 216.71 380.879 211.981 376.946 207.082Z"/>
	<path fill="#B5594F" transform="scale(0.798692 0.798692)" d="M159.707 845.989C186.479 859.33 214.267 866.313 243.5 872.015C297.526 882.555 352.49 885.931 407.424 887.023L407.496 938.712L407.513 950.793C407.517 952.681 407.844 955.16 407.254 956.948L334.03 949.995L282.535 944.935C259.21 941.904 235.809 937.241 213.091 931.182C197.012 926.893 181.328 922.072 166.538 914.364C167.238 912.883 166.679 910.848 166.505 909.25L165.313 897.95C163.497 880.717 162.44 863.075 159.707 845.989Z"/>
	<path fill="#B5594F" transform="scale(0.798692 0.798692)" d="M871.323 837.96C872.607 849.372 871.456 861.847 871.401 873.351C871.358 882.197 872.325 891.979 871.268 900.722C871.037 902.63 870.47 903.874 869.251 905.348C864.625 910.943 856.409 914.348 849.971 917.303C830.762 926.117 809.61 931.149 789.028 935.652C747.356 944.77 705.252 950.028 662.795 953.75L617.204 957.053C615.926 949.709 616.975 941.656 617 934.211L616.982 887.02C672.659 885.708 728.979 882.236 783.717 871.37L802.997 866.866C821.666 862.565 840.652 858.185 857.521 848.724C862.685 845.828 866.999 841.95 871.323 837.96Z"/>
	<path fill="#F9A22F" transform="scale(0.798692 0.798692)" d="M391.153 220.83L391.589 220.502C395.3 217.642 398.43 214.102 401.934 211.002L438.134 176.603C442.381 172.299 447.168 168.025 450.942 163.316L466.917 145C476.941 133.207 487.368 120.053 494.901 106.5C498.509 100.008 500.214 92.9445 503.577 86.3873C504.95 83.7114 507.78 82.3028 510.5 81.371L511.225 81.101C512.973 80.5772 514.979 81.3002 516.463 82.25C521.785 85.6572 523.148 91.8957 525.05 97.5C526.096 100.583 527.449 103.616 528.904 106.528C533.565 115.858 540.394 124.678 546.753 132.939C566.944 159.168 590.04 182.393 613.818 205.305C620.095 211.353 627.408 216.653 633.411 222.913C618.386 226.33 603.742 230.612 588.526 233.352C538.86 242.294 486.141 242.219 436.401 233.773L405.12 227.199C399.558 225.83 394.084 224.083 388.45 223.02C389.463 222.337 390.286 221.705 391.153 220.83Z"/>
	<path fill="#F9A22F" transform="scale(0.798692 0.798692)" d="M176.972 623.016C176.144 616.843 176.612 610.461 176.815 604.254C186.162 601.67 194.143 598.031 202.566 593.342L208.747 604.687C217.232 617.26 231.374 626.179 246.201 629.069C268.586 633.434 287.072 625.304 305.299 613.03L310.424 620.459C320.904 633.716 336.802 641.814 353.383 643.818C373.648 646.269 390.786 640.157 406.626 627.728L413.834 635.014C435.563 655.276 467.855 661.653 494.345 646.535C500.216 643.185 505.665 639.155 510.661 634.616C510.987 634.32 511.196 633.711 511.636 633.726C511.921 633.735 515.453 636.869 516.078 637.376C519.667 640.287 523.207 642.96 527.274 645.187C539.453 651.855 553.114 655.105 567 654.498C588.396 653.562 605.359 642.267 619.351 626.913L625.916 631.75C640.065 641.941 659.326 646.281 676.521 643.389C697.684 639.829 712.576 626.157 724.637 609.287L737.72 616.654C750.96 623.603 768.17 625.381 782.366 620.71C798.781 615.309 810.454 603.433 818.075 588.208L838.104 599.942C834.616 604.532 833.181 609.958 830.667 615.048C826.247 623.999 819.572 631.843 812.274 638.535C809.621 640.968 806.79 643.683 803.659 645.466C802.188 646.303 800.909 647.404 799.419 648.25L793.915 651.397C773.143 662.062 749.699 663.789 727.41 656.847L718.013 653.835C715.735 656.449 710.315 661.584 709.54 664.75C711.13 664.86 712.747 664.874 714.286 665.3C699.227 665.326 687.244 669.046 674.622 677.273C669.683 676.766 664.704 677.129 659.75 676.943C655.159 676.77 650.104 676.042 645.586 675.195L635.14 672.837L622.139 668.851C621.04 668.496 618.88 667.431 617.717 667.65C617.084 667.769 615.502 669.015 614.927 669.399L607.109 674.685C589.887 685.29 567.498 691.335 547.445 687.171L539.572 685.528C529.783 683.109 520.365 678.723 512.004 673.15C503.288 678.331 494.592 682.452 484.849 685.31C474.752 688.272 462.421 689.065 452 687.554C436.019 685.236 420.884 677.622 408.183 667.865C407.825 667.59 407.56 667.013 407.11 667.039C406.637 667.067 404.949 668.048 404.391 668.284L394.329 672.277C386.872 675.054 378.485 676.79 370.522 676.993C366.392 677.098 357.182 675.79 353.891 678.097L353.413 678.49C345.054 673.894 337.163 669.994 327.808 667.75C324.005 666.838 320.035 666.594 316.163 666.127L316.39 665.48C315.715 664.039 314.119 663.049 312.887 662.078L303.873 655.19L284 662.529L280 663.546C264.681 667.523 249.615 665.781 234.5 662.059C221.277 658.803 206.693 651.386 196.322 642.56C189.436 636.699 183.181 629.602 176.972 623.016Z"/>
	<path fill="#C35C14" transform="scale(0.798692 0.798692)" d="M43.3036 492.091C47.1901 506.595 52.9359 518.273 66.4832 526.048C78.6448 533.027 92.4558 534.577 105.929 530.714C111.884 529.007 116.764 526.367 121.844 522.913C122.579 527.514 123.378 532.102 124.849 536.531L125.146 537.442C128.842 548.587 137.011 558.456 147.547 563.687C159.784 569.763 173.089 570.302 185.903 565.835C194.136 562.964 200.849 557.432 207.169 551.606C209.836 566.023 216.725 576.663 228.789 585.037C239.287 592.323 255.316 597.161 268.031 594.584L270 594.148C274.009 593.25 278.003 592.402 281.813 590.801C292.381 586.36 299.895 578.863 306.469 569.7C310.982 584.05 320.83 595.977 334.163 602.985C340.039 606.073 346.208 607.744 352.749 608.734C357.633 609.473 363.837 609.297 368.623 608.204C384.218 604.641 396.07 597.406 405.535 584.376C411.764 600.509 423.21 611.521 439 618.496C450.816 623.716 465.56 622.931 477.423 618.18C487.042 614.328 496.883 606.953 503.25 598.741C506.385 594.697 508.768 590.102 511.3 585.67C520.837 601.988 533.458 615.408 552.349 620.297C566.197 623.88 581.202 621.077 593.372 613.747C601.745 608.703 608.984 600.87 613.226 592.069C614.476 589.476 615.379 586.036 617.082 583.792C627.056 596.882 640.143 606.567 656.842 608.753C671.547 610.678 685.576 606.701 697.258 597.521C706.354 590.374 711.618 580.983 715.572 570.324C728.109 581.797 740.678 590.333 757.858 592.709C771.637 594.615 786.185 590.841 797.161 582.304C803.497 577.377 809.179 570.313 811.98 562.75C813.404 558.906 813.929 554.906 814.97 550.971C817.416 553.054 819.402 555.565 821.799 557.679C829.548 564.51 839.328 568.276 849.5 569.556L850.457 569.687C861.964 571.194 875.42 566.519 884.51 559.524C894.68 551.699 901.162 540.89 902.736 528.081L903.189 522.694C917.672 529.941 931.092 533.857 947.151 528.572C959.906 524.375 970.759 514.13 976.749 502.222L980.196 493.399C982.133 495.218 983.718 497.208 985.349 499.292C986.566 510.586 984.233 520.802 978.207 530.415C971.479 541.149 959.592 550.153 947.094 552.886C932.765 556.02 921.385 551.508 909.494 544.01C908.704 556.166 906.211 565.92 898.463 575.567C890.074 586.01 878.51 593.059 865.019 594.329C844.7 596.241 829.425 586.017 814.396 573.764C812.113 580.577 809.305 587.108 805.173 593.014C797.391 604.136 785.974 611.403 772.595 613.682C753.215 616.983 736.672 606.402 721.623 595.729C717.441 603.229 713.125 610.53 707.114 616.754C695.979 628.283 680.517 635.169 664.427 635.099C645.618 635.017 631.216 626.54 618.55 613.272C614.618 619.054 610.287 624.387 605.018 629.004C591.976 640.429 575.632 646.293 558.268 645.101C539.355 643.803 524.23 634.005 512.075 619.97C508.582 624.681 504.091 628.994 499.537 632.676C487.284 642.585 470.019 646.775 454.5 644.95C434.735 642.625 419.698 630.022 407.705 615.033C404.848 618.051 401.82 620.765 398.446 623.2C385.207 632.752 368.699 637.292 352.517 634.636C336.858 632.066 323.757 623.348 314.447 610.552C311.581 606.614 309.454 602.176 306.586 598.191C302.319 602.244 298.073 606.82 293.381 610.36C287.201 615.024 278.929 618.457 271.363 619.968C256.248 622.988 240.788 620.078 228.009 611.423C216.518 603.641 211.234 590.565 208.624 577.466C199.478 585.426 189.241 591.654 177.234 594.074C162.867 596.969 147.524 592.489 135.61 584.531C122.228 575.592 116.338 560.962 113.304 545.78C104.767 549.497 96.8898 552.147 87.544 552.791C74.6288 553.681 62.4847 549.899 52.7195 541.333C42.5121 532.379 37.7541 519.57 36.8378 506.299C36.6393 503.426 35.9324 499.04 38.1175 496.75L43.3036 492.091Z"/>
	<path fill="#F9A22F" transform="scale(0.798692 0.798692)" d="M376.946 207.082C380.879 211.981 386.364 216.71 391.153 220.83C390.286 221.705 389.463 222.337 388.45 223.02C394.084 224.083 399.558 225.83 405.12 227.199L436.401 233.773C486.141 242.219 538.86 242.294 588.526 233.352C603.742 230.612 618.386 226.33 633.411 222.913L637.384 221.794L637.68 222.418L636.793 223.36L636.875 224.875L637.25 224.255L638 224.377L638.858 224.184L639.056 224.811L637.246 225.705C638.958 228.693 641.969 230.854 644.551 233.086L661.362 246.84C664.649 249.397 668.665 251.706 671.475 254.734L674.027 256.509L678.518 259.268L705.37 276.75C712.553 281.328 719.292 285.984 726.93 289.81C715.035 293.575 702.666 295.931 690.5 298.619C645.162 308.634 599.855 313.45 553.541 315.793L518.728 317.495C493.513 317.952 468.047 316.808 442.914 314.898C409.098 312.329 375.733 308.126 342.761 299.95C329.121 296.568 315.688 293.049 302.584 287.884C306.98 283.696 312.911 280.931 317.953 277.547L349.981 254.59L352.407 252.567L386.126 225.22L381.671 223.212L365.459 216.356C366.274 215.367 367.102 214.859 368.171 214.182L376.946 207.082Z"/>
	<path fill="#710F0D" transform="scale(0.798692 0.798692)" d="M376.946 207.082C380.879 211.981 386.364 216.71 391.153 220.83C390.286 221.705 389.463 222.337 388.45 223.02C394.084 224.083 399.558 225.83 405.12 227.199L436.401 233.773C486.141 242.219 538.86 242.294 588.526 233.352C603.742 230.612 618.386 226.33 633.411 222.913L637.384 221.794L637.68 222.418L636.793 223.36L636.875 224.875L637.25 224.255L638 224.377L638.858 224.184L639.056 224.811L637.246 225.705C635.353 225.838 632.874 226.926 631 227.442L617.955 230.905L580.142 238.576C565.748 240.948 551.198 241.975 536.649 242.766C486.112 245.517 434.323 241.225 386.126 225.22L381.671 223.212L365.459 216.356C366.274 215.367 367.102 214.859 368.171 214.182L376.946 207.082Z"/>
	<path fill="#FDC665" transform="scale(0.798692 0.798692)" d="M376.946 207.082C380.879 211.981 386.364 216.71 391.153 220.83C390.286 221.705 389.463 222.337 388.45 223.02L384.759 222.131L368.171 214.182L376.946 207.082Z"/>
	<path fill="#FE5F57" transform="scale(0.798692 0.798692)" d="M352.407 252.567C362.039 269.017 368.065 286.104 381.254 300.466C386.451 299.434 391.366 296.951 396.095 294.652C405.96 289.855 414.932 284.234 424.201 278.417L442.875 266.602C447.84 263.12 452.776 258.2 458.014 255.306C474.832 273.773 489.995 292.782 511.071 306.692C532.435 293.073 546.264 272.924 564.111 255.544C586.933 273.72 608.707 290.942 637.259 299.252C651.917 288.264 661.731 270.017 671.475 254.734L674.027 256.509L678.518 259.268L705.37 276.75C712.553 281.328 719.292 285.984 726.93 289.81C715.035 293.575 702.666 295.931 690.5 298.619C645.162 308.634 599.855 313.45 553.541 315.793L518.728 317.495C493.513 317.952 468.047 316.808 442.914 314.898C409.098 312.329 375.733 308.126 342.761 299.95C329.121 296.568 315.688 293.049 302.584 287.884C306.98 283.696 312.911 280.931 317.953 277.547L349.981 254.59L352.407 252.567Z"/>
	<path fill="#710F0D" transform="scale(0.798692 0.798692)" d="M352.407 252.567C362.039 269.017 368.065 286.104 381.254 300.466C386.451 299.434 391.366 296.951 396.095 294.652C405.96 289.855 414.932 284.234 424.201 278.417L442.875 266.602C447.84 263.12 452.776 258.2 458.014 255.306C474.832 273.773 489.995 292.782 511.071 306.692C532.435 293.073 546.264 272.924 564.111 255.544C586.933 273.72 608.707 290.942 637.259 299.252C651.917 288.264 661.731 270.017 671.475 254.734L674.027 256.509C670.788 265.471 663.841 274.087 658.296 281.807C653.834 288.02 648.779 294.553 643.085 299.664C641.539 301.052 639.393 302.693 637.25 302.874C634.179 303.134 629.536 300.97 626.619 299.829C603.566 290.815 583.015 275.604 564.138 259.858C559.469 263.676 555.853 269.159 551.924 273.75C540.505 287.092 527.145 301.944 511.573 310.394C507.653 309.532 503.522 306.165 500.386 303.781C483.964 291.297 471.002 275.293 457.61 259.762C450.508 265.928 442.478 271.234 434.655 276.453C423.79 283.699 412.856 290.708 401.112 296.481C396.545 298.726 391.876 301.255 386.976 302.692C384.614 303.385 382.091 303.587 379.65 303.844C374.352 298.933 370.587 293.022 366.794 286.932C360.355 276.594 354.936 265.704 349.981 254.59L352.407 252.567Z"/>
	<path fill="#C68366" transform="scale(0.798692 0.798692)" d="M429.483 958.044L412.442 957.24L412.398 863.813L412.329 830.646C412.307 818.019 412.112 805.554 415.249 793.212C419.608 776.058 428.991 760.477 441.435 747.972C458.842 730.479 485.595 719.416 510.3 719.473C539.195 719.54 565.276 730.92 585.614 751.388C596.84 762.686 605.117 778.06 608.991 793.5C612.066 805.761 612.002 818.299 612.023 830.848L612.019 864.111L611.984 957.483C606.209 957.569 600.258 957.523 594.567 958.607C592.301 959.07 590.15 959.034 587.855 958.995L515.215 959.994L510.048 959.988L434.714 958.536C432.904 958.617 431.265 958.346 429.483 958.044Z"/>
	<path fill="#360007" transform="scale(0.798692 0.798692)" d="M429.483 958.044L429.473 861.325L429.475 829.341C429.478 818.374 429.114 807.552 431.859 796.827C435.374 783.093 443.291 770.781 453.268 760.851C469.025 745.169 490.613 737.065 512.75 737.073C536.119 737.081 557.318 747.185 573.538 763.708C583.04 773.388 590.14 787.508 592.968 800.75C595.137 810.908 594.601 821.488 594.593 831.816L594.549 866.351L594.567 958.607C592.301 959.07 590.15 959.034 587.855 958.995L589 958.59C589.185 958.31 589.448 958.068 589.555 957.75C590.008 956.399 589.549 952.901 589.548 951.375L589.522 930.997L589.335 857.66C589.289 845.5 590.091 832.713 588.901 820.666C585.679 809.01 582.057 798.788 572.989 790.349C558.408 776.78 535.334 768.244 515.405 768.847L515.215 959.994L510.048 959.988L510.029 768.862C489.682 769.427 465.26 777.354 450.907 792.412C443.016 800.69 438.792 809.225 435.519 820.062C434.491 825.367 434.989 831.211 434.988 836.614L434.996 865.388L434.714 958.536C432.904 958.617 431.265 958.346 429.483 958.044Z"/>
	<path fill="#710F0D" transform="scale(0.798692 0.798692)" d="M515.405 768.847L515.054 742.905C536.044 744.367 556.425 752.34 570.564 768.5C581.888 781.442 590.57 800.755 589.149 818.307L588.901 820.666C585.679 809.01 582.057 798.788 572.989 790.349C558.408 776.78 535.334 768.244 515.405 768.847Z"/>
	<path fill="#710F0D" transform="scale(0.798692 0.798692)" d="M435.519 820.062C435.331 819.449 435.162 818.893 435.1 818.251C433.391 800.577 441.6 782.311 452.755 769.066C462.595 757.383 477.696 748.957 492.455 745.373C498.328 743.947 504.327 743.459 510.327 742.924L510.029 768.862C489.682 769.427 465.26 777.354 450.907 792.412C443.016 800.69 438.792 809.225 435.519 820.062Z"/>
	<path fill="#B5594F" transform="scale(0.798692 0.798692)" d="M515.405 768.847C535.334 768.244 558.408 776.78 572.989 790.349C582.057 798.788 585.679 809.01 588.901 820.666C590.091 832.713 589.289 845.5 589.335 857.66L589.522 930.997L589.548 951.375C589.549 952.901 590.008 956.399 589.555 957.75C589.448 958.068 589.185 958.31 589 958.59L587.855 958.995L515.215 959.994L515.405 768.847Z"/>
	<path transform="scale(0.798692 0.798692)" d="M551.09 811.112C554.93 810.74 559.89 811.472 563.337 813.142C568.65 815.715 573.031 820.651 574.921 826.25C576.619 831.279 576.266 837.918 573.917 842.688C570.344 849.945 564.188 853.147 556.834 855.555C551.112 855.458 546.269 855.089 541.221 852.102C535.814 848.902 532.276 843.331 530.93 837.239C529.774 832.011 530.971 826.109 533.909 821.648C537.795 815.746 544.313 812.42 551.09 811.112Z"/>
	<path fill="#B5594F" transform="scale(0.798692 0.798692)" d="M435.519 820.062C438.792 809.225 443.016 800.69 450.907 792.412C465.26 777.354 489.682 769.427 510.029 768.862L510.048 959.988L434.714 958.536L434.996 865.388L434.988 836.614C434.989 831.211 434.491 825.367 435.519 820.062Z"/>
	<path transform="scale(0.798692 0.798692)" d="M467.777 811.133C473.268 810.775 477.824 811.341 482.76 813.9C487.701 816.462 491.818 821.475 493.448 826.777C495.132 832.257 494.376 838.104 491.771 843.16C488.461 849.588 482.691 853.36 475.98 855.466C470.332 856.055 466.235 855.779 461.097 853.027C455.968 850.28 451.596 844.527 450.004 838.958C448.398 833.342 449.193 827.846 452.015 822.769C455.663 816.203 460.759 813.196 467.777 811.133Z"/>
	<path fill="#FE5F57" transform="scale(0.798692 0.798692)" d="M277.474 280.802C278.318 279.786 279.477 279.171 280.582 278.474L302.584 287.884C315.688 293.049 329.121 296.568 342.761 299.95C375.733 308.126 409.098 312.329 442.914 314.898C468.047 316.808 493.513 317.952 518.728 317.495L553.541 315.793C599.855 313.45 645.162 308.634 690.5 298.619C702.666 295.931 715.035 293.575 726.93 289.81C730.899 288.487 735.046 286.943 739.174 286.272L738.602 286.901C737.214 288.385 735.412 289.14 734.114 290.752L734.437 291.836L732.475 292.787C737.022 296.836 742.457 299.815 747.731 302.808L765.779 312.613C769.838 314.669 774.34 316.438 777.971 319.194L781.752 321.208C803.542 331.998 826.109 341.155 849.656 347.305C858.045 349.495 866.898 352.455 875.558 350.151L876.644 349.908L879.765 348.915C879.27 356.414 876.781 361.946 871.137 366.935C865.524 371.897 858.811 375.324 852.078 378.494C841.824 383.322 831.211 387.283 820.5 390.971C782.952 403.901 743.692 413.294 704.417 419.2L642.625 426.526L589.793 432.402L519.198 434.661C497.777 434.758 476.128 434.818 454.75 433.278L395.521 428.108L341.49 423.294C310.593 419.685 279.374 413.872 249.203 406.349L197.871 390.845C185.732 386.792 160.378 378.037 151.955 368.672C148.958 365.34 147.629 361.815 146.363 357.572C150.073 356.872 153.63 355.746 157.281 354.825C164.808 352.926 172.538 351.171 179.877 348.63C196.054 343.03 211.797 335.19 227.158 327.671L244.887 318.684L245.316 315.84L246.25 315.363L247.505 317.124C252.817 317.207 259.846 311.515 264.5 308.999C275.738 302.922 286.807 297.029 297.597 290.128C290.575 287.388 284.033 284.551 277.474 280.802Z"/>
	<path fill="#710F0D" transform="scale(0.798692 0.798692)" d="M244.887 318.684L245.316 315.84L246.25 315.363L247.505 317.124C247.623 323.57 249.307 329.681 250.581 335.962C254.675 356.155 259.314 376.337 268.232 395.027C275.417 393.57 282.594 392.384 289.663 390.38C320.775 381.564 348.908 363.958 375.286 345.696L384.073 339.18C401.934 363.209 418.625 388.245 441.345 408.134C459.876 394.439 476.543 379.385 492.447 362.689L505.83 348.2C507.516 346.284 508.917 343.936 510.786 342.215C517.437 348.105 523.127 355.417 529.25 361.88C545.29 378.813 561.697 394.459 581.222 407.367C599.139 393.172 613.533 374.354 626.827 355.918C631.091 350.004 634.878 343.822 639.436 338.104C656.8 350.621 674.217 362.059 693.25 371.903C711.892 381.544 730.58 389.07 751.654 391.099C756.651 385.035 759.877 377.952 762.891 370.741C769.805 354.196 773.997 336.635 777.971 319.194L781.752 321.208C776.119 344.455 769.897 370.015 756.762 390.262C755.452 392.28 754.26 393.752 751.776 394.156C746.142 395.072 739.157 392.961 733.75 391.503C699.63 382.305 668.58 363.5 640.138 343.01C625.721 363.114 611.133 383.776 593.577 401.312C591.287 403.6 584.361 411.043 581.17 411.042C572.067 405.626 564.075 399.169 556.066 392.279C539.968 378.431 525.548 362.894 511.427 347.079C509.211 348.5 507.31 351.073 505.541 353.038L494.993 364.757C483.338 377.477 470.829 389.013 457.507 399.96C452.377 404.176 447.273 408.936 441.105 411.542C436.791 409.19 433.447 405.275 430.012 401.822C412.583 384.301 397.754 364.255 383.307 344.258C350.997 366.742 317.377 389.172 278 396.615L266.625 398.01C263.588 395.149 261.649 388.87 260.25 384.929C255.228 370.781 251.355 356.288 248.646 341.521L246.204 326.973C245.848 324.503 245.731 321.867 245.097 319.454L244.887 318.684Z"/>
	<path fill="#F9A22F" transform="scale(0.798692 0.798692)" d="M277.474 280.802C278.318 279.786 279.477 279.171 280.582 278.474L302.584 287.884C315.688 293.049 329.121 296.568 342.761 299.95C375.733 308.126 409.098 312.329 442.914 314.898C468.047 316.808 493.513 317.952 518.728 317.495L553.541 315.793C599.855 313.45 645.162 308.634 690.5 298.619C702.666 295.931 715.035 293.575 726.93 289.81C730.899 288.487 735.046 286.943 739.174 286.272L738.602 286.901C737.214 288.385 735.412 289.14 734.114 290.752L734.437 291.836L732.475 292.787C737.022 296.836 742.457 299.815 747.731 302.808L765.779 312.613C769.838 314.669 774.34 316.438 777.971 319.194C773.997 336.635 769.805 354.196 762.891 370.741C759.877 377.952 756.651 385.035 751.654 391.099C730.58 389.07 711.892 381.544 693.25 371.903C674.217 362.059 656.8 350.621 639.436 338.104C634.878 343.822 631.091 350.004 626.827 355.918C613.533 374.354 599.139 393.172 581.222 407.367C561.697 394.459 545.29 378.813 529.25 361.88C523.127 355.417 517.437 348.105 510.786 342.215C508.917 343.936 507.516 346.284 505.83 348.2L492.447 362.689C476.543 379.385 459.876 394.439 441.345 408.134C418.625 388.245 401.934 363.209 384.073 339.18L375.286 345.696C348.908 363.958 320.775 381.564 289.663 390.38C282.594 392.384 275.417 393.57 268.232 395.027C259.314 376.337 254.675 356.155 250.581 335.962C249.307 329.681 247.623 323.57 247.505 317.124C252.817 317.207 259.846 311.515 264.5 308.999C275.738 302.922 286.807 297.029 297.597 290.128C290.575 287.388 284.033 284.551 277.474 280.802Z"/>
	<path fill="#710F0D" transform="scale(0.798692 0.798692)" d="M277.474 280.802C278.318 279.786 279.477 279.171 280.582 278.474L302.584 287.884C315.688 293.049 329.121 296.568 342.761 299.95C375.733 308.126 409.098 312.329 442.914 314.898C468.047 316.808 493.513 317.952 518.728 317.495L553.541 315.793C599.855 313.45 645.162 308.634 690.5 298.619C702.666 295.931 715.035 293.575 726.93 289.81C730.899 288.487 735.046 286.943 739.174 286.272L738.602 286.901C737.214 288.385 735.412 289.14 734.114 290.752L734.437 291.836L732.475 292.787L684.108 303.618L661.551 308.531C603.683 318.257 545.598 321.971 486.966 320.841C437.111 319.879 387.472 315.713 339 303.372C325.061 299.823 311.105 295.063 297.597 290.128C290.575 287.388 284.033 284.551 277.474 280.802Z"/>
	<path fill="#FDC665" transform="scale(0.798692 0.798692)" d="M838.104 599.942L844.135 602.033L843.897 814.022C835.217 817.789 826.48 821.5 817.5 824.504C800.809 830.086 783.506 833.996 766.247 837.342C733.138 843.76 699.525 847.276 665.869 849.057C649.586 849.918 633.319 851.048 617.01 850.181C617.176 835.529 618.074 820.545 616.401 805.953C613.926 784.371 604.158 763.006 589.04 747.35C568.836 726.426 540.224 714.421 511.25 714.076C485.364 713.767 457.195 725.102 438.827 743.491C421.466 760.871 409.724 783.008 407.569 807.701C406.345 821.72 407.311 836.41 407.272 850.528L352.812 847.893L328.42 846.724L292.683 842.378C265.688 838.792 238.523 834.064 212.495 825.897C202.626 822.8 189.724 818.821 182.191 811.41L176.972 623.016C183.181 629.602 189.436 636.699 196.322 642.56C206.693 651.386 221.277 658.803 234.5 662.059C249.615 665.781 264.681 667.523 280 663.546L284 662.529L303.873 655.19L312.887 662.078C314.119 663.049 315.715 664.039 316.39 665.48L316.163 666.127C320.035 666.594 324.005 666.838 327.808 667.75C337.163 669.994 345.054 673.894 353.413 678.49L353.891 678.097C357.182 675.79 366.392 677.098 370.522 676.993C378.485 676.79 386.872 675.054 394.329 672.277L404.391 668.284C404.949 668.048 406.637 667.067 407.11 667.039C407.56 667.013 407.825 667.59 408.183 667.865C420.884 677.622 436.019 685.236 452 687.554C462.421 689.065 474.752 688.272 484.849 685.31C494.592 682.452 503.288 678.331 512.004 673.15C520.365 678.723 529.783 683.109 539.572 685.528L547.445 687.171C567.498 691.335 589.887 685.29 607.109 674.685L614.927 669.399C615.502 669.015 617.084 667.769 617.717 667.65C618.88 667.431 621.04 668.496 622.139 668.851L635.14 672.837L645.586 675.195C650.104 676.042 655.159 676.77 659.75 676.943C664.704 677.129 669.683 676.766 674.622 677.273C687.244 669.046 699.227 665.326 714.286 665.3C712.747 664.874 711.13 664.86 709.54 664.75C710.315 661.584 715.735 656.449 718.013 653.835L727.41 656.847C749.699 663.789 773.143 662.062 793.915 651.397L799.419 648.25C800.909 647.404 802.188 646.303 803.659 645.466C806.79 643.683 809.621 640.968 812.274 638.535C819.572 631.843 826.247 623.999 830.667 615.048C833.181 609.958 834.616 604.532 838.104 599.942Z"/>
	<path fill="#360007" transform="scale(0.798692 0.798692)" d="M674.622 677.273C687.244 669.046 699.227 665.326 714.286 665.3C724.579 666.729 733.565 668.947 742.774 673.939C758.619 682.53 770.193 696.954 775.097 714.281L777.218 724.842C779.611 742.058 773.875 760.581 763.435 774.25C753.171 787.689 737.161 796.264 720.5 798.45C714.094 799.291 707.337 798.785 701 797.592C684.678 794.518 669.452 784.702 659.893 771.044C649.163 755.715 645.421 736.888 648.716 718.582C651.842 701.216 661.126 688.14 674.622 677.273Z"/>
	<path fill="#FEF0E3" transform="scale(0.798692 0.798692)" d="M707.907 670.68C711.381 670.035 715.729 670.693 719.221 671.063C734.594 672.691 749.647 681.857 759.127 693.897C768.986 706.419 774.286 722.397 772.232 738.379C770.662 750.596 766.913 760.938 759.589 770.931C749.644 784.502 734.775 791.067 718.626 793.519C703.616 794.422 690.533 791.109 678.234 782.304C665.339 773.073 656.436 758.437 653.802 742.844C651.048 726.539 653.953 708.983 663.815 695.396C675.111 679.833 689.46 673.557 707.907 670.68Z"/>
	<path transform="scale(0.798692 0.798692)" d="M709.444 684.201C719.021 683.168 730.039 686.591 737.845 692.092C748.556 699.638 755.993 710.591 758.203 723.599C760.386 736.439 757.203 749.614 749.633 760.169C741.543 771.449 729.578 777.329 716.121 779.45C703.946 779.733 694.044 776.926 684.336 769.346C674.667 761.796 668.161 749.487 666.706 737.375C665.138 724.321 668.587 710.672 676.798 700.342C685.037 689.975 696.702 685.737 709.444 684.201Z"/>
	<path fill="#6C1049" transform="scale(0.798692 0.798692)" d="M690.282 696.973C695.616 691.44 702.562 689.508 710.09 689.396C721.861 689.221 733.468 693.89 741.836 702.188C749.689 709.974 753.474 721.237 753.476 732.157C753.478 743.114 749.521 753.813 741.71 761.586C737.817 765.459 732.346 769.462 726.971 770.902C720.561 773.843 713.69 774.812 706.693 773.581C700.455 773.68 693.882 769.86 688.942 766.259C679.531 759.399 673.963 749.164 672.237 737.731C670.972 729.352 670.809 718.262 676.067 711.13C679.253 703.768 682.976 700.291 690.282 696.973Z"/>
	<path fill="#C53C7D" transform="scale(0.798692 0.798692)" d="M706.693 773.581C703.555 771.153 699.237 767.969 698.535 763.75C697.993 760.499 698.644 757.672 700.517 755C703.554 750.668 709.529 747.355 714.691 746.536L715.5 746.414C718.441 745.936 721.05 745.882 723.788 747.283C727.01 748.93 729.561 752.044 730.578 755.5C732.284 761.302 729.668 765.931 726.971 770.902C720.561 773.843 713.69 774.812 706.693 773.581Z"/>
	<path fill="#FEF0E3" transform="scale(0.798692 0.798692)" d="M690.282 696.973C696.344 697.11 702.232 697.644 706.591 702.427C710 706.168 711.413 710.999 711.161 716C710.875 721.662 708.584 726.916 704.176 730.561C700.879 733.289 695.062 734.875 690.807 734.22C685.983 733.478 681.264 729.449 678.687 725.475C675.835 721.077 675.9 716.141 676.067 711.13C679.253 703.768 682.976 700.291 690.282 696.973Z"/>
	<path transform="scale(0.798692 0.798692)" d="M316.163 666.127C320.035 666.594 324.005 666.838 327.808 667.75C337.163 669.994 345.054 673.894 353.413 678.49L357.905 681.99C372.954 694.38 380.323 710.764 382.186 729.936C383.823 746.778 377.048 764.849 366.339 777.687C355.153 791.098 338.635 799.353 321.25 800.771C305.049 802.092 286.301 796.341 273.951 785.694C259.864 773.548 250.809 757.42 249.6 738.698C248.387 719.899 254.094 701.912 266.615 687.779C279.658 673.058 297.007 667.185 316.163 666.127Z"/>
	<path fill="#FEF0E3" transform="scale(0.798692 0.798692)" d="M311.178 671.672C324.45 670.464 338.787 675.325 349.845 682.405C363.082 690.881 372.596 705.156 375.841 720.467C379.294 736.761 375.619 754.729 366.467 768.594C359.921 778.511 350.479 786.458 339.385 790.827C333.686 793.072 327.694 794.282 321.709 795.485C306.677 795.711 292.481 792.312 280.145 783.426C265.572 772.928 257.79 757.906 255.139 740.435C252.684 724.261 257.401 708.222 267.115 695.241C278.115 680.542 293.49 674.121 311.178 671.672Z"/>
	<path transform="scale(0.798692 0.798692)" d="M311.194 683.705C321.565 683.311 332.7 686.793 341.282 692.558C351.6 699.489 359.323 711.694 361.52 723.909C363.728 736.181 361.106 749.337 353.908 759.592C346.269 770.476 334.513 777.351 321.458 779.578C316.238 779.873 310.522 780.125 305.424 778.831L304.5 778.583C299.937 777.412 295.581 775.4 291.639 772.807C280.086 765.207 272.67 753.315 269.971 739.871C267.535 727.738 271.48 711.867 278.35 701.664C286.136 690.103 298.16 686.296 311.194 683.705Z"/>
	<path fill="#FEF0E3" transform="scale(0.798692 0.798692)" d="M292.632 695.575C296.697 694.95 300.994 695.212 304.766 696.919C309.011 698.839 312.762 702.92 314.266 707.331C315.943 712.247 315.633 718.009 313.208 722.645C310.834 727.185 306.547 729.832 301.855 731.387C298.165 731.963 295.085 732.17 291.418 731.059C286.868 729.68 282.934 725.321 280.87 721.167C278.597 716.594 278.411 711.828 280.189 707.073C282.363 701.261 287.207 697.993 292.632 695.575Z"/>
	<path fill="#6C1049" transform="scale(0.798692 0.798692)" d="M311.844 732.605C317.394 726.854 320.998 721.023 320.792 712.75C320.641 706.644 318.274 701.237 313.837 697.052C310.853 694.237 306.638 692.209 302.795 690.847L302.569 690.559C314.156 688.354 325.824 689.226 335.841 696.034C346.082 702.992 354.223 712.446 356.352 724.984C358.334 736.653 355.545 748.49 348.549 758.032C341.945 767.039 331.766 772.708 320.797 774.33C310.324 775.878 300.551 772.959 292.23 766.569C282.408 759.028 276.301 748.536 274.855 736.183C274.314 731.556 274.874 726.75 275.218 722.117C280.043 728.58 284.923 735.604 293.59 736.816C296.721 737.253 300.158 736.968 303.321 736.881L311.844 732.605Z"/>
	<path fill="#C53C7D" transform="scale(0.798692 0.798692)" d="M311.844 732.605C316.971 732.307 320.673 732.057 324.842 735.686C327.96 738.4 329.72 742.332 329.928 746.441C330.126 750.336 328.602 753.66 325.966 756.42C321.805 760.776 316.622 762.291 310.736 762.262C307.421 762.245 304.087 760.909 301.752 758.546C298.555 755.309 297.171 752.068 297.357 747.5C297.531 743.232 300.355 739.687 303.321 736.881L311.844 732.605Z"/>
	<path fill="#710F0D" transform="scale(0.798692 0.798692)" d="M863.827 382.274L870.323 378.352L933.433 445.398L960.13 472.434C964.209 476.538 971.79 482.396 974.102 487.607C975.891 489.826 978.026 491.57 980.196 493.399L976.749 502.222C970.759 514.13 959.906 524.375 947.151 528.572C931.092 533.857 917.672 529.941 903.189 522.694L902.736 528.081C901.162 540.89 894.68 551.699 884.51 559.524C875.42 566.519 861.964 571.194 850.457 569.687L849.5 569.556C839.328 568.276 829.548 564.51 821.799 557.679C819.402 555.565 817.416 553.054 814.97 550.971C813.929 554.906 813.404 558.906 811.98 562.75C809.179 570.313 803.497 577.377 797.161 582.304C786.185 590.841 771.637 594.615 757.858 592.709C740.678 590.333 728.109 581.797 715.572 570.324C711.618 580.983 706.354 590.374 697.258 597.521C685.576 606.701 671.547 610.678 656.842 608.753C640.143 606.567 627.056 596.882 617.082 583.792C615.379 586.036 614.476 589.476 613.226 592.069C608.984 600.87 601.745 608.703 593.372 613.747C581.202 621.077 566.197 623.88 552.349 620.297C533.458 615.408 520.837 601.988 511.3 585.67C508.768 590.102 506.385 594.697 503.25 598.741C496.883 606.953 487.042 614.328 477.423 618.18C465.56 622.931 450.816 623.716 439 618.496C423.21 611.521 411.764 600.509 405.535 584.376C396.07 597.406 384.218 604.641 368.623 608.204C363.837 609.297 357.633 609.473 352.749 608.734C346.208 607.744 340.039 606.073 334.163 602.985C320.83 595.977 310.982 584.05 306.469 569.7C299.895 578.863 292.381 586.36 281.813 590.801C278.003 592.402 274.009 593.25 270 594.148L268.031 594.584C255.316 597.161 239.287 592.323 228.789 585.037C216.725 576.663 209.836 566.023 207.169 551.606C200.849 557.432 194.136 562.964 185.903 565.835C173.089 570.302 159.784 569.763 147.547 563.687C137.011 558.456 128.842 548.587 125.146 537.442L124.849 536.531C123.378 532.102 122.579 527.514 121.844 522.913C116.764 526.367 111.884 529.007 105.929 530.714C92.4558 534.577 78.6448 533.027 66.4832 526.048C52.9359 518.273 47.1901 506.595 43.3036 492.091L47.8448 487.794C50.929 483.422 55.7861 479.483 59.5508 475.596L87.2479 446.858L127.444 405.035C135.358 396.688 142.814 387.741 151.383 380.063C153.702 379.938 160.324 384.434 162.707 385.702L197.671 400.695C199.384 401.204 201.138 401.842 202.896 402.156L236.807 411.698C245.26 414.066 253.932 416.928 262.595 418.262C264.34 418.592 266.122 419.016 267.892 419.146L346.918 432.928C349.068 433.139 351.287 433.251 353.398 433.718L426.664 441.036L432.067 441.023C433.496 440.942 434.864 441.185 436.269 441.417L499.925 443.577L540.172 443.572L586.949 441.433C589.958 440.716 593.713 441.036 596.836 440.991L669.866 433.208C671.918 432.712 674.473 432.74 676.611 432.435L752.701 418.93C753.859 418.563 755.326 418.457 756.537 418.25L822.051 399.667L826.41 398.197C830.056 397.608 834.041 395.442 837.5 394.033C846.44 390.39 855.282 386.793 863.827 382.274Z"/>
	<path fill="#F9A22F" transform="scale(0.798692 0.798692)" d="M863.827 382.274L870.323 378.352L933.433 445.398L960.13 472.434C964.209 476.538 971.79 482.396 974.102 487.607C972.645 494.575 970.646 501.219 966.258 506.98C960.907 514.543 951.654 520.849 942.573 522.925L941.75 523.106C934.2 524.823 925.501 524.822 918.042 522.605C912.134 520.849 904.209 518.184 899.908 513.584C896.949 510.419 895.117 506.325 892.868 502.664L880.451 483.041C862.269 454.985 842.395 427.573 826.41 398.197C830.056 397.608 834.041 395.442 837.5 394.033C846.44 390.39 855.282 386.793 863.827 382.274Z"/>
	<path fill="#FEDA2B" transform="scale(0.798692 0.798692)" d="M863.827 382.274L870.323 378.352L933.433 445.398L960.13 472.434C964.209 476.538 971.79 482.396 974.102 487.607C972.645 494.575 970.646 501.219 966.258 506.98C963.584 504.462 961.432 500.836 959.033 498L932.133 466.081L889.189 414.453L874.843 397.183C870.893 392.44 866.628 387.817 863.827 382.274Z"/>
	<path fill="#F9A22F" transform="scale(0.798692 0.798692)" d="M47.8448 487.794C50.929 483.422 55.7861 479.483 59.5508 475.596L87.2479 446.858L127.444 405.035C135.358 396.688 142.814 387.741 151.383 380.063C153.702 379.938 160.324 384.434 162.707 385.702L197.671 400.695L147.342 477.557L134.056 497.951C130.263 503.88 126.538 510.731 121.445 515.645C115.585 521.299 106.99 525.064 99.0537 526.707C88.6968 528.851 76.9459 526.573 68.2302 520.609C63.1574 517.138 58.5593 512.4 55.1705 507.28C51.0988 501.486 49.3597 494.602 47.8448 487.794Z"/>
	<path fill="#FEDA2B" transform="scale(0.798692 0.798692)" d="M47.8448 487.794C50.929 483.422 55.7861 479.483 59.5508 475.596L87.2479 446.858L127.444 405.035C135.358 396.688 142.814 387.741 151.383 380.063C153.702 379.938 160.324 384.434 162.707 385.702C161.011 388.768 158.364 391.361 156.067 394.002L144.782 407.14L110.111 447.389L76.9086 483.248L62.5984 499.2C60.1889 501.923 58.0663 505.069 55.1705 507.28C51.0988 501.486 49.3597 494.602 47.8448 487.794Z"/>
	<path fill="#F9A22F" transform="scale(0.798692 0.798692)" d="M202.896 402.156L236.807 411.698C245.26 414.066 253.932 416.928 262.595 418.262C261.68 422.234 258.962 426.797 257.278 430.573L243.378 461.581L220.931 511.835C216.333 522.277 212.18 533.905 206.119 543.538C200.295 552.794 190.264 559.59 179.634 561.96L178.75 562.151L176.136 562.677C164.68 564.509 153.143 561.889 143.892 554.807C134.832 547.873 129.56 537.892 128.019 526.707C127.696 524.36 126.795 519.015 127.405 516.937C128.143 514.421 130.947 511.325 132.48 509.07L143.5 492.503L176.315 442.647L193.04 417.048C196.26 412.083 199.313 406.861 202.896 402.156Z"/>
	<path fill="#F9A22F" transform="scale(0.798692 0.798692)" d="M822.051 399.667L841.339 431.792L887.782 502.48L894.049 511.772C894.957 513.077 896.577 514.879 897.006 516.376C897.306 517.422 897.026 519.387 897.023 520.57C897.009 524.821 896.932 529.352 895.881 533.488C893.27 543.751 886.511 553.017 877.348 558.371C867.45 564.155 855.265 566.533 844.048 563.547C832.528 560.481 821.537 552.821 815.537 542.422L756.537 418.25L822.051 399.667Z"/>
	<path fill="#F9A22F" transform="scale(0.798692 0.798692)" d="M669.866 433.208L672.25 433.646C674.169 437.391 675.12 442.002 676.319 446.037L682.894 468L702.774 534.562L712.048 565.909C706.87 580.859 699.422 592.204 684.681 599.308C673.411 604.74 660.919 605.885 648.963 601.632C637.581 597.584 624.072 588.568 618.516 577.466C616.055 572.551 616.464 565.15 615.817 559.644L611.716 526.836C607.413 498.144 603.276 469.288 596.836 440.991L669.866 433.208Z"/>
	<path fill="#F9A22F" transform="scale(0.798692 0.798692)" d="M426.664 441.036L411.182 535.508L407.064 560.466C406.351 565.127 406.03 570.204 404.845 574.75C404.157 577.387 402.605 580.042 401.064 582.279C395.556 590.276 386.37 597.104 377.25 600.404C374.261 601.486 371.089 601.96 368 602.649L367.034 602.877C355.688 605.418 343.058 602.397 333.378 596.275C322.69 589.517 313.236 578.669 310.676 566.004C310.137 563.34 310.238 560.508 310.889 557.875C311.751 554.394 313.329 551.027 314.493 547.632L322.208 524.666L343.44 459L348.247 443.982C349.253 440.785 350.091 436.815 352 434.037L353.398 433.718L426.664 441.036Z"/>
	<path fill="#F9A22F" transform="scale(0.798692 0.798692)" d="M676.611 432.435L752.701 418.93C757.659 432.267 764.123 444.938 770.216 457.78L795.469 510.926L806.804 534.36C807.781 536.621 809.381 539.557 809.746 541.983C809.996 543.64 809.475 545.557 809.418 547.25C809.296 550.889 809.583 553.929 808.597 557.5L808.388 558.29C805.576 568.603 797.643 577.118 788.417 582.203C776.78 588.616 761.374 589.345 748.83 585.558C738.936 582.571 730.217 576.944 722.487 570.199C720.274 568.268 717.715 566.258 716.25 563.672C713.845 559.425 713.008 553.159 711.745 548.415L704.215 521.045L686.267 462.068L676.611 432.435Z"/>
	<path fill="#F9A22F" transform="scale(0.798692 0.798692)" d="M267.892 419.146L346.918 432.928L315.706 528.003L308.213 550.753C306.811 555.11 305.649 559.9 303.737 564.034C301.702 568.43 298.687 572.382 295.201 575.72C285.918 584.608 273.763 589.984 260.794 589.695C247.227 589.393 233.787 584.437 224.308 574.451C217.933 567.735 210.674 557.035 211.248 547.346C211.322 546.092 211.531 544.919 211.991 543.75C213.546 539.801 215.609 535.975 217.341 532.093L228.178 507.537L256.52 443.628L263.694 427.438C264.777 424.937 265.925 420.925 267.892 419.146Z"/>
	<path fill="#F9A22F" transform="scale(0.798692 0.798692)" d="M499.925 443.577C502.843 444.027 506.059 443.879 509.024 443.968L509.483 536.341L509.544 563.64C509.545 568.269 510.214 574.027 508.789 578.43L508.502 579.25L505.517 586.481C499.155 599.217 486.02 609.99 472.557 614.452C459.633 618.735 447.571 616.948 435.597 610.945C424.606 605.435 413.966 594.601 410.102 582.776L409.858 582L409.224 579.822C408.523 576.289 409.047 572.037 409.516 568.5L418.733 514.5L429.37 447.717C429.645 446.143 429.941 442.888 430.925 441.675C431.41 441.078 435.31 441.409 436.269 441.417L499.925 443.577Z"/>
	<path fill="#F9A22F" transform="scale(0.798692 0.798692)" d="M586.949 441.433L592.25 441.46C593.459 442.661 593.535 444.208 593.908 445.841L596.195 457.163L608.524 537.5L612.333 565.453C612.785 569.153 613.633 572.872 613.616 576.609C613.607 578.567 613.248 580.167 612.594 582L612.291 582.869C607.734 595.588 597.902 606.547 585.682 612.282C574.891 617.347 560.923 618.377 549.691 614.223C535.698 609.047 522.908 598.349 516.591 584.646C515.268 581.777 514.086 578.404 513.718 575.25C513.13 570.204 513.609 564.752 513.652 559.671L513.649 534.568L513.516 443.973L530.04 443.954C533.371 443.944 536.884 444.135 540.172 443.572L586.949 441.433Z"/>
</svg>
