<?xml version="1.0" encoding="utf-8" ?>
<svg xmlns="http://www.w3.org/2000/svg" xmlns:xlink="http://www.w3.org/1999/xlink" width="514" height="514">
	<path transform="scale(0.502072 0.502072)" d="M-0 802.107L0 -0L1024 0L1024 801.533L1024 810.038L1024 1024L-0 1024L0 809.555L-0 802.107ZM0 802.107C4.79512 793.524 12.5695 786.707 21.1841 782.099C24.7411 780.196 28.6142 778.792 32.2826 777.096C26.8565 761.817 21.5523 745.197 21.2136 728.899C21.1293 724.846 21.1406 720.286 22.1698 716.37C22.8223 713.888 23.3647 711.498 24.4933 709.171C27.0051 703.99 31.0009 700.64 36.4046 698.796C50.7234 693.91 64.1652 698.414 77.0973 704.693C78.8836 700.949 78.9616 694.938 79.6444 690.792C79.938 689.01 80.8515 686.063 80.6037 684.314C80.4598 683.298 79.6228 681.996 79.1851 681.06L75.7473 673.293L67.7778 650.866C59.053 622.745 53.9877 594.036 50.8739 564.804C47.9641 564.319 44.5265 563.407 41.75 562.341C33.6266 559.224 25.6938 551.911 22.4437 543.793C19.4116 536.22 19.331 527.918 22.5798 520.405C27.2705 509.556 38.0726 501.529 48.7597 497.193C48.1521 487.539 48.9253 477.561 49.2142 467.879C50.4559 426.271 55.6116 384.679 64.431 344C71.4111 311.805 80.65 280.092 94.0604 249.944C98.7533 239.394 103.462 228.557 109.897 218.924C114.251 212.407 120.735 205.962 128.75 204.574C133.556 203.741 138.929 205.8 142.8 208.469C157.609 218.679 165.186 239.218 171.806 255.18C188.119 294.52 199.831 336.27 207.813 378.086C217.888 370.192 227.035 360.466 236.285 351.609L267.419 321.738L303.433 283.127L369.813 211.881L431.098 139.515L427.5 137.459C422.39 134.224 417.81 129.028 416.455 123.011L416.279 122.175C414.935 116.155 415.369 109.341 415.356 103.161C415.347 99.2025 414.949 94.4712 416.178 90.6905L416.416 90C417.484 86.6502 418.799 83.9873 421.098 81.3222C426.524 75.0328 431.96 74.0466 439.869 73.4946C442.251 61.1248 445.088 49.4603 452.532 39C463.732 23.2593 480.346 11.9002 499.545 8.83645C518.731 5.77464 539.06 10.2654 554.785 21.8635C566.099 30.209 575.618 42.1302 580.303 55.447C582.331 61.2124 583.222 66.9623 584.164 72.975L588.364 73.4148C593.929 74.1709 599.823 77.2149 603.219 81.7423C608.627 88.9551 608.011 97.1525 608.019 105.689C608.023 110.522 608.113 115.468 607.323 120.254C605.896 128.896 600.163 134.198 593.411 139.031L814.087 372.381L814.506 312.072L814.12 311.776C805.141 304.386 803.649 295.819 802.41 284.863L801.165 285.022C797.246 285.595 793.084 285.862 789.135 285.413C782.776 284.69 776.479 280.703 772.634 275.643C767.456 268.83 766.572 260.161 767.842 251.898C769.313 242.323 771.157 232.57 774.49 223.453C781.435 204.455 794.498 188.625 810.743 176.822C833.025 160.634 861.679 155.791 888.57 160.119C914.463 164.286 937.706 179.363 952.942 200.552C959.88 210.201 965.193 221.291 968.231 232.791C969.406 237.239 969.976 241.913 971.502 246.25L980.011 268.679C982.123 274.583 983.777 280.83 985.466 286.872C994.954 320.806 999.794 356.112 1001.53 391.25C1002.79 416.766 1003.01 442.638 1000.52 468.094L994.749 507.905C998.595 510.902 1001.94 514.459 1003.42 519.202L1003.65 519.946C1004.73 523.221 1004.87 527.312 1004.19 530.707L1004.02 531.5C1002.38 539.319 998.238 547.216 992.499 552.837C990.823 554.478 986.324 557.42 985.589 559.405C984.49 562.374 984.208 566.13 983.505 569.25L978.851 588.393C975.377 602.53 970.726 616.593 965.754 630.267L950.452 667.458C949.104 670.485 947.942 673.628 946.42 676.57C945.839 677.692 943.884 680.357 943.733 681.471C943.522 683.016 945.23 687.161 945.594 688.974L948.155 705.15C961.077 698.63 974.117 694.404 988.541 699.122C993.302 700.68 997.664 704.018 999.869 708.587C1002.48 714.001 1003.31 720.283 1003.45 726.234C1003.86 744.097 997.977 760.716 992.014 777.256C1005.54 781.053 1016.79 789.474 1024 801.533L1024 0L-0 -0L0 802.107ZM0 809.555L-0 1024L1024 1024L1024 810.038C1015.87 828.646 1003.79 844.838 988.052 857.757C981.335 863.27 974.04 867.971 966.759 872.689C969.076 879.16 971.321 885.224 972.656 892C973.854 898.079 974.48 905.757 972.564 911.734C970.418 918.43 965.708 923.317 959.421 926.336C954.207 928.84 948.195 929.851 942.5 930.602C923.287 933.137 903.123 930.426 884.854 924.047C882.639 932.431 881.497 939.613 876.485 947C854.156 979.913 809.119 990.385 772.434 997.512C714.092 1008.84 654.716 1009.86 595.535 1011.73L513.753 1014.48L485.75 1013.69L410.689 1011.78L361.25 1010.48L335.301 1008.42L268.722 1000.86C235.378 995.394 198.408 988.386 170.048 969.078C154.303 958.359 143.763 942.041 140.243 923.353C122.149 928.918 104.822 931.868 85.8419 930.943C78.8513 930.603 71.2991 929.852 64.8043 927.057C58.2463 924.234 53.4132 919.856 50.8276 913.102C46.0698 900.674 51.89 883.994 57.099 872.487C36.6902 861.356 19.0834 844.045 7.28253 824.063C4.50075 819.352 2.47087 814.406 0 809.555Z"/>
	<path fill="#45E640" transform="scale(0.502072 0.502072)" d="M133.212 786.932C135.309 786.683 137.405 786.965 139.5 787.142C140.127 788.29 140.232 789.497 140.423 790.77L140.399 794C139.415 795.611 137.009 796.167 135.315 796.828L133.212 786.932Z"/>
	<path fill="#45E640" transform="scale(0.502072 0.502072)" d="M884.059 783.626C886.719 782.731 889.576 783.913 892.248 784.481L889.829 798.737L884.027 795.729L884.059 783.626Z"/>
	<path fill="#FAA230" transform="scale(0.502072 0.502072)" d="M882.411 461.728L882.731 462.457C878.897 466.167 874.724 467.827 869.946 469.986L855.797 476.442L846.295 481.408L844.901 479.25C846.255 477.737 848.831 476.645 850.633 475.634C860.623 470.028 871.684 465.692 882.411 461.728Z"/>
	<path fill="#FAA230" transform="scale(0.502072 0.502072)" d="M885.123 460.538L892.257 457.251C913.053 473.5 935.226 489.037 958.033 502.295L976.706 512.23C980.334 513.995 984.487 515.529 987.838 517.764C990.433 519.493 992.474 521.939 992.756 525.156C992.958 527.465 992.287 529.972 991.539 532.141C989.181 528.978 988.438 525.464 985.256 522.853C982.065 520.234 977.935 518.91 974.263 517.102L959 508.999C943.907 500.382 929.437 489.867 914.837 480.39L896.5 468.446C892.64 465.94 888.503 463.68 885.123 460.538Z"/>
	<path fill="#FBB476" transform="scale(0.502072 0.502072)" d="M624.114 499.518L621.75 501.515C620.477 500.58 619.72 498.974 618.939 497.62C616.325 493.088 614.38 488.245 612.247 483.479C594.882 444.67 581.248 405.514 569.458 364.69C571.512 365.883 573.291 367.598 575.098 369.133C584.755 400.964 596.624 431.939 608.841 462.85L618.947 486.321C620.718 490.341 623.869 495.114 624.114 499.518Z"/>
	<path fill="#FAA230" transform="scale(0.502072 0.502072)" d="M239.363 366.068L253.217 352.619L219.584 414.597C208.618 433.516 197.645 452.008 184.066 469.221L177.872 469.115C180.035 464.617 183.746 460.107 186.615 456L202.641 432.621C206.092 427.333 209.034 421.641 212.178 416.163L228.382 388.056L233.525 379.5C235.115 377.094 237.065 374.61 238.002 371.851C238.658 369.918 239.068 368.091 239.363 366.068Z"/>
	<path fill="#FBB476" transform="scale(0.502072 0.502072)" d="M447.424 368.163L454.033 362.41C451.402 376.15 446.91 389.638 442.513 402.901L412.63 481.653L407.673 493.617C406.861 495.63 406.199 498.207 404.75 499.835L401.945 499.028L401.042 497.5L421.764 445.757L427.768 429.117L447.424 368.163Z"/>
	<path fill="#FBB476" transform="scale(0.502072 0.502072)" d="M191.441 472.12C190.752 471.391 190.999 471.828 190.75 470.784C195.498 462.804 201.395 455.631 206.292 447.766L223.182 418.76L240.29 389.292L256.339 356.988C258.48 352.536 259.952 347.427 263.119 343.578C264.513 341.883 268.441 337.379 270.496 337.146L272.487 338.89C271.155 342.559 268.838 345.964 266.886 349.345L261.435 359.495L246.419 389.5C233.691 412.99 219.447 435.6 203.989 457.389L195.98 467.948C195.029 469.096 193.696 471.019 192.377 471.717L191.441 472.12Z"/>
	<path fill="#FBB476" transform="scale(0.502072 0.502072)" d="M340.863 343.574L345.838 340.5C341.983 363.087 332.985 384.777 324.86 406.107L308.828 448.107L294.153 480.506C292.078 481.599 289.99 482.859 287.817 483.735C288.214 477.328 292.318 470.97 295.052 465.25L303.462 446.5L319.49 406.5L334.93 361.886L338.856 350.065L340.863 343.574Z"/>
	<path fill="#FBB476" transform="scale(0.502072 0.502072)" d="M302.561 485.318L299.314 481.715L316.714 442.641L338.828 383.947L351.422 339.829L355.905 347.863L342.914 387.394L333.7 415.113L318.326 452.318L309.812 471.626C307.685 476.321 305.714 481.194 302.561 485.318Z"/>
	<path fill="#FBB476" transform="scale(0.502072 0.502072)" d="M562.37 365.595L563.5 364.562C564.577 365.419 564.723 366.03 565.203 367.337C566.483 370.818 567.067 374.665 568.088 378.242L577.374 409.604C579.97 417.883 583.51 426.042 586.591 434.165L599.521 468.39L617.176 506.25C616.512 507.586 614.593 508.139 613.297 508.75L592.892 466.561C581.819 441.721 572.704 416.204 565.447 390C563.926 384.508 562.232 379.43 561.461 373.735C561.26 372.255 560.822 370.154 561.282 368.718L562.37 365.595Z"/>
	<path fill="#FBB476" transform="scale(0.502072 0.502072)" d="M743.58 487.291C740.494 486.592 737.564 485.918 734.651 484.648C727.684 475.316 723.395 464.287 718.585 453.754C709.685 434.265 701.315 414.529 694.218 394.305L678.065 342.334L684.527 346.631C694.616 382.419 707.526 417.707 723.926 451.116C726.259 455.869 728.469 460.798 731.096 465.392C735.275 472.704 739.872 479.716 743.58 487.291Z"/>
	<path fill="#FBB476" transform="scale(0.502072 0.502072)" d="M411.741 508.766L408.328 505.683L459.766 362.672L464.823 368.006L457.418 395.5C449.506 421.326 439.531 446.186 429.115 471.071C423.794 483.784 418.692 496.835 411.741 508.766Z"/>
	<path fill="#FBB476" transform="scale(0.502072 0.502072)" d="M666.342 350.214L672.023 340.23C680.137 368.88 689.058 397.268 700.25 424.883L727.243 484.281L723.087 487.17C719.102 481.351 716.802 474.239 713.744 467.871L695.25 428.416L678.329 382.747L666.342 350.214Z"/>
	<path fill="#FAA230" transform="scale(0.502072 0.502072)" d="M373.18 582.575L369.802 579.238L383.468 558.441C391.3 545.416 397.891 531.758 404.416 518.05C414.653 525.864 427.961 529.853 440.662 531.189C464.67 533.714 489.956 528.475 508.919 513.05L508.502 521.463C502.484 524.018 497.05 527.703 490.907 530.127C467.704 539.282 439.004 541.009 415.583 531.359L406.488 527.395L388.106 559.441C383.625 567.244 379.346 575.934 373.18 582.575Z"/>
	<path fill="#FAA230" transform="scale(0.502072 0.502072)" d="M515.999 519.714L515.766 513.298C519.099 515.862 522.474 518.751 526.152 520.793C543.559 530.458 566.444 530.983 585.75 528.347C597.668 526.719 609.578 523.05 619.357 515.964C629.286 538.469 640.332 559.84 653.788 580.452C654.703 581.853 655.791 582.648 655.318 584.318L652.834 586.522C645.7 576.328 638.482 566.097 632.295 555.295L616.358 524.946C607.67 529.02 598.329 532.634 588.894 534.533C581.609 535.999 574.47 536.071 567.073 536.078C552.313 536.092 539.274 533.94 526.234 526.621C522.622 524.593 519.449 521.994 515.999 519.714Z"/>
	<path fill="#FBB476" transform="scale(0.502072 0.502072)" d="M757.479 335.947C761.275 338.113 766.476 343.027 768.705 346.84C770.835 350.485 772.072 354.901 773.701 358.817L784.436 383.521C798.322 413.845 813.74 444.196 832.255 471.987L828.64 475.392C818.636 466.394 812.076 451.836 805.655 440.145L786.115 403.546L773.75 379.368L758.378 342.087C757.537 339.937 756.703 338.223 757.479 335.947Z"/>
	<path fill="#FAA230" transform="scale(0.502072 0.502072)" d="M35.2138 523.329C37.9716 518.671 42.0259 515.454 46.4432 512.423C58.4198 504.206 72.3314 498.771 84.8802 491.386C103.3 480.545 119.571 467.386 136.358 454.308C147.659 466.62 158.307 475.971 175.039 480.023C161.386 498.999 145.09 517.306 126.75 531.887C119.289 537.819 110.686 543.725 101.629 546.847C103.316 542.956 111.41 539.286 115.071 536.941C117.911 535.122 120.58 533.112 123.25 531.055C140.938 517.432 154.849 500.682 169.82 484.336C161.016 480.479 152.061 477.043 144.523 470.905C141.182 468.185 138.225 464.796 135.227 461.703C130.493 464.914 125.967 468.818 121.443 472.337L105.41 484.085C88.2141 496.344 69.6802 506.231 50.9298 515.816C46.3166 518.174 41.7161 521.322 36.9744 523.296C36.0129 523.696 36.25 523.771 35.2138 523.329Z"/>
	<path fill="#FAA230" transform="scale(0.502072 0.502072)" d="M644.305 550.093L624.342 511.07C645.884 521.116 666.273 525.913 689.799 519.904C704.235 516.218 720.309 504.67 730.738 494.201C745.559 518.729 760.838 543.801 781.671 563.746L777.77 568.417C764.422 554.344 753.381 537.832 742.618 521.738C738.002 514.835 733.983 507.472 728.637 501.088C721.829 508.099 713.893 514.302 705.25 518.922C695.56 524.102 683.757 527.632 672.75 527.897C659.684 528.212 647.122 524.453 634.865 520.474L642.221 536.806C643.851 540.575 645.671 544.61 645.94 548.75L644.305 550.093Z"/>
	<path fill="#FAA230" transform="scale(0.502072 0.502072)" d="M123.485 552.682L121.835 550.64C121.785 550.343 121.576 550.031 121.684 549.75C121.973 549.001 127.257 545.564 128.183 544.853C150.753 527.536 169.032 505.717 185.327 482.567C191.308 488.011 197.455 492.697 204.908 495.958C229.612 506.769 258.078 507.118 283.178 497.385C282.419 500.078 280.468 502.968 279.106 505.436C271.949 518.408 262.589 530.876 252.149 541.388L251.75 540.216L252.077 539.762C259.406 529.443 267.621 519.256 273.421 507.972L274.136 506.597C248.444 512.211 217.328 511.825 194.525 497.029C192.916 495.985 187.125 490.815 185.982 491.037L174.293 506.098C162.265 520.927 148.424 536.185 132.774 547.185C129.853 549.238 126.936 551.638 123.485 552.682Z"/>
	<path fill="#FAA230" transform="scale(0.502072 0.502072)" d="M803.349 411.013L776.185 352.732L886.802 453.034C877.428 455.938 868.56 459.55 859.741 463.869C857.104 465.161 841.548 473.952 839.961 473.75L838.041 471.658C839.808 469.827 843.628 468.57 845.959 467.32C855.895 461.997 864.981 456.93 875.565 452.838L788.87 372.873C789.426 376.591 791.544 380.513 793.044 383.939L798.367 396.5C800.58 401.283 802.96 405.666 804.514 410.75L803.349 411.013Z"/>
	<path fill="#FAA230" transform="scale(0.502072 0.502072)" d="M761.365 528.448L740.291 497.006C768.596 504.578 799.771 506.866 826.083 491.476C830.524 488.879 834.47 485.647 838.409 482.359C852.489 503.302 869.961 523.254 890.085 538.613C894.866 542.262 900.073 545.184 904.988 548.617L900.148 553.569C877.343 540.841 862.1 520.16 845.16 500.912C843.596 499.135 838.098 492.488 835.807 492.699C834.385 492.83 832.17 494.066 830.84 494.674C826.051 496.865 821.544 499.383 816.588 501.25C795.673 509.127 773.641 508.286 751.776 506.872L758.987 518.41C760.574 520.949 762.522 523.742 762.997 526.75L761.365 528.448Z"/>
	<path fill="#FAA230" transform="scale(0.502072 0.502072)" d="M247.417 568.395L243.959 563.672C258.407 549.742 270.993 534.323 281.686 517.33L295.238 493.326C303.513 502.759 313.668 510.371 325.401 514.955C343.05 521.849 363.965 522.66 382.156 517.242C388.561 515.334 394.488 512.534 400.597 509.878C397.628 517.79 393.643 525.317 389.65 532.753C384.357 542.609 378.788 552.287 372.189 561.338L371.736 560L390.861 520.523C385.584 521.951 380.237 523.699 374.858 524.644C354.624 528.198 332.321 526.02 314.287 515.721C307.752 511.989 302.327 507.275 296.61 502.46L284.003 523.229C277.315 533.395 269.663 542.809 262.061 552.29C257.747 557.67 252.838 564.171 247.417 568.395Z"/>
	<path fill="#10A102" transform="scale(0.502072 0.502072)" d="M96.4964 648.651C91.8806 654.099 89.0894 659.786 86.2045 666.268C73.1038 634.611 66.7435 601.786 63.1851 567.818C64.0881 567.208 65.6737 567.416 66.7617 567.374L77.8239 566.944L82.6497 596.078L90.6995 631.479C92.0876 636.788 93.4988 644.045 96.4964 648.651Z"/>
	<path fill="#B65951" transform="scale(0.502072 0.502072)" d="M441.359 976.463L427.519 975.956L427.603 837.059L439.053 837.013L439.54 931.659L439.503 957.769C439.43 963.528 438.951 969.529 439.545 975.25C440.177 975.791 440.596 976.07 441.359 976.463Z"/>
	<path fill="#FAA230" transform="scale(0.502072 0.502072)" d="M921.356 281.129C922.862 286.288 922.058 291.517 919.573 296.235C917.364 300.429 913.867 303.566 909.304 305.012C907.951 305.44 906.607 305.617 905.193 305.652C900.977 305.755 896.7 305.303 892.476 305.241L862.564 305.201C851.887 305.223 840.773 306.266 830.177 305.61C827.664 305.454 825.97 304.898 823.8 303.655C818.952 300.878 816.179 297.028 814.705 291.629C813.959 288.896 813.438 286.2 813.261 283.366L822.877 287.927L823.478 288.145L825.173 288.73C830.282 289.863 836.88 289.212 842.128 289.221L874.095 289.241L897.283 289.216C901.043 289.202 905.643 289.576 909.319 288.806C913.996 287.826 915.674 285.074 919.416 282.678C920.173 282.193 920.753 281.813 921.356 281.129Z"/>
	<path fill="#45E640" transform="scale(0.502072 0.502072)" d="M884.496 754.614L884.026 678.191C893.415 668.293 905.204 658.299 918.13 653.7L922.52 660.179C918.699 668.101 915.909 676.311 912.688 684.479L896.549 725.613L891.028 740.197C889.185 745.262 887.68 750.19 884.496 754.614Z"/>
	<path fill="#10A102" transform="scale(0.502072 0.502072)" d="M1008.57 797.326C1011.16 800.193 1012.92 803.149 1014.49 806.654C1003.53 831.745 984.811 848.758 962.061 863.295C957.056 853.766 951.612 844.487 944.019 836.748C946.822 834.824 949.982 833.523 953 831.979L966.856 824.346C977.047 818.532 986.578 811.787 996.341 805.311C1000.32 802.67 1004.99 800.475 1008.57 797.326Z"/>
	<path fill="#10A102" transform="scale(0.502072 0.502072)" d="M78.9006 837.314L61.0658 863.179C38.2299 851.393 20.9606 830.162 10.0117 807.376C11.5666 803.691 13.3921 800.567 16.1014 797.597L78.9006 837.314Z"/>
	<path fill="#10A102" transform="scale(0.502072 0.502072)" d="M35.5393 710.724C41.4824 717.377 47.6868 723.87 53.1515 730.928C58.8349 738.27 63.6227 746.096 68.4585 754C76.1283 766.536 84.8081 780.972 88.408 795.369C79.8636 789.999 71.6567 784.973 62.1541 781.393C56.0761 779.103 49.6788 777.734 43.3383 776.396C38.5128 764.953 34.5097 752.859 32.6747 740.546C31.3139 731.415 29.7784 718.579 35.5393 710.724Z"/>
	<path fill="#10A102" transform="scale(0.502072 0.502072)" d="M988.866 710.733C994.819 719.258 993.569 733.487 991.856 743.296C989.873 754.649 986.365 766.357 981.616 776.848C963.86 778.789 950.455 785.451 935.725 795.247C936.434 789.558 939.508 784.148 941.981 779.033C949.535 763.41 958.754 748.306 969.201 734.45L988.866 710.733Z"/>
	<path fill="#45E640" transform="scale(0.502072 0.502072)" d="M16.1014 797.597C21.8727 792.513 29.0041 788.362 36.75 787.467C53.7785 785.5 70.5606 794.554 83.5526 804.75L98.1364 818.461C91.0281 824.126 84.9303 830.547 78.9006 837.314L16.1014 797.597Z"/>
	<path fill="#45E640" transform="scale(0.502072 0.502072)" d="M944.019 836.748L925.65 819.246L928.484 815.596C940.003 801.466 961.913 788.56 980.137 786.895C991.459 785.86 1000.16 790.298 1008.57 797.326C1004.99 800.475 1000.32 802.67 996.341 805.311C986.578 811.787 977.047 818.532 966.856 824.346L953 831.979C949.982 833.523 946.822 834.824 944.019 836.748Z"/>
	<path fill="#45E640" transform="scale(0.502072 0.502072)" d="M65.5702 878.463C79.4183 844.928 106.892 820.504 139.877 806.437L139.64 838.481C131.526 840.015 123.642 849.881 116.606 854.373C107.173 860.396 97.0102 864.807 87.0123 869.743C81.3819 872.523 75.5335 876.364 69.5 878.057C68.1146 878.446 66.9541 878.904 65.5702 878.463Z"/>
	<path fill="#F40C22" transform="scale(0.502072 0.502072)" d="M454.627 62.4287L457.797 53.8703C463.458 40.9632 476.442 29.4169 489.45 24.3938C504.584 18.55 521.532 18.4798 536.39 25.1847C551.606 32.0507 563.01 44.448 568.821 60.0551L568.331 59.9411C566.534 59.5037 565.129 58.8608 563.5 58.0108C559.344 55.8419 555.282 53.3855 551 51.4842C544.305 48.5117 537.033 46.5981 529.825 45.3542C526.374 44.7586 522.814 44.6936 519.358 44.0999C514.41 43.2498 507.496 43.7685 502.5 44.469C494.551 45.5837 486.338 46.7245 478.883 49.8445C474.372 51.732 469.827 53.5226 465.582 55.982C461.812 58.1659 458.728 60.8069 454.627 62.4287Z"/>
	<path fill="#45E640" transform="scale(0.502072 0.502072)" d="M885.044 845.616L884.547 807.51C906.583 817.844 927.947 831.725 942.69 851.479C949.121 860.097 953.678 869.23 957.926 879.053C950.184 879.407 942.158 873.631 935.374 870.312L910.205 857.612C901.83 853.199 893.972 848.839 885.044 845.616Z"/>
	<path fill="#B65951" transform="scale(0.502072 0.502072)" d="M912.507 556.084L912.695 644.687C901.551 648.345 893.344 655.022 884.474 662.452C883.476 653.107 884.307 643.473 884.287 634.077L883.91 579.521C886.51 576.831 891.234 575.168 894.36 572.742C900.854 567.702 906.658 561.842 912.507 556.084Z"/>
	<path fill="#10A102" transform="scale(0.502072 0.502072)" d="M922.52 660.179C930.39 673.762 934.789 687.507 937.133 703.005C937.456 705.139 938.44 708.964 938.087 711.015C937.898 712.117 936.096 713.29 935.241 714.039C932.37 716.553 929.412 719.033 926.709 721.727C923.661 724.765 920.742 728.052 918.054 731.409C909.392 742.226 902.872 753.533 897.707 766.364C895.394 772.112 893.144 778.331 892.248 784.481C889.576 783.913 886.719 782.731 884.059 783.626L884.496 754.614C887.68 750.19 889.185 745.262 891.028 740.197L896.549 725.613L912.688 684.479C915.909 676.311 918.699 668.101 922.52 660.179Z"/>
	<path fill="#CB5909" transform="scale(0.502072 0.502072)" d="M803.349 411.013L804.514 410.75C802.96 405.666 800.58 401.283 798.367 396.5L793.044 383.939C791.544 380.513 789.426 376.591 788.87 372.873L875.565 452.838C864.981 456.93 855.895 461.997 845.959 467.32C843.628 468.57 839.808 469.827 838.041 471.658C834.365 467.328 831.679 462.219 828.718 457.383C819.579 442.456 810.872 426.811 803.349 411.013Z"/>
	<defs>
		<linearGradient id="gradient_0" gradientUnits="userSpaceOnUse" x1="213.29369" y1="428.69452" x2="187.51929" y2="404.63257">
			<stop offset="0" stop-color="#D44A00"/>
			<stop offset="1" stop-color="#FB9311"/>
		</linearGradient>
	</defs>
	<path fill="url(#gradient_0)" transform="scale(0.502072 0.502072)" d="M239.363 366.068C239.068 368.091 238.658 369.918 238.002 371.851C237.065 374.61 235.115 377.094 233.525 379.5L228.382 388.056L212.178 416.163C209.034 421.641 206.092 427.333 202.641 432.621L186.615 456C183.746 460.107 180.035 464.617 177.872 469.115C164.554 465.3 154.431 459.078 146.356 447.711L239.363 366.068Z"/>
	<path fill="#CC0B00" transform="scale(0.502072 0.502072)" d="M454.627 62.4287C458.728 60.8069 461.812 58.1659 465.582 55.982C469.827 53.5226 474.372 51.732 478.883 49.8445C486.338 46.7245 494.551 45.5837 502.5 44.469C507.496 43.7685 514.41 43.2498 519.358 44.0999C522.814 44.6936 526.374 44.7586 529.825 45.3542C537.033 46.5981 544.305 48.5117 551 51.4842C555.282 53.3855 559.344 55.8419 563.5 58.0108C565.129 58.8608 566.534 59.5037 568.331 59.9411L568.821 60.0551L572.303 72.9758L451.878 72.7687L454.627 62.4287Z"/>
	<path fill="#45E640" transform="scale(0.502072 0.502072)" d="M924.499 558.711C933.059 561.643 941.177 565.121 950.25 566.298C957.695 567.263 964.84 566.464 972.174 565.203L949.183 639.622L938.402 665.649C935.806 660.593 933.15 655.35 929.875 650.697C928.983 649.43 925.219 646.135 924.956 645.114C924.603 643.746 924.922 641.209 924.91 639.744L924.803 625.885L924.499 558.711Z"/>
	<path fill="#C9B2AB" transform="scale(0.502072 0.502072)" d="M596.028 96.8699C596.681 99.9997 596.528 103.217 596.53 106.398C596.535 112.266 597.101 118.388 593.746 123.545C591.387 127.172 587.202 128.887 583.089 129.646C575.61 131.026 566.827 130.222 559.192 130.222L515.146 130.217L465.003 130.219C457.731 130.227 450.246 130.913 443 130.363C439.82 130.122 436.299 129.516 433.674 127.606C430.517 125.308 427.771 121.75 427.287 117.811L426.903 108.369C430.953 109.031 435.06 108.924 439.149 109.122L461.25 110.021L475.832 110.938C505.654 111.771 535.996 111.85 565.748 109.818C575.82 109.131 586.13 108.584 596.09 106.93L596.028 96.8699Z"/>
	<path fill="#45E640" transform="scale(0.502072 0.502072)" d="M935.725 795.247C929.581 800.783 923.171 806.38 917.88 812.751L917.254 813.512L899.463 802.958C902.615 787.101 905.512 771.554 913.173 757.086C921.612 741.149 934.472 726.249 949.611 716.299C954.184 713.293 959.537 710.272 964.804 708.698C972.49 706.402 981.738 706.864 988.866 710.733L969.201 734.45C958.754 748.306 949.535 763.41 941.981 779.033C939.508 784.148 936.434 789.558 935.725 795.247Z"/>
	<path fill="#45E640" transform="scale(0.502072 0.502072)" d="M35.5393 710.724C43.634 706.268 52.9587 706.74 61.5543 709.255C82.1733 715.289 100.656 736.602 110.481 754.851C117.088 767.124 120.968 780.034 124.136 793.53C124.702 795.941 125.865 799.036 125.645 801.455L107.37 812.479L94.0276 800.566C92.3024 799.028 89.7174 797.22 88.408 795.369C84.8081 780.972 76.1283 766.536 68.4585 754C63.6227 746.096 58.8349 738.27 53.1515 730.928C47.6868 723.87 41.4824 717.377 35.5393 710.724Z"/>
	<path fill="#10A102" transform="scale(0.502072 0.502072)" d="M101.248 660.166C102.406 658.15 103.521 656.164 104.928 654.307C117.685 660.047 131.555 668.232 139.717 679.938L139.903 692.764L140.423 790.77C140.232 789.497 140.127 788.29 139.5 787.142C137.405 786.965 135.309 786.683 133.212 786.932C131.758 780.929 130.415 774.874 128.483 769C123.327 753.322 114.667 737.87 103.462 725.72C98.7406 720.6 92.9771 716.577 88.4716 711.28C89.7585 692.854 91.3356 676.217 101.248 660.166Z"/>
	<path fill="#45E640" transform="scale(0.502072 0.502072)" d="M101.248 660.166C102.406 658.15 103.521 656.164 104.928 654.307C117.685 660.047 131.555 668.232 139.717 679.938L139.903 692.764C139.179 699.377 139.686 706.535 139.656 713.214L139.424 755.792C126.436 734.575 119.464 709.184 111.309 685.819C108.436 677.588 105.827 668.33 101.569 660.728L101.248 660.166Z"/>
	<path fill="#10A102" transform="scale(0.502072 0.502072)" d="M75.9888 482.776L60.4653 491.128C60.3207 456.372 63.2876 421.604 68.4805 387.25C74.6425 346.485 83.9493 306.627 98.9757 268.17C103.92 255.515 109.408 242.091 116.368 230.421C119.186 225.697 124.135 217.263 129.863 216.112C132.267 215.629 134.131 216.747 136.027 218.069C133.25 221.234 131.265 225.306 129.319 229.016L119.963 249.197C112.218 268.161 106.113 287.882 100.75 307.641C88.5908 352.441 81.39 398.258 78.0116 444.533C77.0892 457.167 75.7247 470.12 75.9888 482.776Z"/>
	<path fill="#F6EC11" transform="scale(0.502072 0.502072)" d="M813.261 283.366C811.753 278.008 819.017 266.964 821.408 262.062C823.454 257.869 825.162 253.496 827.353 249.376C830.146 244.12 833.913 239.455 839.84 237.791C843.574 236.742 846.61 237.319 850 239.099C855.216 241.836 858.847 246.793 861.075 252.157C862.792 256.29 863.563 261.992 867.75 264.312C869.066 264.5 870.232 264.623 871.518 264.184C876.498 262.487 878.481 252.468 880.634 248.027C882.663 243.84 886.884 239.495 891.371 238.083C894.331 237.152 897.992 237.967 900.641 239.481C902.4 240.486 904.153 242.014 905.31 243.683C907.828 247.313 909.342 251.875 911.159 255.904C914.94 264.286 918.734 272.269 921.356 281.129C920.753 281.813 920.173 282.193 919.416 282.678C915.674 285.074 913.996 287.826 909.319 288.806C905.643 289.576 901.043 289.202 897.283 289.216L874.095 289.241L842.128 289.221C836.88 289.212 830.282 289.863 825.173 288.73L823.478 288.145L822.877 287.927L813.261 283.366Z"/>
	<path fill="#10A102" transform="scale(0.502072 0.502072)" d="M885.044 845.616C893.972 848.839 901.83 853.199 910.205 857.612L935.374 870.312C942.158 873.631 950.184 879.407 957.926 879.053C961.446 888.408 963.608 897.44 962.789 907.53C961.943 909.238 961.474 910.977 960.365 912.576C957.013 917.41 950.422 918.673 945 919.647C924.929 923.253 904.442 919.015 885.015 914.008L885.063 868.226L885.044 845.616Z"/>
	<path fill="#04C902" transform="scale(0.502072 0.502072)" d="M885.044 845.616C893.972 848.839 901.83 853.199 910.205 857.612L935.374 870.312C942.158 873.631 950.184 879.407 957.926 879.053C961.446 888.408 963.608 897.44 962.789 907.53C941.496 898.267 919.296 890.231 899.25 878.407C894.455 875.579 888.869 872.351 885.063 868.226L885.044 845.616Z"/>
	<path fill="#FEF0E4" transform="scale(0.502072 0.502072)" d="M426.903 108.369C426.525 103.377 425.512 95.3765 428.306 90.9629C430.083 88.1561 433.262 85.9546 436.506 85.2937C440.169 84.5472 444.554 85.2505 448.315 85.2732L475.966 85.2858L546.143 85.0049C559.417 84.9857 573.024 84.5216 586.25 85.4756C588.245 85.6195 590.435 86.0328 592.057 87.2836C595.068 89.6055 595.688 93.3167 596.028 96.8699L596.09 106.93C586.13 108.584 575.82 109.131 565.748 109.818C535.996 111.85 505.654 111.771 475.832 110.938L461.25 110.021L439.149 109.122C435.06 108.924 430.953 109.031 426.903 108.369Z"/>
	<path fill="#10A102" transform="scale(0.502072 0.502072)" d="M139.64 838.481L139.593 839.047C140.238 841.696 139.98 844.658 139.985 847.383L139.988 861.314L140.005 911.505C125.741 918.209 111.427 919.898 95.8473 920.44C86.8799 920.752 77.8196 920.792 69.2798 917.614C65.3681 916.158 62.1866 913.089 60.5848 909.25L59.4737 906.082C58.2656 897.643 61.6764 885.975 65.5702 878.463C66.9541 878.904 68.1146 878.446 69.5 878.057C75.5335 876.364 81.3819 872.523 87.0123 869.743C97.0102 864.807 107.173 860.396 116.606 854.373C123.642 849.881 131.526 840.015 139.64 838.481Z"/>
	<path fill="#04C902" transform="scale(0.502072 0.502072)" d="M139.64 838.481L139.593 839.047L139.558 839.522L139.485 867.636L139.016 867.88C129.436 872.943 120.592 879.471 110.875 884.317C94.2496 892.607 76.5365 898.724 59.4737 906.082C58.2656 897.643 61.6764 885.975 65.5702 878.463C66.9541 878.904 68.1146 878.446 69.5 878.057C75.5335 876.364 81.3819 872.523 87.0123 869.743C97.0102 864.807 107.173 860.396 116.606 854.373C123.642 849.881 131.526 840.015 139.64 838.481Z"/>
	<path fill="#45E640" transform="scale(0.502072 0.502072)" d="M77.8239 566.944C85.5134 565.281 93.1372 563.434 100.561 560.8C103.982 559.586 107.542 557.403 111.022 556.621C116.8 563.6 123.232 569.357 130.595 574.609L138.022 579.377C138.169 579.465 139.916 580.454 139.958 580.528C140.229 581.002 140.315 658.281 139.973 663.632L139.787 664.933C132.423 657.588 124.487 651.392 114.75 647.498C111.561 646.223 107.901 645.025 104.445 645.025C101.517 645.026 98.731 646.923 96.4964 648.651C93.4988 644.045 92.0876 636.788 90.6995 631.479L82.6497 596.078L77.8239 566.944Z"/>
	<path fill="#CB5909" transform="scale(0.502072 0.502072)" d="M35.2138 523.329C36.25 523.771 36.0129 523.696 36.9744 523.296C41.7161 521.322 46.3166 518.174 50.9298 515.816C69.6802 506.231 88.2141 496.344 105.41 484.085L121.443 472.337C125.967 468.818 130.493 464.914 135.227 461.703C138.225 464.796 141.182 468.185 144.523 470.905C152.061 477.043 161.016 480.479 169.82 484.336C154.849 500.682 140.938 517.432 123.25 531.055C120.58 533.112 117.911 535.122 115.071 536.941C111.41 539.286 103.316 542.956 101.629 546.847C93.7171 550.424 86.3223 552.375 77.75 553.624C66.7395 555.228 52.1267 555 42.4845 548.888C37.6075 545.796 33.8153 541.244 32.6343 535.497C31.7455 531.173 32.8943 526.982 35.2138 523.329Z"/>
	<path fill="#CB5909" transform="scale(0.502072 0.502072)" d="M882.411 461.728L885.123 460.538C888.503 463.68 892.64 465.94 896.5 468.446L914.837 480.39C929.437 489.867 943.907 500.382 959 508.999L974.263 517.102C977.935 518.91 982.065 520.234 985.256 522.853C988.438 525.464 989.181 528.978 991.539 532.141C989.078 538.049 985.997 542.524 981.266 546.881C973.839 553.721 964.203 555.052 954.535 554.611C944.824 554.169 935.077 550.064 926.402 545.934C905.455 535.963 886.411 522.333 869.665 506.298C861.405 498.388 853.988 489.844 846.295 481.408L855.797 476.442L869.946 469.986C874.724 467.827 878.897 466.167 882.731 462.457L882.411 461.728Z"/>
	<path fill="#CB5909" transform="scale(0.502072 0.502072)" d="M761.365 528.448L762.997 526.75C762.522 523.742 760.574 520.949 758.987 518.41L751.776 506.872C773.641 508.286 795.673 509.127 816.588 501.25C821.544 499.383 826.051 496.865 830.84 494.674C832.17 494.066 834.385 492.83 835.807 492.699C838.098 492.488 843.596 499.135 845.16 500.912C862.1 520.16 877.343 540.841 900.148 553.569C886.703 565.639 870.969 574.219 853 577.113C846.714 578.125 839.617 577.946 833.25 577.395C808.061 575.217 776.749 547.368 761.365 528.448Z"/>
	<path fill="#CB5909" transform="scale(0.502072 0.502072)" d="M123.485 552.682C126.936 551.638 129.853 549.238 132.774 547.185C148.424 536.185 162.265 520.927 174.293 506.098L185.982 491.037C187.125 490.815 192.916 495.985 194.525 497.029C217.328 511.825 248.444 512.211 274.136 506.597L273.421 507.972C267.621 519.256 259.406 529.443 252.077 539.762L251.75 540.216L252.149 541.388C236.086 560.381 212.882 576.752 187.499 578.793C166.371 580.492 145.687 572.388 129.781 558.701L123.485 552.682Z"/>
	<path fill="#C9B2AB" transform="scale(0.502072 0.502072)" d="M505.411 699.197L505.985 699.128C512.963 698.355 520.593 699.099 527.492 700.227C546.495 703.335 563.193 710.603 578.28 722.56C601.198 740.724 613.414 765.931 616.787 794.68C618.07 805.617 617.519 816.851 617.514 827.852L617.462 880.247L617.316 936.246C617.322 946.141 618.012 956.307 617.304 966.158C617.1 969.002 616.916 971.499 614.937 973.75C612.951 976.009 610.079 976.389 607.25 976.488C605.215 975.406 605.895 971.283 605.92 969.157L606.364 864.741L606.43 827.072C606.422 812.994 606.58 798.676 603.435 784.87C600.161 770.494 593.248 756.927 584.09 745.434C572.937 731.437 556.339 720.47 539.204 715.44C532.073 713.346 525.01 712.38 517.651 711.56C510.922 711.44 503.807 711.491 497.156 712.612C479.664 715.56 462.597 723.63 449.339 735.453C430.583 752.177 420.065 773.244 417.816 798.159C417.187 805.126 417.461 812.244 417.428 819.239L417.318 857.459L417.229 946.283L417.462 966.652C417.447 969.322 417.754 974.088 416.25 976.218L415.25 976.387C413.019 976.712 411.041 975.598 409.331 974.25C407.166 972.542 406.247 970.432 405.96 967.75C405.135 960.038 405.832 952.125 405.887 944.382L405.917 903.084L405.727 837.711C405.596 819.267 404.143 800.309 407.754 782.112C410.755 766.986 418.274 751.784 427.891 739.787C447.712 715.063 474.419 702.626 505.411 699.197Z"/>
	<path fill="#CB5909" transform="scale(0.502072 0.502072)" d="M247.417 568.395C252.838 564.171 257.747 557.67 262.061 552.29C269.663 542.809 277.315 533.395 284.003 523.229L296.61 502.46C302.327 507.275 307.752 511.989 314.287 515.721C332.321 526.02 354.624 528.198 374.858 524.644C380.237 523.699 385.584 521.951 390.861 520.523L371.736 560L372.189 561.338C363.686 575.903 347.451 591.368 330.862 595.825C309.963 601.44 285.382 596.684 266.939 585.882C259.099 581.291 252.938 575.593 247.417 568.395Z"/>
	<path fill="#CB5909" transform="scale(0.502072 0.502072)" d="M644.305 550.093L645.94 548.75C645.671 544.61 643.851 540.575 642.221 536.806L634.865 520.474C647.122 524.453 659.684 528.212 672.75 527.897C683.757 527.632 695.56 524.102 705.25 518.922C713.893 514.302 721.829 508.099 728.637 501.088C733.983 507.472 738.002 514.835 742.618 521.738C753.381 537.832 764.422 554.344 777.77 568.417C770.34 578.418 757.624 587.516 746.561 592.985C730.255 601.046 710.92 602.78 693.666 596.772C689.646 595.372 685.77 593.353 681.97 591.444C674.563 587.723 667.275 583.613 661.541 577.513C654.288 569.798 648.861 559.591 644.305 550.093Z"/>
	<path fill="#C9B2AB" transform="scale(0.502072 0.502072)" d="M825.76 334L825.767 316.523L910.974 316.772L911.712 456.121L885.84 435.958L825.453 383.045L825.76 334Z"/>
	<path fill="#FEF0E4" transform="scale(0.502072 0.502072)" d="M825.76 334C840.292 332.414 858.965 329.647 871.318 339.365C881.759 347.579 885.183 361.51 886.477 374.106C887.869 387.646 887.334 401.865 887.14 415.476C887.05 421.743 887.676 429.981 885.84 435.958L825.453 383.045L825.76 334Z"/>
	<path fill="#CB5909" transform="scale(0.502072 0.502072)" d="M373.18 582.575C379.346 575.934 383.625 567.244 388.106 559.441L406.488 527.395L415.583 531.359C439.004 541.009 467.704 539.282 490.907 530.127C497.05 527.703 502.484 524.018 508.502 521.463L508.626 565.879L508.486 575.696C508.453 576.912 508.618 578.513 508.215 579.66C506.888 583.44 502.859 587.615 500.06 590.421C483.83 606.695 461.387 615.086 438.5 614.896C417.124 614.718 395.171 605.68 380.159 590.341L373.18 582.575Z"/>
	<path fill="#CB5909" transform="scale(0.502072 0.502072)" d="M515.999 519.714C519.449 521.994 522.622 524.593 526.234 526.621C539.274 533.94 552.313 536.092 567.073 536.078C574.47 536.071 581.609 535.999 588.894 534.533C598.329 532.634 607.67 529.02 616.358 524.946L632.295 555.295C638.482 566.097 645.7 576.328 652.834 586.522L652.749 586.623C636.044 602.59 612.404 614.001 589.051 614.642C564.797 615.308 543.459 608.984 525.75 591.887C522.784 589.023 517.937 584.256 516.496 580.366C516.287 579.803 516.494 578.051 516.492 577.416L516.434 568.348L515.999 519.714Z"/>
	<path fill="#FAA230" transform="scale(0.502072 0.502072)" d="M580.007 142.727C580.35 142.76 580.715 142.701 581.037 142.827C583.488 143.782 609.493 176.869 613.186 181.443C655.222 233.508 702.689 282.051 750.999 328.304C745.14 333.616 740.077 337.014 732.861 340.255C721.793 343.53 711.299 344.983 700.067 341.222C692.948 338.838 686.446 335.23 680.766 330.336C668.945 320.149 659.937 306.96 650.976 294.299C630.563 265.456 612.564 235.171 595.979 203.982L564.987 143.034L580.007 142.727Z"/>
	<path fill="#FAA230" transform="scale(0.502072 0.502072)" d="M443.33 143.031L459.218 143.025L418.554 223C401.868 252.801 382.804 282.026 362.141 309.223C350.839 324.099 336.164 337.876 317.006 340.7C310.124 341.715 302.943 341.032 296.161 339.608C288.791 337.332 283.347 333.855 277.816 328.525L443.33 143.031Z"/>
	<path fill="#FAA230" transform="scale(0.502072 0.502072)" d="M562.37 365.595L561.282 368.718C560.822 370.154 561.26 372.255 561.461 373.735C562.232 379.43 563.926 384.508 565.447 390C572.704 416.204 581.819 441.721 592.892 466.561L613.297 508.75C603.16 512.86 592.44 515.534 581.5 516.319C564.058 517.57 543.636 517.868 528 509.026C523.452 506.454 519.428 502.861 515.5 499.449L515.002 385.677C525.691 385.37 538.222 382.375 547.466 376.866C552.82 373.675 557.564 369.537 562.37 365.595Z"/>
	<path fill="#FAA230" transform="scale(0.502072 0.502072)" d="M464.823 368.006C478.118 379.043 492.272 384.846 509.583 385.711L509.303 499.975C494.624 511.382 479.335 516.622 461.041 518.744C444.036 520.717 426.711 516.956 411.741 508.766C418.692 496.835 423.794 483.784 429.115 471.071C439.531 446.186 449.506 421.326 457.418 395.5L464.823 368.006Z"/>
	<path fill="#04C902" transform="scale(0.502072 0.502072)" d="M864.855 170.201C886.015 168.037 908.4 175.432 925.171 188.321C943.296 202.251 956.255 223.496 959.175 246.249C960.223 254.421 960.634 263.169 955.08 269.959C952.306 273.35 946.832 275.711 942.5 275.921C939.358 276.074 935.406 274.307 933.094 272.258C929.803 269.342 928.232 265.297 926.435 261.397C922.23 252.269 917.849 238.748 909.797 232.344C904.725 228.312 898.091 226.126 891.61 226.847C883.014 227.804 877.466 233.614 872.376 239.995L869.884 243.579C866.634 238.867 862.941 234.256 858.188 230.965C852.247 226.852 844.129 225.339 837.047 226.671C822.802 229.351 816.015 245.655 810.757 257.403C809.101 261.104 807.622 265.144 805.278 268.476C803.248 271.362 800.365 273.896 796.75 274.397C792.642 274.966 787.455 273.534 784.145 271.03C781.34 268.908 778.966 265.282 778.535 261.75C778.027 257.591 778.803 253.255 779.465 249.156C782.225 232.049 788.613 216.477 799.493 202.905C816.082 182.209 839.213 173.12 864.855 170.201Z"/>
	<path fill="#B65951" transform="scale(0.502072 0.502072)" d="M197.35 893.184C225.52 899.302 253.441 905.857 282.053 909.632L356 917.308L395.505 920.08L395.447 952.139C395.429 958.374 394.472 965.686 396.13 971.719C397.105 975.269 399.425 978.711 401.937 981.382C401.266 981.649 400.677 981.812 399.946 981.788C393.617 981.585 387.193 980.643 380.882 980.037L345.919 976.383C322.02 973.448 298.514 970.108 275.104 964.39C251.605 958.652 225.543 950.944 208.942 932.282C199.862 922.076 195.427 907.609 196.175 894.068L197.35 893.184Z"/>
	<path fill="#B65951" transform="scale(0.502072 0.502072)" d="M620.951 982.37C623.626 979.649 625.897 976.472 626.943 972.759C628.964 965.581 628.078 957.572 628.052 950.187L627.989 920.236L670 917.364L738.895 910.248C765.943 907.152 793.202 903.437 819.5 896.225C820.16 900.428 820.011 904.7 820 908.943C819.973 919.528 819.428 928.146 813.012 937.018C807.937 944.037 799.45 949.317 791.872 953.193C769.452 964.663 745.23 969.63 720.458 973.069L665.607 979.221L637.873 981.656C632.286 982.04 626.547 982.599 620.951 982.37Z"/>
	<path fill="#FAA230" transform="scale(0.502072 0.502072)" d="M684.527 346.631C691.939 349.911 699.337 352.57 707.371 353.887C719.495 355.876 736.234 353.161 746.127 345.378C749.823 342.471 752.606 338.505 756.443 335.765L757.479 335.947C756.703 338.223 757.537 339.937 758.378 342.087L773.75 379.368L786.115 403.546L805.655 440.145C812.076 451.836 818.636 466.394 828.64 475.392C809.965 490.588 783.163 492.8 759.996 490.388C754.496 489.815 748.88 488.902 743.58 487.291C739.872 479.716 735.275 472.704 731.096 465.392C728.469 460.798 726.259 455.869 723.926 451.116C707.526 417.707 694.616 382.419 684.527 346.631Z"/>
	<path fill="#FAA230" transform="scale(0.502072 0.502072)" d="M272.487 338.89C285.334 348.101 299.811 354.345 315.952 351.644C324.778 350.167 332.832 347.474 340.863 343.574L338.856 350.065L334.93 361.886L319.49 406.5L303.462 446.5L295.052 465.25C292.318 470.97 288.214 477.328 287.817 483.735L287.467 483.976C283.301 486.601 277.908 488.07 273.172 489.287C256.448 493.585 239.648 494.155 222.793 490.169C212.166 487.656 197.455 481.89 191.441 472.12L192.377 471.717C193.696 471.019 195.029 469.096 195.98 467.948L203.989 457.389C219.447 435.6 233.691 412.99 246.419 389.5L261.435 359.495L266.886 349.345C268.838 345.964 271.155 342.559 272.487 338.89Z"/>
	<path fill="#45E640" transform="scale(0.502072 0.502072)" d="M968.608 271.456C987.289 331.923 993.292 393.956 988.797 457C987.731 471.94 987.118 487.68 983.276 502.184C981.34 502.135 962.056 490.52 958.744 488.651L924.004 465.635L923.254 337.978L922.815 317.963C922.761 317.066 922.063 312.214 922.318 311.701C922.976 310.379 925.473 308.471 926.51 307.198C931.427 301.161 933.713 294.67 934.721 287.023C939.317 287.339 944.516 287.54 949.046 286.655C958.519 284.805 963.556 279.216 968.608 271.456Z"/>
	<path fill="#FAA230" transform="scale(0.502072 0.502072)" d="M355.905 347.863C368.469 363.988 385.506 377.079 406.424 379.314C421.872 380.965 434.522 376.077 447.424 368.163L427.768 429.117L421.764 445.757L401.042 497.5L401.945 499.028C397.982 501.673 392.934 503.049 388.424 504.463C376.664 508.153 365.079 511 352.613 510.459C339.691 509.899 325.803 505.29 315.418 497.532C310.713 494.017 306.532 489.625 302.561 485.318C305.714 481.194 307.685 476.321 309.812 471.626L318.326 452.318L333.7 415.113L342.914 387.394L355.905 347.863Z"/>
	<path fill="#FAA230" transform="scale(0.502072 0.502072)" d="M666.342 350.214L678.329 382.747L695.25 428.416L713.744 467.871C716.802 474.239 719.102 481.351 723.087 487.17C705.397 502.006 686.738 513.877 662.632 511.766C648.646 510.542 636.799 504.977 624.114 499.518C623.869 495.114 620.718 490.341 618.947 486.321L608.841 462.85C596.624 431.939 584.755 400.964 575.098 369.133C590.273 378.903 604.893 381.827 622.74 379.224C640.931 376.57 655.703 364.571 666.342 350.214Z"/>
	<path fill="#FAA230" transform="scale(0.502072 0.502072)" d="M464.028 142.672L489.049 142.766L463.121 308L458.015 331.707C457.064 335.925 456.348 340.594 454.701 344.593C453.325 347.933 451.081 350.209 448.548 352.695C442.741 358.393 436.166 363.252 428.532 366.238C415.714 371.252 401.645 368.553 389.458 363.115C376.263 355.514 364.102 344.988 358.986 330.143C358.496 328.723 357.273 324.908 357.483 323.39C357.746 321.478 360.774 318.255 361.953 316.671C386.338 283.917 408.668 250.029 428.25 214.174L464.028 142.672Z"/>
	<path fill="#811816" transform="scale(0.502072 0.502072)" d="M504.472 722.201C507.382 721.441 511.838 721.82 514.881 721.872C535.801 722.228 557.146 732.021 571.577 747.033C584.147 760.11 592.373 777.311 594.486 795.348C595.69 805.633 595.205 816.173 595.029 826.509L518.952 826.492L427.54 826.493C427.509 814.757 426.915 802.472 428.85 790.871C431.177 776.921 437.906 764.109 446.537 753.069C460.607 735.073 482.148 724.882 504.472 722.201Z"/>
	<path fill="#FAA230" transform="scale(0.502072 0.502072)" d="M534.428 142.743L560.288 142.693C580.676 185.507 601.997 227.54 627.63 267.499L651.943 302.975L667.304 324.352C663.033 335.214 658.245 343.815 650.536 352.668C640.327 362.771 629.285 367.955 615.025 369.246C601.304 370.488 587.526 365.894 577.103 356.959C573.956 354.262 570.044 350.375 568.517 346.464C567.361 343.505 566.849 340.019 566.138 336.92L562.407 320.423C553.932 281.942 548.56 242.929 542.985 203.95L537.308 164.096C536.302 157.028 534.931 149.859 534.428 142.743Z"/>
	<path fill="#FAA230" transform="scale(0.502072 0.502072)" d="M493.111 143L530.373 142.773C530.749 152.35 532.628 162.082 533.981 171.577L540.781 217.577L554.854 304.179L564.217 345.488C558.507 353.443 551.819 361.706 543.289 366.786C538.643 369.552 533.484 371.416 528.403 373.198C520.068 375.755 511.161 376.299 502.531 375.003C486.216 372.552 472.373 363.143 462.666 349.997C460.859 347.549 459.127 345.679 459.51 342.54C460.285 336.193 462.656 329.753 464.102 323.5L472.32 282.856L478.985 237.71L493.111 143Z"/>
	<path fill="#45E640" transform="scale(0.502072 0.502072)" d="M75.9888 482.776C75.7247 470.12 77.0892 457.167 78.0116 444.533C81.39 398.258 88.5908 352.441 100.75 307.641C106.113 287.882 112.218 268.161 119.963 249.197L129.319 229.016C131.265 225.306 133.25 221.234 136.027 218.069C139.702 220.926 142.937 224.265 145.492 228.177C150.471 235.8 154.245 244.775 157.917 253.091C172.795 286.784 182.726 321.658 190.981 357.469L195.269 378.469C195.831 381.572 196.742 384.904 197.005 388.027L197.011 388.837L75.9888 482.776Z"/>
	<path fill="#811816" transform="scale(0.502072 0.502072)" d="M819.5 896.225C827.328 893.824 835.269 891.665 842.791 888.386C853.998 883.502 864.155 876.429 873.135 868.182L873.092 900.77C873.136 908.565 873.727 916.853 872.66 924.586L872.531 925.5C872.029 929.203 871.112 932.64 869.442 936C858.915 957.193 832.464 968.243 811.267 975.32C798.712 979.511 785.257 982.363 772.27 984.917C714.44 996.292 655.672 996.513 597 998.561L510.017 1001.59L452.224 1000.67L400.578 999.598L356.75 996.802C312.984 994.099 268.913 991.017 226.42 979.44C212.97 975.776 200.193 971.843 187.685 965.574C173.416 958.423 159.674 946.64 154.625 931.014C151.181 920.359 151.594 910.183 151.714 899.153L152.007 871.889C164.989 883.63 180.582 889.356 197.35 893.184L196.175 894.068C195.427 907.609 199.862 922.076 208.942 932.282C225.543 950.944 251.605 958.652 275.104 964.39C298.514 970.108 322.02 973.448 345.919 976.383L380.882 980.037C387.193 980.643 393.617 981.585 399.946 981.788C400.677 981.812 401.266 981.649 401.937 981.382C406.189 984.276 410.365 985.881 415.506 986.388C426.718 987.494 438.357 986.507 449.617 986.396L505.259 986.327L577.388 986.344L596.938 986.445C602.043 986.494 607.145 986.732 612.195 985.796C615.346 985.213 618.266 984.145 620.951 982.37C626.547 982.599 632.286 982.04 637.873 981.656L665.607 979.221L720.458 973.069C745.23 969.63 769.452 964.663 791.872 953.193C799.45 949.317 807.937 944.037 813.012 937.018C819.428 928.146 819.973 919.528 820 908.943C820.011 904.7 820.16 900.428 819.5 896.225Z"/>
	<path fill="#C9B2AB" transform="scale(0.502072 0.502072)" d="M439.053 837.013L595.354 837.031L594.972 976.502L441.359 976.463C440.596 976.07 440.177 975.791 439.545 975.25C438.951 969.529 439.43 963.528 439.503 957.769L439.54 931.659L439.053 837.013Z"/>
	<path transform="scale(0.502072 0.502072)" d="M570.038 844.092C573.596 843.947 576.684 844.148 579.948 845.758C584.578 848.04 587.778 851.818 589.151 856.809C590.342 861.136 589.02 867.316 586.543 871C583.62 875.348 579.501 876.901 574.62 877.925C570.466 878.154 566.719 877.529 563.067 875.426C559.01 873.092 556.437 869.588 555.322 865.058C554.17 860.377 555.406 855.31 557.969 851.307C560.712 847.025 565.335 845.228 570.038 844.092Z"/>
	<path fill="#41403F" transform="scale(0.502072 0.502072)" d="M570.173 855.25C571.388 855.1 572.716 854.889 573.928 855.123C575.629 855.451 576.644 856.402 577.536 857.828C578.507 859.382 578.681 860.89 578.23 862.657C577.614 865.064 576.342 866.125 574.25 867.265C573.204 867.593 571.851 867.837 570.75 867.659C569.051 867.384 567.356 865.892 566.363 864.523C565.439 863.25 565.132 860.947 565.63 859.453C566.317 857.391 568.378 856.181 570.173 855.25Z"/>
	<path fill="#B65951" transform="scale(0.502072 0.502072)" d="M236.558 570.25L237.696 570.14C240.967 576.611 244.444 582.291 249.564 587.495C264.491 602.669 288.178 610.396 309.193 610.531C323.514 610.622 338.062 608.493 350.396 600.725C355.347 597.606 359.55 593.657 363.687 589.561C367.885 595.263 372.592 600.371 377.96 604.989C390.685 615.935 407.251 623.705 423.9 626.078C432.431 627.294 441.09 627.072 449.654 626.418C467.284 625.072 485.524 617.94 499.25 606.822C503.96 603.007 507.938 598.609 511.886 594.033C517.564 600.829 524.292 607.263 531.627 612.257C563.429 633.909 609.287 631.33 640.526 610.02C644.636 607.216 648.578 604.124 652.116 600.618C653.491 599.255 658.904 592.122 659.895 591.674C659.982 591.635 666.306 595.776 668.562 597.122C688.441 608.984 709.923 614.72 732.984 610.277C756.975 605.655 775.049 589.957 788.366 570.299C793.232 574.143 798.128 577.992 803.603 580.939C821.012 590.31 840.865 591.993 860.076 587.648C864.439 586.661 868.788 585.061 873.081 583.775L873.177 764.285L873.387 820.803C873.419 828.94 874.369 838.301 873.389 846.313C872.723 851.753 869.661 855.755 866.241 859.803C838.048 893.174 739.445 900.604 696.122 904.398L627.831 909.635L628.021 842.271C628.07 826.675 628.888 810.6 627.356 795.085C624.613 767.301 613.088 742.287 593.409 722.455C572.411 701.293 542.206 689.434 512.544 689.372C481.898 689.307 451.158 701.149 429.359 722.962C410.89 741.444 398.104 767.441 395.722 793.561C395.165 799.671 395.391 805.932 395.397 812.068L395.425 839.511L395.502 909.971L304.25 902.457C273.603 898.98 242.92 893.534 213 886.058C202.559 883.449 191.533 880.812 181.581 876.699C173.167 873.222 165.343 868.742 158.894 862.228C156.513 859.823 152.937 855.879 152.514 852.437C152.198 849.869 152.452 846.975 152.446 844.381L152.411 828.338L152.323 773.096L151.957 586.425C153.03 586.051 155.273 587.073 156.397 587.396C160.086 588.452 163.855 589.56 167.65 590.151C186.29 593.058 203.471 590.251 220.107 581.238C225.957 578.068 231.218 574.189 236.558 570.25Z"/>
	<path transform="scale(0.502072 0.502072)" d="M291.897 654.701L300.552 655.254C317.837 657.27 334.764 667.463 345.448 681.085C356.203 694.797 362.578 714.683 360.232 732.145C358.09 748.091 351.861 761.893 340.288 773.261C327.467 785.856 308.905 793.131 290.95 792.911C275.199 791.946 261.211 788.156 248.544 778.324C234.784 767.644 224.657 750.595 222.683 733.25C220.532 714.347 225.611 695.102 237.64 680.25C247.962 667.505 262.346 659.577 278.317 656.335C282.741 655.437 287.405 655.182 291.897 654.701Z"/>
	<path fill="#FEF0E4" transform="scale(0.502072 0.502072)" d="M286.531 662.668C300.245 661.088 314.825 666.288 326.15 673.653C339.809 682.535 348.097 696.31 351.608 712L352.341 715.766C354.453 731.867 350.58 748.638 340.456 761.5C329.697 775.169 314.525 783.058 297.398 785.091C291.299 785.641 285.112 785.372 279.109 784.048C262.304 780.341 247.65 769.625 238.521 755.079C230.608 742.472 227.761 725.412 231.211 710.938C233.147 702.814 235.793 695.291 240.85 688.533C252.4 673.097 267.788 665.457 286.531 662.668Z"/>
	<path transform="scale(0.502072 0.502072)" d="M285.957 683.665C295.584 682.432 306.148 685.153 314.254 690.429C323.05 696.154 329.744 706.098 331.822 716.355C333.933 726.77 331.743 738.372 325.808 747.225C319.323 756.899 309.1 762.214 297.935 764.354L296.096 764.552C286.005 765.727 276.058 763.27 267.75 757.418C259.209 751.401 253.191 742.214 251.502 731.871C249.513 719.686 251.31 708.982 258.705 698.885C265.426 689.707 274.959 685.351 285.957 683.665Z"/>
	<path transform="scale(0.502072 0.502072)" d="M727.868 654.211C744.867 653.213 761.827 658.266 775.451 668.559C790.623 680.021 799.738 697.599 802.158 716.244C804.447 733.873 798.413 753.448 787.507 767.33C774.963 783.294 757.561 791.889 737.619 794.323L736.911 794.417C719.031 795.955 700.523 788.604 686.895 777.455C672.233 765.46 664.351 748.339 662.661 729.641C660.968 710.913 667.362 692.368 679.501 678.141C692.082 663.395 708.724 655.741 727.868 654.211Z"/>
	<path fill="#FEF0E4" transform="scale(0.502072 0.502072)" d="M727.346 661.671L727.367 661.66C743.113 660.698 759.084 665.78 771.462 675.623C783.986 685.582 792.56 700.891 794.322 716.792C796.128 733.102 790.709 750.74 780.435 763.464C769.507 776.999 754.178 784.356 737.121 786.228L736.679 786.327C723.19 788.293 706.86 782.229 696.028 774.556C682.548 765.007 673.652 750.039 671.019 733.802C668.385 717.559 671.956 700.79 681.674 687.453C693.152 671.702 708.556 664.644 727.346 661.671Z"/>
	<path transform="scale(0.502072 0.502072)" d="M729.415 682.189C739.205 681.592 748.186 683.833 756.187 689.606C764.614 695.688 771.07 705.178 772.678 715.534C774.391 726.572 772.248 738.55 765.449 747.617C758.051 757.481 747.277 762.946 735.201 764.706C724.457 764.576 715.682 762.831 706.86 756.344C698.277 750.032 692.729 740.287 691.189 729.795C689.517 718.41 692.38 707.235 699.372 698.074C706.915 688.19 717.428 683.882 729.415 682.189Z"/>
</svg>
