<?xml version="1.0" encoding="utf-8" ?>
<svg xmlns="http://www.w3.org/2000/svg" xmlns:xlink="http://www.w3.org/1999/xlink" width="493" height="822">
	<path transform="scale(0.482069 0.482069)" d="M509.36 37.9241C510.635 37.59 511.574 37.3953 512.856 37.8198C519.258 39.9391 525.38 45.6235 530.509 49.9172C553.064 68.8013 571.406 90.6086 584.121 117.259C597.531 145.367 601.408 176.917 595.666 207.541C593.569 218.727 590.032 229.229 586.255 239.94C591.12 240.011 596.351 240.182 601.058 241.488C608.31 243.501 614.947 249.649 618.454 256.188C622.082 262.953 622.492 270.624 620.237 277.879C617.52 286.616 610.562 290.659 603.012 294.717C608.491 301.478 612.012 308.169 611.443 317.14C610.706 328.773 604.808 334.626 596.518 341.725L612.677 362.85C630.708 308.111 659.633 255.81 709.663 224.244C722.269 216.29 741.242 206.825 756.612 210.514C764.562 212.422 771.088 217.392 775.267 224.432C782.22 236.146 784.94 251.541 786.144 264.916C789.675 304.147 782.469 340.412 772.592 378.128C796.497 365.48 823.491 356.24 850.433 353.346C867.638 351.498 889.629 351.696 903.603 363.508C911.718 370.368 914.7 381.885 915.34 392.052C916.178 405.38 910.842 418.7 905.321 430.572C892.867 457.354 875.977 481.271 856.441 503.291C883.473 505.749 910.636 508.556 936.375 517.71C953.304 523.731 973.92 533.05 981.924 550.224C986.193 559.386 985.08 571.298 981.562 580.53C968.661 614.391 931.158 634.259 900.135 648.434L929.27 663.885C948.159 674.824 973.467 695.205 978.983 717.201C981.001 725.246 978.806 733.44 974.543 740.383C966.202 753.964 952.597 757.032 938.225 760.423C964.374 791.669 993.235 829.362 975.035 871.998C973.035 876.684 970.507 881.116 967.517 885.24C966.469 886.686 961.11 892.556 960.936 893.822C960.885 894.194 963.478 896.853 963.891 897.302C979.017 913.714 995.212 938.033 996.227 961.121C996.87 975.751 989.329 988.511 979.694 998.869C967.974 1011.47 950.27 1018.82 933.181 1019.21C916.696 1019.59 905.773 1012.49 894.263 1001.62C893.013 1009.8 891.951 1016.55 887.768 1023.88C886.602 1025.92 882.823 1029.99 882.356 1031.94C882.046 1033.23 882.749 1036 882.932 1037.36L884.44 1050.49L886.25 1085.2L889.554 1223.97C894.446 1221.83 899.869 1219.67 905.269 1219.5C910.921 1219.31 916.702 1222.69 920.592 1226.54C928.365 1234.25 931.756 1245.25 934.294 1255.64C940.994 1283.03 940.734 1310.58 940.662 1338.56C951.778 1332.36 963.022 1325.91 976.091 1325.49C981.668 1325.32 987.956 1328.14 991.935 1331.95C1001.08 1340.69 1002.82 1354.97 1003.09 1367.01C1004.35 1423.6 975.839 1483.8 935.552 1522.59C929.309 1528.6 922.233 1534.08 914.982 1538.82C910.664 1541.64 905.805 1543.94 901.807 1547.22C897.154 1551.02 894.01 1557.05 889.755 1561.4C872.935 1578.59 850.162 1590.09 828.389 1599.62C790.285 1616.31 749.302 1627.27 708.504 1635.09C641.259 1647.98 574.336 1652.11 506.016 1652.88C431.689 1652.74 356.497 1646.18 284.12 1628.79C244.967 1619.38 207.467 1608.03 172.308 1587.89C158.99 1580.26 146.123 1571.71 135.499 1560.53C131.971 1556.82 128.981 1550.7 125.128 1547.7C120.664 1544.23 113.883 1542.33 108.899 1539.16C63.9971 1510.56 36.5858 1457.79 25.4445 1406.98C20.64 1385.07 17.6156 1355.36 30.586 1335.72C33.8987 1330.7 39.5116 1326.72 45.4551 1325.58C59.4781 1322.89 73.8756 1330.96 85.151 1338.37C83.1879 1304.96 79.4059 1264.2 96.4278 1233.89C99.8788 1227.75 104.61 1222.15 111.669 1220.27C120.805 1217.84 129.083 1222.35 136.733 1226.85L137.989 1146.15L139.127 1085.73L142.495 1051.87C143.136 1047.04 144.07 1042.37 144.476 1037.49C144.553 1036.57 145.018 1034.16 144.794 1033.42C144.118 1031.19 140.285 1027.24 138.9 1025.14C133.982 1017.69 132.61 1009.07 131.397 1000.42C128.951 1001.46 126.1 1004.96 124.006 1006.75C115.318 1014.18 103.99 1018.13 92.7113 1019.14C77.6596 1020.49 60.2792 1013.93 48.883 1004.32C38.4771 995.535 28.7769 982.706 27.6217 968.734C25.3099 940.773 46.0297 914.016 63.0096 893.901C53.4435 881.443 46.6075 870.27 44.5819 854.334C39.8215 816.885 67.7946 786.235 88.9708 758.935C80.9645 758.136 73.3346 757.466 65.8226 754.308C57.4644 750.794 49.9614 743.646 46.5979 735.146C43.3387 726.91 44.0937 718.372 47.7409 710.4C60.7116 682.046 98.2823 658.834 126.476 648.435C105.435 639.124 85.969 629.373 67.9483 614.811C54.2562 603.746 40.2017 587.912 38.4455 569.695C37.4824 559.704 39.7745 550.54 46.3192 542.782C57.6897 529.304 74.7743 523.487 91.134 518.562C117.027 510.766 143.122 506.522 170.008 504.091C147.869 479.956 127.3 453.777 114.749 423.198C108.486 407.937 105.687 390.003 112.414 374.408C115.781 366.604 122.985 359.8 130.904 356.757C165.628 343.413 221.518 364.064 253.676 378.141C241.767 342.738 235.077 305.412 238.196 267.952C239.157 256.414 240.849 244.292 245.757 233.696C250.185 224.135 257.566 216.901 267.456 213.223L270.298 212.295C279.946 210.001 290.427 212.746 299.311 216.492C334.554 231.352 363.019 266.708 382.189 298.586C390.312 312.095 397.499 326.119 404.054 340.451C405.543 343.706 409.624 355.93 411.957 357.352L426.939 340.675C420.231 334.928 415.807 329.686 414.614 320.715C413.288 310.749 416.111 303.4 422.047 295.545C421.661 293.942 413.817 289.351 411.874 287.417C406.366 281.935 404.044 275.198 404.084 267.519C404.124 260.024 407.207 253.17 412.539 247.927C420.146 240.448 428.913 239.27 439.1 239.254C422.75 204.291 419.957 165.893 433.084 129.343C443.439 100.51 461.578 76.5365 484.198 56.1459C491.803 49.29 500.039 42.3105 509.36 37.9241Z"/>
	<path fill="#B65951" transform="scale(0.482069 0.482069)" d="M708.715 549.933C711.899 546.992 716.18 539.642 719.883 538.285L722.622 540.77L713.219 554.736L712.679 554.451L708.715 549.933Z"/>
	<path fill="#46E541" transform="scale(0.482069 0.482069)" d="M893.209 1230.8C897.991 1228.36 904.072 1225.6 909.533 1227.24C914.778 1228.82 918.948 1234.78 921.343 1239.36L922.031 1240.87L920.583 1241.31L912.404 1234.5C906.031 1230.43 898.989 1234.14 893.209 1230.8Z"/>
	<path fill="#B65951" transform="scale(0.482069 0.482069)" d="M301.062 541.097L304.534 538.246C307.747 538.923 310.232 542.59 312.671 544.845C314.996 546.995 317.719 548.742 320.39 550.429C318.169 552.065 315.724 553.61 313.929 555.719L313.348 555.827C308.596 551.211 304.787 546.571 301.062 541.097Z"/>
	<path fill="#46E541" transform="scale(0.482069 0.482069)" d="M102.614 1235.95C105.041 1231.98 108.262 1227.32 113.133 1226.27C118.729 1225.07 124.779 1227.35 129.368 1230.47C132.334 1232.49 136.051 1235.48 136.733 1239.17L137.013 1241.87L133.701 1239.32C127.405 1234.55 119.434 1228.99 111.622 1232.71C108.846 1234.03 106.281 1235.54 103.17 1235.9L102.614 1235.95Z"/>
	<path fill="#FEF0E5" transform="scale(0.482069 0.482069)" d="M124.296 1518.87C123.86 1514.94 124.034 1510.81 124.291 1506.87C125.439 1489.32 139.545 1472.98 152.101 1461.98L156.152 1470.11C144.919 1480.39 134.081 1490.61 128.336 1505.08C126.528 1509.63 126.523 1514.43 124.296 1518.87Z"/>
	<path fill="#088603" transform="scale(0.482069 0.482069)" d="M361.344 410.875C365.297 407.059 368.135 402.693 371.506 398.411L390.976 374.903C393.869 371.46 396.545 367.356 399.711 364.201C402.482 361.439 402.472 364.348 405.819 364.348C403.318 371.547 394.374 379.897 389.519 385.907C381.567 395.752 373.894 406.833 365.158 415.912C363.864 414.277 362.431 412.655 361.344 410.875Z"/>
	<path fill="#075E05" transform="scale(0.482069 0.482069)" d="M51.2478 723.37L51.9037 723.851C55.4526 726.501 56.9754 730.382 60.3225 733.066C73.8722 743.935 90.8379 740.522 106.612 738.958L94.905 752.151C83.0158 751.668 72.268 751.071 62.4898 743.502C56.0472 738.514 52.2005 731.419 51.2478 723.37Z"/>
	<path fill="#811816" transform="scale(0.482069 0.482069)" d="M650.455 555.029L653.266 548.653C661.282 552.542 670.188 556.859 679.056 558.248C689.484 559.882 700.42 556.094 708.715 549.933L712.679 554.451C705.143 562.327 696.854 566.53 685.891 566.798C672.364 567.129 661.441 562.813 650.455 555.029Z"/>
	<path fill="#075E05" transform="scale(0.482069 0.482069)" d="M921.42 740.677C933.896 740.75 948.446 740.125 959.709 734.222C964.54 731.69 968.736 727.854 972.939 724.404C969.807 734.375 965.99 742.521 956.223 747.582C949.767 750.927 939.954 753.678 932.564 753.536L921.42 740.677Z"/>
	<path fill="#811816" transform="scale(0.482069 0.482069)" d="M320.39 550.429C334.407 555.72 347.166 558.506 361.568 552.379L369.346 548.369L377.158 564.81L372.511 573.057C369.218 568.461 367.001 563.729 364.793 558.563L357.354 561.378C342.67 565.367 327.143 563.213 313.929 555.719C315.724 553.61 318.169 552.065 320.39 550.429Z"/>
	<path fill="#46E541" transform="scale(0.482069 0.482069)" d="M882.287 654.048C884.498 653.242 887.504 651.819 889.84 651.742C893.078 651.635 900.149 655.541 903.221 656.966C925.444 667.277 963.118 691.476 971.618 715.047C972.114 716.423 972.507 717.803 972.742 719.249L972.047 719.609C968.538 718.408 962.35 706.332 959.361 702.939C943.352 684.77 921.137 672.989 899.841 662.256C894.377 659.503 887.782 657.876 882.821 654.432L882.287 654.048Z"/>
	<path fill="#811816" transform="scale(0.482069 0.482069)" d="M472.319 582.658L474.607 575.936C478.924 578.57 483.271 581.574 487.957 583.486C502.625 589.469 522.991 589.533 537.335 582.488C540.472 580.948 545.343 576.966 548.661 577.363L549.764 581.786L548.922 582.193C545.5 583.946 543.169 587.914 539.645 589.976C526.989 597.384 507.779 597.491 494.072 593.575C486.245 591.339 478.721 587.72 472.319 582.658Z"/>
	<path fill="#46E541" transform="scale(0.482069 0.482069)" d="M125.096 368.668C136.214 358.98 151.389 359.313 165.235 360.271C195.498 362.366 228.192 372.793 255.375 386.036C256.409 387.649 257.384 389.204 258.182 390.948C254.669 391.074 250.53 388.958 247.235 387.73L227.553 380.459C217.893 376.921 207.697 373.52 197.711 370.995C180.353 366.607 160.915 362.949 143.012 364.878C137.157 365.509 131.319 368.826 125.595 368.693L125.096 368.668Z"/>
	<path fill="#B65951" transform="scale(0.482069 0.482069)" d="M149.261 1067.87L151.988 1040.21C158.437 1043.87 164.681 1047.41 171.827 1049.56L168.579 1085.98C165.935 1084.16 163.178 1082.27 160.962 1079.94C157.888 1076.71 153.42 1069.16 149.261 1067.87Z"/>
	<path fill="#46E541" transform="scale(0.482069 0.482069)" d="M34.3299 1341.98C37.7576 1337.41 40.9695 1333.5 46.9377 1332.66C62.0983 1330.53 77.3709 1340.14 88.8736 1349.06C104.537 1361.21 116.739 1377.18 129.251 1392.38C132.741 1396.62 140.017 1403.48 140.71 1408.89L141.119 1414.18C136.868 1412.55 123.686 1392.48 119.661 1387.44C108.723 1373.75 96.2685 1359.93 81.4828 1350.31C69.4537 1342.49 58.1784 1336.41 43.4053 1339.59C40.4769 1340.87 37.3532 1343.12 34.3299 1341.98Z"/>
	<path fill="#46E541" transform="scale(0.482069 0.482069)" d="M51.2378 721.83C51.5834 719.635 52.0277 717.388 52.7588 715.286C55.7111 706.798 61.448 699.664 67.6945 693.356C84.4573 676.427 106.13 664.719 127.415 654.472C129.275 653.577 133.341 651.129 135.219 650.963C138.83 650.644 145.059 653.596 148.55 654.82L148.003 655.178C141.768 659.109 133.715 660.601 126.862 663.345C110.234 670.003 93.7894 678.867 79.6133 689.875C72.8437 695.133 66.0628 701.638 60.9102 708.512C57.7744 712.696 55.2511 718.555 51.2378 721.83Z"/>
	<path fill="#46E541" transform="scale(0.482069 0.482069)" d="M766.118 395.11L769.662 386.698C786.25 378.333 803.251 371.217 821.066 365.915C843.656 359.191 873.262 353.582 894.994 365.42L894.229 365.558C888.896 366.438 883.506 364.72 878.19 364.26C871.462 363.678 863.917 363.827 857.18 364.457C833.875 366.639 809.063 375.078 787.788 384.698C780.494 387.997 773.524 392.073 766.118 395.11Z"/>
	<path fill="#46E541" transform="scale(0.482069 0.482069)" d="M882.858 1420.28C883.005 1418.03 883.108 1415.56 883.731 1413.38C885.084 1408.66 889.419 1403.97 892.288 1400C908.411 1377.66 927.68 1354.07 951.759 1339.95C959.794 1335.24 971.012 1330.33 980.468 1333.07C985.939 1334.65 988.787 1338.83 991.473 1343.53C987.784 1343.67 983.227 1340.77 979.995 1339.19C974.91 1339.28 969.714 1339.23 964.776 1340.57C947.712 1345.22 932.52 1360.22 920.564 1372.63C909.7 1383.92 898.992 1396.44 890.804 1409.85C889.487 1412 885.703 1419.65 883.598 1420.12L882.858 1420.28Z"/>
	<path fill="#811816" transform="scale(0.482069 0.482069)" d="M377.221 575.746L381.665 568.952L393.651 577.586C409.92 587.232 434.953 586.749 450.41 575.67C454.511 572.731 459.059 566.045 463.675 564.827L466.696 567.812C455.345 580.461 443.739 591.752 425.764 592.688C413.387 593.334 401.36 592.132 390.353 585.928C385.553 583.223 381.401 579.301 377.221 575.746Z"/>
	<path fill="#46E541" transform="scale(0.482069 0.482069)" d="M45.2797 559.429C46.6155 555.569 48.0706 551.9 50.5878 548.636C58.7673 538.031 71.9184 532.619 84.153 528.236C113.755 517.63 144.873 513.639 175.955 509.965L181.384 514.603C173.688 517.818 162.233 517.518 153.853 518.763C126.232 522.868 98.4603 527.926 73.0802 540.082C64.6616 544.114 56.784 548.166 50.7693 555.537L47.0595 560.526L46.0433 560.417L45.2797 559.429Z"/>
	<path fill="#46E541" transform="scale(0.482069 0.482069)" d="M843.978 515.637L849.74 509.844C885.189 512.113 946.228 518.027 971.037 546.458C974.331 550.233 976.656 555.147 977.62 560.045C975.743 559.671 975.025 558.78 973.575 557.562C973.265 556.339 972.114 554.799 971.267 553.858C963.222 544.92 951.439 539.187 940.506 534.688C909.627 521.981 877.047 517.853 843.978 515.637Z"/>
	<path fill="#46E541" transform="scale(0.482069 0.482069)" d="M259.222 225.999C265.437 221.086 272.727 217.641 280.862 218.573C312.387 222.185 339.911 252.299 358.186 276.146C371.35 293.323 382.461 311.587 392.093 330.95C396.696 340.203 401.566 350.247 404.751 360.084L401.601 360.099C399.437 357.52 398.048 353.549 396.601 350.485L387.718 331.843C374.388 305.382 357.813 280.159 336.771 259.178C323.601 246.046 305.113 228.846 286.438 224.837C281.065 223.684 274.865 224.123 269.375 224.138C265.981 225.129 262.801 226.216 259.222 225.999Z"/>
	<path fill="#075E05" transform="scale(0.482069 0.482069)" d="M700.601 464.04L701.132 463.827C705.539 461.508 711.944 452.826 715.39 448.933C739.274 421.947 754.283 391.294 765.826 357.395L777.235 319.564C776.71 334.045 774.093 347.234 770.455 361.226C761.043 397.43 743.108 434.029 715.448 459.828L705.224 468.654C703.596 467.195 701.896 465.813 700.601 464.04Z"/>
	<path fill="#FEF0E5" transform="scale(0.482069 0.482069)" d="M422.918 308.333L424.722 303.809C426.667 300.146 430.87 296.9 434.807 295.744L435.346 295.59C441.057 293.902 447.368 294.267 453.28 294.183L484.255 294.233L541.929 294.457L572.679 294.33C577.704 294.284 584.104 293.537 588.958 294.824C594.712 296.35 597.355 299.23 600.327 304.179C599.093 304.488 599.102 304.75 597.924 304.121C593.776 301.906 590.355 301.17 585.683 300.866C567.573 299.691 548.711 301.024 530.494 301.027L469.515 300.954C458.709 300.905 444.185 298.342 433.967 301.767C430.012 303.092 426.771 306.216 423.704 308.92L422.918 308.333Z"/>
	<path fill="#46E541" transform="scale(0.482069 0.482069)" d="M619.181 367.641C619.381 362.557 622.243 356.654 624.015 351.859C628.938 338.534 634.153 325.501 640.616 312.831C656.248 282.185 679.804 253.743 707.98 233.945C716.666 227.842 725.633 222.227 735.843 219.003C744.604 216.238 753.005 215.232 761.394 219.595L760.892 219.943C756.892 222.547 751.295 221.989 746.702 222.68C743.253 223.199 739.818 224.433 736.534 225.585C707.214 235.874 679.653 264.064 662.206 288.812C650.529 305.375 640.89 322.608 632.592 341.101L624.604 359.447C623.694 361.477 622.526 365.122 621.138 366.791C620.934 367.036 619.551 367.48 619.181 367.641Z"/>
	<path fill="#02BA01" transform="scale(0.482069 0.482069)" d="M893.209 1230.8C898.989 1234.14 906.031 1230.43 912.404 1234.5C911.587 1237.22 911.389 1238.98 911.682 1241.83C911.85 1249.53 910.008 1257.25 908.343 1264.73C904.128 1283.67 897.831 1302.3 889.112 1319.64L890.08 1233.16L893.209 1230.8Z"/>
	<path fill="#FEF0E5" transform="scale(0.482069 0.482069)" d="M412.667 260.839C414.22 256.693 416.762 252.979 420.381 250.373C424.299 247.553 428.937 246.5 433.671 246.06C440.587 245.417 447.576 246.118 454.506 246.19L490.809 246.266L559.368 245.822C570.733 245.83 584.002 245.016 595.199 247.022C602.057 248.251 606.763 252.65 610.577 258.153C607.154 256.53 602.596 253.74 598.836 253.387C590.716 252.624 582.264 253.059 574.107 253.072L532.255 253.141L462.024 253.05L438.359 253.154C433.426 253.208 428.171 252.845 423.45 254.47C419.796 255.728 415.995 260.578 412.667 260.839Z"/>
	<path fill="#B65951" transform="scale(0.482069 0.482069)" d="M717.857 497.568C720.918 499.823 721.502 500.834 722.123 504.708C723.668 514.337 717.144 527.554 711.321 535.086C705.603 542.483 697.935 548.22 688.446 549.323C676.954 550.658 664.441 546.396 655.447 539.254L654.488 538.444C654.381 534.506 654.195 531.607 652.313 528.097C665.824 530.091 681.801 531.801 694.667 526.035C705.481 521.188 713.909 508.204 717.857 497.568Z"/>
	<path fill="#075E05" transform="scale(0.482069 0.482069)" d="M245.881 303.744C250.125 324.984 255.086 346.154 262.798 366.425C276.519 402.492 298.213 434.474 324.47 462.545L360.275 416.056C361.18 417.28 361.664 418.232 362.177 419.665L319.568 471.902C312.529 465.035 306.656 456.577 300.676 448.782C267.749 405.861 248.676 357.793 245.881 303.744Z"/>
	<path fill="#075E05" transform="scale(0.482069 0.482069)" d="M45.5759 568.212L46.0026 568.722C48.9559 572.365 50.8656 576.621 53.4189 580.53C56.1954 584.781 59.8401 588.797 63.3436 592.46C79.4496 609.298 100.666 620.2 122.078 628.665C137.433 634.735 152.045 639.441 168.541 641.339L193.259 643.06L181.95 655.31C144.015 648.44 107.797 637.58 76.8807 613.513C62.2674 602.138 47.9858 587.441 45.5759 568.212Z"/>
	<path fill="#075E05" transform="scale(0.482069 0.482069)" d="M832.817 644.234C842.75 642.005 852.893 641.176 862.885 639.286C894.909 633.227 928.65 622.144 953.095 599.682C961.835 591.651 968.34 581.86 976.803 573.577C968.318 600.94 942.097 619.992 917.749 632.782C894.532 644.978 869.54 651.237 843.999 656.428L832.817 644.234Z"/>
	<path fill="#F56C54" transform="scale(0.482069 0.482069)" d="M149.261 1067.87C153.42 1069.16 157.888 1076.71 160.962 1079.94C163.178 1082.27 165.935 1084.16 168.579 1085.98L166.37 1155.05L144.945 1146.24L149.261 1067.87Z"/>
	<path fill="#02BA01" transform="scale(0.482069 0.482069)" d="M102.614 1235.95L103.17 1235.9C106.281 1235.54 108.846 1234.03 111.622 1232.71C119.434 1228.99 127.405 1234.55 133.701 1239.32L137.013 1241.87L137.445 1321.77C125.655 1298.61 112.702 1273.42 107.21 1247.91L107.259 1247.26C106.915 1243.06 104.384 1240.46 101.488 1237.71L102.614 1235.95Z"/>
	<defs>
		<linearGradient id="gradient_0" gradientUnits="userSpaceOnUse" x1="477.28131" y1="1371.7365" x2="562.93414" y2="1263.7609">
			<stop offset="0" stop-color="#FFE0B8"/>
			<stop offset="1" stop-color="#FBFDFF"/>
		</linearGradient>
	</defs>
	<path fill="url(#gradient_0)" transform="scale(0.482069 0.482069)" d="M401.491 1356.01C404.601 1325.45 419.453 1295.64 443.391 1276.12C466.726 1257.09 493.938 1249.05 523.828 1252.16C553.37 1255.22 579.865 1270.79 598.317 1293.79C612.553 1311.53 622.294 1337.6 622.394 1360.4C618.871 1355.13 618.693 1347.11 616.771 1341.07C613.288 1330.13 607.982 1318.97 601.839 1309.28C586.073 1284.42 562.741 1267.2 533.875 1260.82C505.412 1254.54 477.502 1260.46 453.284 1276.25C430.9 1290.84 414.756 1315.28 406.763 1340.45C404.666 1347.05 403.519 1353.91 402.087 1360.68L401.491 1356.01Z"/>
	<path fill="#C9580D" transform="scale(0.482069 0.482069)" d="M464.213 1034.83C464.774 1040.64 471.226 1048.16 475.637 1051.79C488.056 1062 504.353 1064.42 519.944 1062.76C532.3 1061.45 546.322 1057.17 554.37 1047.11C556.618 1044.3 558.145 1040.97 559.582 1037.69L559.76 1040.87C560.123 1053.74 555.297 1066.53 546.384 1075.84C537.575 1085.04 526.061 1089.16 513.536 1089.42C501.21 1089.67 488.124 1086.05 479.144 1077.24C466.614 1064.95 464.515 1051.42 464.213 1034.83Z"/>
	<path fill="#C9580D" transform="scale(0.482069 0.482069)" d="M772.848 1004.94C775.653 1020.96 779.019 1033.43 768.564 1047.98C761.34 1058.04 749.679 1064.84 737.484 1066.64C724.558 1068.54 710.634 1066.06 700.047 1058.01C686.448 1047.67 679.51 1030.14 677.339 1013.55L677.274 1013.03L682.157 1019.73C690.3 1031.1 701.647 1036.53 715.238 1038.69C729.831 1041.01 747.019 1039.43 759.268 1030.43C768.395 1023.72 771.211 1015.78 772.848 1004.94Z"/>
	<path fill="#B65951" transform="scale(0.482069 0.482069)" d="M874.493 1040.09C876.876 1052.64 876.648 1067.12 877.19 1079.98L879.899 1139.4L857.172 1151.47L855.424 1152.4L854.255 1151.47L851.467 1051.02C853.032 1049.46 857.726 1048.97 859.988 1048.11C865.077 1046.18 869.858 1042.91 874.493 1040.09Z"/>
	<path fill="#C9B2AB" transform="scale(0.482069 0.482069)" d="M195.451 1501.13C190.584 1498.42 186.508 1494.63 182.551 1490.77C173.643 1482.06 165.654 1472.49 160.263 1461.16C152.346 1444.53 150.418 1426.11 148.894 1407.97L146.437 1343.59C153.072 1346.2 159.666 1350.72 165.901 1354.24C166.046 1392.64 165.675 1433.78 179.822 1470.13C181.933 1475.55 184.481 1481.01 187.308 1486.09C189.693 1490.37 195.429 1496.12 195.451 1501.13Z"/>
	<path fill="#C9580D" transform="scale(0.482069 0.482069)" d="M357.759 1022.73C361.39 1034.36 367.741 1043.65 378.703 1049.4C393.305 1057.05 410.681 1060.3 426.676 1055.2C433.559 1053.01 441.383 1049.41 446.435 1044.13C449.311 1041.12 451.262 1037.59 453.829 1034.38C453.559 1038.93 453.331 1043.67 452.319 1048.12C449.409 1060.92 441.844 1073.15 430.59 1080.14C419.839 1086.82 407.635 1088.24 395.446 1085.26C382.626 1082.13 371.767 1074.29 365.033 1062.9C358.546 1051.93 354.469 1035.38 357.759 1022.73Z"/>
	<path fill="#C9580D" transform="scale(0.482069 0.482069)" d="M246.78 1011.99C256.555 1026.28 273.532 1035.57 290.314 1038.82C304.422 1041.56 320.154 1039.63 332.142 1031.3C338.532 1026.86 343.536 1019.91 347.802 1013.52L347.686 1017.27C346.772 1030.85 336.3 1047.07 326.222 1055.86C315.784 1064.96 301.657 1068.68 288.056 1067.63C275.98 1066.7 264.198 1061.03 256.368 1051.71C246.188 1039.59 245.521 1027 246.78 1011.99Z"/>
	<path fill="#075E05" transform="scale(0.482069 0.482069)" d="M114.862 392.797C118.414 398.44 119.439 404.007 121.97 410.002C125.494 418.352 129.755 426.43 134.309 434.258C157.978 474.94 192.936 508.076 235.756 527.937C246.911 533.111 258.152 537.777 270.21 540.439C276.357 541.796 282.734 542.038 289.003 542.312L269.242 562.998C241.68 549.416 215.573 534.857 192.012 514.917C170.204 496.461 151.091 473.822 135.91 449.638C128.049 437.115 120.817 423.636 117.05 409.246C115.654 403.914 115.317 398.276 114.862 392.797Z"/>
	<path fill="#C9580D" transform="scale(0.482069 0.482069)" d="M668.252 1023.1C672.437 1033.69 670.28 1047.01 665.831 1057.32C660.527 1069.61 651.182 1077.79 638.806 1082.53C627.201 1086.97 612.1 1087.8 600.563 1082.66C586.795 1076.52 578.771 1066.33 573.539 1052.38C571.028 1045.68 569.472 1038.63 570.429 1031.45C576.736 1042.41 586.537 1052.51 598.892 1056.22C613.824 1060.7 635.57 1056.05 648.909 1048.88C659.911 1042.97 664.709 1034.7 668.252 1023.1Z"/>
	<path fill="#C9580D" transform="scale(0.482069 0.482069)" d="M983.884 944.362C987.809 956.956 989.503 968.061 983.171 980.307C976.28 993.636 962.706 1003.82 948.491 1008.16C936.002 1011.98 923.503 1011.64 911.847 1005.5C898.873 998.664 891.714 982.82 887.744 969.383L886.78 965.942L899.695 975.876C910.476 982.87 926.694 983.858 939.014 981.082C952.589 978.022 965.423 970.414 974.082 959.438C977.726 954.819 980.696 949.318 983.884 944.362Z"/>
	<path fill="#C9580D" transform="scale(0.482069 0.482069)" d="M40.0917 943.59C49.2611 960.787 60.9079 974.031 80.2734 979.871C95.1428 984.356 110.754 982.656 124.409 975.338C130.483 972.083 134.881 966.912 140.589 963.369C135.786 979.953 127.559 995.953 112.095 1004.84C101.409 1010.98 87.2657 1011.93 75.487 1008.56C60.8468 1004.37 48.1326 994.733 40.82 981.26C33.8601 968.436 36.1387 956.815 40.0917 943.59Z"/>
	<path fill="#C9580D" transform="scale(0.482069 0.482069)" d="M144.13 980.09C154.907 995.564 168.097 1009.17 187.469 1012.7C202.873 1015.5 217.671 1012.06 230.462 1003C234.907 999.846 238.951 995.36 242.693 991.412C242.567 994.948 241.923 998.36 241.04 1001.78C237.403 1015.88 227.393 1028.56 214.828 1035.82C202.237 1043.09 186.861 1044.47 172.911 1040.69C161.24 1037.52 150.987 1029.36 145.107 1018.84C138.216 1006.51 140.507 992.996 144.13 980.09Z"/>
	<path fill="#C9580D" transform="scale(0.482069 0.482069)" d="M880.894 979.192C886.259 987.831 887.257 999.034 884.947 1008.88C882.205 1020.56 874.142 1030.09 864.054 1036.23C851.349 1043.96 834.917 1046.29 820.575 1042.58C805.787 1038.75 794.569 1029.11 787.027 1016.08C783.183 1009.44 780.167 1002.46 779.203 994.778L780.303 992.946C788.425 1000.02 795.363 1006.41 805.59 1010.45C821.382 1016.68 837.603 1018.12 853.408 1011.05C868.437 1004.33 875.073 994.114 880.894 979.192Z"/>
	<path fill="#075E05" transform="scale(0.482069 0.482069)" d="M740.909 547.427C745.079 544.501 752.27 542.494 757.048 540.409C768.677 535.332 780.213 530.178 791.315 524.001C833.944 500.28 871.913 466.318 894.936 422.829C897.841 417.343 900.975 411.651 903.062 405.789C904.857 400.748 905.302 394.962 907.933 390.295L908.244 389.775C911.635 409.84 898.808 430.523 888.961 447.171C884.624 454.503 880.237 462.323 875.306 469.255C844.961 511.912 804.008 544.813 754.145 561.556L740.909 547.427Z"/>
	<path fill="#C9580D" transform="scale(0.482069 0.482069)" d="M488.936 63.0804C495.033 56.237 503.012 51.0004 510.336 45.5563C520.613 51.4013 529.615 59.3687 538.037 67.6039C560.173 89.2481 577.105 114.808 585.393 144.853C593.718 175.029 592.079 209.515 576.561 237.13L575.21 239.228L562.529 239.23L569.024 210.509C575.381 163.261 561.62 113.631 532.748 75.8682L518.069 58.1456C515.696 55.4396 512.921 51.5372 509.193 51.0374L507.013 52.7691C505.312 54.0792 499.934 59.1591 498.225 59.4823L495.917 58.7615C493.684 60.4381 491.616 62.1852 488.936 63.0804Z"/>
	<path fill="#FEF0E5" transform="scale(0.482069 0.482069)" d="M165.137 1346.77C158.433 1343.9 151.666 1339.76 145.863 1335.35L144.871 1150.78L166.934 1160.92C166.817 1180.21 168.116 1341.74 165.137 1346.77Z"/>
	<path fill="#088603" transform="scale(0.482069 0.482069)" d="M101.488 1237.71C104.384 1240.46 106.915 1243.06 107.259 1247.26L107.21 1247.91L106.359 1248.18C106.591 1254.29 108.34 1260.13 110.002 1265.98C114.463 1281.67 121.32 1296.77 129.088 1311.09C131.689 1315.88 136.441 1321.24 137.91 1326.39C138.97 1330.11 138.332 1335.29 138.331 1339.17L138.407 1368.59L140.122 1394.62L93.0341 1342.88C89.5007 1309.57 86.1678 1268.65 101.488 1237.71Z"/>
	<path fill="#B65951" transform="scale(0.482069 0.482069)" d="M853.241 1355.44C862.686 1350.7 871.545 1345.62 880.076 1339.38L876.991 1391.9C875.692 1416.17 874.715 1444.88 862.833 1466.79C857.654 1476.33 850.3 1484.33 842.276 1491.57C828.172 1504.3 810.736 1515.49 792.788 1521.83C791.231 1519.8 791.56 1518.43 791.495 1515.98C811.378 1504.44 828.9 1480.81 838.957 1460.47C843.655 1450.97 847.235 1440.73 849.505 1430.38C853.665 1411.4 853.972 1389.94 854.026 1370.54C854.039 1365.88 854.749 1359.85 853.241 1355.44Z"/>
	<path fill="#088603" transform="scale(0.482069 0.482069)" d="M912.404 1234.5L920.583 1241.31L922.031 1240.87C933.55 1264.54 934.264 1295.28 934.285 1321.18C934.291 1328.9 934.751 1337.62 932.936 1345.1C914.464 1360.43 898.603 1378.75 885.604 1398.92L887.444 1353.44C887.706 1345.7 886.894 1336.47 888.672 1329.01C890.266 1322.32 894.203 1315.96 896.647 1309.51C903.585 1291.21 910.754 1270.1 912.66 1250.58C912.969 1247.42 913.477 1244.51 911.682 1241.83C911.389 1238.98 911.587 1237.22 912.404 1234.5Z"/>
	<path fill="#FAA230" transform="scale(0.482069 0.482069)" d="M677.274 1013.03C674.382 1006.84 673.38 999.987 672.09 993.331C703.945 991.192 732.444 984.906 760.845 969.995L772.848 1004.94C771.211 1015.78 768.395 1023.72 759.268 1030.43C747.019 1039.43 729.831 1041.01 715.238 1038.69C701.647 1036.53 690.3 1031.1 682.157 1019.73L677.274 1013.03Z"/>
	<path fill="#02BA01" transform="scale(0.482069 0.482069)" d="M882.287 654.048L882.821 654.432C887.782 657.876 894.377 659.503 899.841 662.256C921.137 672.989 943.352 684.77 959.361 702.939C962.35 706.332 968.538 718.408 972.047 719.609L972.742 719.249L972.939 724.404C968.736 727.854 964.54 731.69 959.709 734.222C948.446 740.125 933.896 740.75 921.42 740.677C920.272 738.061 915.618 734.083 913.61 731.842L888.037 703.26L923.963 713.23C936.278 716.772 947.745 721.375 960.667 722.209L910.711 706.105C902.772 703.758 890.383 702.822 883.759 698.335C878.95 695.079 874.91 689.601 870.974 685.304L848.773 661.321L882.287 654.048Z"/>
	<path fill="#FAA230" transform="scale(0.482069 0.482069)" d="M246.78 1011.99L257.944 967.593C286.525 983.535 320.502 990.962 353.138 991.841C351.86 999.187 350.732 1006.61 347.802 1013.52C343.536 1019.91 338.532 1026.86 332.142 1031.3C320.154 1039.63 304.422 1041.56 290.314 1038.82C273.532 1035.57 256.555 1026.28 246.78 1011.99Z"/>
	<defs>
		<linearGradient id="gradient_1" gradientUnits="userSpaceOnUse" x1="106.15368" y1="667.97089" x2="123.41157" y2="731.82635">
			<stop offset="0" stop-color="#00C100"/>
			<stop offset="1" stop-color="#099505"/>
		</linearGradient>
	</defs>
	<path fill="url(#gradient_1)" transform="scale(0.482069 0.482069)" d="M148.55 654.82L176.665 660.341L151.326 687.949C148.624 690.871 144.871 696.088 141.555 698.128C131.818 704.119 116.942 705.439 105.957 708.882L79.5704 718.556C77.4664 719.353 72.1638 720.569 70.8482 722.295C76.6255 721.105 82.1681 718.94 87.8443 717.327L124.079 707.157C127.521 706.194 133.598 703.525 136.962 703.746L106.612 738.958C90.8379 740.522 73.8722 743.935 60.3225 733.066C56.9754 730.382 55.4526 726.501 51.9037 723.851L51.2478 723.37L51.2378 721.83C55.2511 718.555 57.7744 712.696 60.9102 708.512C66.0628 701.638 72.8437 695.133 79.6133 689.875C93.7894 678.867 110.234 670.003 126.862 663.345C133.715 660.601 141.768 659.109 148.003 655.178L148.55 654.82Z"/>
	<path fill="#B65951" transform="scale(0.482069 0.482069)" d="M852.153 1161.46L880.226 1147.79L880.788 1278.79L880.917 1310.83C881.018 1317.75 881.768 1324.54 880.536 1331.42C872.931 1338.15 863.225 1343.35 854.143 1347.82L852.153 1161.46Z"/>
	<path fill="#FAA230" transform="scale(0.482069 0.482069)" d="M464.213 1034.83L465.833 999.027C488.071 1001.71 509.61 1003.22 532.001 1001.83C541.033 1001.26 550.217 1000.79 558.93 998.134C560.01 1010.03 562.966 1026.05 559.582 1037.69C558.145 1040.97 556.618 1044.3 554.37 1047.11C546.322 1057.17 532.3 1061.45 519.944 1062.76C504.353 1064.42 488.056 1062 475.637 1051.79C471.226 1048.16 464.774 1040.64 464.213 1034.83Z"/>
	<path fill="#FAA230" transform="scale(0.482069 0.482069)" d="M40.0917 943.59C47.0285 928.437 56.6896 911.176 68.9668 899.797C92.9296 920.974 120.024 932.729 150.734 940.599C147.809 948.377 145.099 956.334 140.589 963.369C134.881 966.912 130.483 972.083 124.409 975.338C110.754 982.656 95.1428 984.356 80.2734 979.871C60.9079 974.031 49.2611 960.787 40.0917 943.59Z"/>
	<path fill="#FAA230" transform="scale(0.482069 0.482069)" d="M886.78 965.942C881.747 958.411 878.554 948.519 874.987 940.208C886.13 936.509 897.109 933.38 907.901 928.625C925.066 921.061 940.408 910.789 955.343 899.561C967.049 913.877 976.195 927.499 983.884 944.362C980.696 949.318 977.726 954.819 974.082 959.438C965.423 970.414 952.589 978.022 939.014 981.082C926.694 983.858 910.476 982.87 899.695 975.876L886.78 965.942Z"/>
	<path fill="#FAA230" transform="scale(0.482069 0.482069)" d="M357.759 1022.73C356.884 1011.93 359.129 1002.41 360.398 991.82C379.62 991.549 397.476 989.539 414.624 980.135L419.243 977.523C419.388 977.439 419.519 977.218 419.68 977.27C422.417 978.152 427.277 983.666 430.16 985.453C438.457 990.595 448.943 994.101 458.306 996.772L453.829 1034.38C451.262 1037.59 449.311 1041.12 446.435 1044.13C441.383 1049.41 433.559 1053.01 426.676 1055.2C410.681 1060.3 393.305 1057.05 378.703 1049.4C367.741 1043.65 361.39 1034.36 357.759 1022.73Z"/>
	<path fill="#FAA230" transform="scale(0.482069 0.482069)" d="M570.429 1031.45L566.615 996.563C575.871 994.135 584.672 990.241 592.756 985.115C594.239 984.174 601.944 977.392 602.683 977.347C602.892 977.334 606.943 980.312 607.498 980.683C610.603 982.762 613.456 984.237 617.035 985.371C632.452 990.253 647.891 992.142 663.969 992.901C666.207 1003.06 668.377 1012.64 668.252 1023.1C664.709 1034.7 659.911 1042.97 648.909 1048.88C635.57 1056.05 613.824 1060.7 598.892 1056.22C586.537 1052.51 576.736 1042.41 570.429 1031.45Z"/>
	<path fill="#FAA230" transform="scale(0.482069 0.482069)" d="M144.13 980.09L156.218 941.955C160.558 941.677 165.604 943.217 169.994 943.662C180.447 944.72 191.103 944.955 201.579 944.197C208.359 943.707 215.325 942.451 221.947 940.896C225.903 939.967 232.266 937.026 236.116 937.378C237.922 942.739 239.744 947.914 243.088 952.557C244.031 953.867 252.435 962.154 252.565 962.858C252.699 963.583 251.331 967.001 251.07 967.862L242.693 991.412C238.951 995.36 234.907 999.846 230.462 1003C217.671 1012.06 202.873 1015.5 187.469 1012.7C168.097 1009.17 154.907 995.564 144.13 980.09Z"/>
	<path fill="#B65951" transform="scale(0.482069 0.482069)" d="M422.918 308.333L423.704 308.92C426.771 306.216 430.012 303.092 433.967 301.767C444.185 298.342 458.709 300.905 469.515 300.954L530.494 301.027C548.711 301.024 567.573 299.691 585.683 300.866C590.355 301.17 593.776 301.906 597.924 304.121C599.102 304.75 599.093 304.488 600.327 304.179C603.149 309.859 604.577 316.257 602.49 322.466C600.507 328.366 596.316 332.615 591.149 335.856C580.574 336.466 569.903 335.915 559.308 335.912L499.4 335.935L460.11 335.974C452.308 336.015 443.898 336.602 436.171 335.524C433.205 335.11 430.487 333.788 428.278 331.773C425.209 328.974 422.583 324.684 422.407 320.479C422.297 317.866 421.691 310.332 422.918 308.333Z"/>
	<path fill="#02BA01" transform="scale(0.482069 0.482069)" d="M882.858 1420.28L883.598 1420.12C885.703 1419.65 889.487 1412 890.804 1409.85C898.992 1396.44 909.7 1383.92 920.564 1372.63C932.52 1360.22 947.712 1345.22 964.776 1340.57C969.714 1339.23 974.91 1339.28 979.995 1339.19C979.773 1342.59 979.398 1346.07 979.623 1349.47C977.224 1356.28 975.443 1363.29 972.674 1369.98C955.859 1410.59 928.41 1444.15 900.556 1477.51C893.38 1468.23 886.16 1459.23 876.898 1451.89L882.858 1420.28Z"/>
	<path fill="#FAA230" transform="scale(0.482069 0.482069)" d="M780.303 992.946C777.183 990.115 775.641 985.225 774.174 981.36C773.387 979.287 767.709 965.727 768.033 964.799C768.206 964.302 770.112 962.911 770.649 962.413C773.635 959.643 776.671 956.804 779.187 953.592C782.96 948.777 785.625 942.969 788.123 937.421C812.976 951.552 840.191 948.308 866.758 941.752L877.953 968.531C878.796 970.536 881.212 974.878 881.346 976.857C881.389 977.477 881.019 978.548 880.894 979.192C875.073 994.114 868.437 1004.33 853.408 1011.05C837.603 1018.12 821.382 1016.68 805.59 1010.45C795.363 1006.41 788.425 1000.02 780.303 992.946Z"/>
	<path fill="#B65951" transform="scale(0.482069 0.482069)" d="M648.084 530.566C648.945 532.19 649.293 534.231 649.052 536.051C647.478 547.904 638.24 559.358 628.839 566.037C619.17 572.906 606.401 575.181 594.799 573.191C577.548 570.232 568.037 559.668 558.542 545.991C553.792 555.958 548.393 566.138 538.559 571.95C526.79 578.907 510.852 580.562 497.678 577.14C480.832 572.764 473.071 560.866 464.761 546.748C456.515 558.404 449.545 568.967 434.946 573.418C423.531 576.898 409.181 575.801 398.685 570.051C383.095 561.511 378.195 548.761 373.631 532.662C367.992 537.84 362.413 543.159 354.94 545.5C344.716 548.702 334.6 548.506 324.947 543.403C315.952 538.647 307.915 530.601 304.928 520.688C302.223 511.708 307.054 503.263 311.169 495.589C314.042 508.187 320.393 513.346 331.196 520.131C342.052 526.949 359.978 532.992 372.765 529.906C373.436 529.744 374.041 529.568 374.665 529.275C376.928 528.57 378.381 527.546 380.204 526.052C384.169 535.591 396.228 543.485 405.377 547.203C418.055 552.355 436.718 555.297 449.597 549.578C454.195 547.536 462.224 542.535 463.917 537.605C464.251 536.632 464.178 536.897 464.316 536.074L465.341 539.105C466.45 538.926 467.241 538.735 468.235 538.204C478.258 551.189 487.321 556.529 503.439 559.675C515.897 562.107 531.391 559.238 541.903 552.105C547.26 548.47 551.27 543.842 554.833 538.486C555.786 539.791 556.469 540.464 557.826 541.341L559.203 537.652C566.332 546.117 576.603 552.843 587.653 554.283C610.45 557.255 630.846 543.77 648.084 530.566Z"/>
	<path fill="#088603" transform="scale(0.482069 0.482069)" d="M979.995 1339.19C983.227 1340.77 987.784 1343.67 991.473 1343.53C1003.51 1370.59 992.781 1411.77 982.557 1438.2C970.269 1469.98 952.229 1498.93 926.624 1521.69C921.814 1525.96 915.704 1531.54 909.795 1534.16L908.113 1534.81C911.844 1521.39 913.86 1508.58 909.334 1495.08C907.756 1490.37 905.371 1486.3 903.124 1481.91C903.074 1481.81 902.595 1480.87 902.596 1480.87C903.026 1479.54 906.018 1476.62 906.988 1475.42L922.665 1456.01C942.423 1430.5 960.254 1403.84 972.995 1374.11C976.135 1366.79 980.591 1357.55 979.623 1349.47C979.398 1346.07 979.773 1342.59 979.995 1339.19Z"/>
	<path fill="#FAA230" transform="scale(0.482069 0.482069)" d="M412.667 260.839C415.995 260.578 419.796 255.728 423.45 254.47C428.171 252.845 433.426 253.208 438.359 253.154L462.024 253.05L532.255 253.141L574.107 253.072C582.264 253.059 590.716 252.624 598.836 253.387C602.596 253.74 607.154 256.53 610.577 258.153C613.852 262.889 614.656 268.464 613.65 274.12C612.914 278.26 609.192 283.336 605.668 285.567C603.195 287.133 600.241 288.261 597.544 289.373L596.964 289.217C593.681 288.363 590.267 287.762 586.877 287.596L554.338 287.511L490.136 287.475L454.807 287.498C448.256 287.507 441.092 286.894 434.658 288.136C428.519 289.321 425.281 288.042 420.11 284.623C415.895 281.836 412.897 277.199 411.85 272.287C411.158 269.043 411.394 263.888 412.667 260.839Z"/>
	<path fill="#02BA01" transform="scale(0.482069 0.482069)" d="M43.4053 1339.59C58.1784 1336.41 69.4537 1342.49 81.4828 1350.31C96.2685 1359.93 108.723 1373.75 119.661 1387.44C123.686 1392.48 136.868 1412.55 141.119 1414.18L149.659 1454.4C139.852 1461.96 132.427 1471.07 125.519 1481.25C110.725 1466.35 98.1018 1449.08 86.3156 1431.77C69.7373 1407.42 55.2748 1383.43 45.9019 1355.37C46.8866 1352.14 44.2084 1343.03 43.4053 1339.59Z"/>
	<path fill="#088603" transform="scale(0.482069 0.482069)" d="M43.4053 1339.59C44.2084 1343.03 46.8866 1352.14 45.9019 1355.37C45.5465 1360.34 47.73 1365.66 49.3465 1370.33C54.4409 1385.03 61.6875 1398.14 69.6021 1411.47C80.1293 1429.2 91.8581 1446.37 104.566 1462.61L118.526 1479.39C119.781 1480.88 122.617 1483.42 123.264 1485.02C123.863 1486.5 119.894 1493.92 119.249 1495.9C118.244 1498.99 117.617 1502.48 117.185 1505.7C115.672 1516.92 117.895 1527.01 121.247 1537.67C120.603 1537.6 120.139 1537.47 119.578 1537.13C78.1288 1512.54 48.9209 1470.15 36.0461 1424C31.5525 1407.89 28.8608 1390.9 28.4414 1374.18C28.1574 1362.85 28.6609 1352.06 34.3299 1341.98C37.3532 1343.12 40.4769 1340.87 43.4053 1339.59Z"/>
	<path fill="#F56C54" transform="scale(0.482069 0.482069)" d="M853.241 1355.44C854.749 1359.85 854.039 1365.88 854.026 1370.54C853.972 1389.94 853.665 1411.4 849.505 1430.38C847.235 1440.73 843.655 1450.97 838.957 1460.47C828.9 1480.81 811.378 1504.44 791.495 1515.98L791.53 1377.01L853.241 1355.44Z"/>
	<path fill="#811816" transform="scale(0.482069 0.482069)" d="M241.948 908.658C247.727 912.66 253.596 914.166 260.063 916.645C293.323 929.395 330.93 938.002 366.56 939.097C379.55 939.496 392.764 938.358 405.776 938.126C410.036 938.051 414.909 937.521 419.114 937.98L419.112 938.666C419.081 942.423 418.137 967.633 416.046 969.605C413.849 971.676 408.728 973.577 405.83 974.721C387.202 982.072 368.224 983.568 348.361 982.659C324.07 981.547 296.688 977.096 274.521 966.76C267.071 963.286 259.802 959.141 254.208 953.003C242.245 939.88 241.198 925.537 241.948 908.658Z"/>
	<path fill="#088603" transform="scale(0.482069 0.482069)" d="M973.575 557.562C975.025 558.78 975.743 559.671 977.62 560.045C978.695 564.599 978.061 569.122 976.803 573.577C968.34 581.86 961.835 591.651 953.095 599.682C928.65 622.144 894.909 633.227 862.885 639.286C852.893 641.176 842.75 642.005 832.817 644.234L788.88 597.811C791.841 595.471 816.339 594.083 821.936 593.387L851.224 588.585C876.07 584.805 901.313 580.78 925.683 574.569C936.88 571.715 948.682 568.768 959.299 564.208C961.936 563.075 964.749 562.295 966.239 559.788C968.395 558.202 970.997 558.01 973.575 557.562Z"/>
	<path fill="#811816" transform="scale(0.482069 0.482069)" d="M781.713 908.736C780.806 926.483 779.483 941.785 765.461 954.428C738.095 979.105 691.228 986.328 655.764 984.223C644.329 983.545 632.952 981.314 622.131 977.576C617.429 975.951 612.673 974.227 609.271 970.413C607.762 968.722 607.669 965.749 607.354 963.521L604.885 937.089C611.375 937.683 617.984 938.754 624.482 939.004C679.111 941.109 731.637 930.285 781.713 908.736Z"/>
	<path fill="#811816" transform="scale(0.482069 0.482069)" d="M425.376 938.131C459.679 945.502 496.685 948.844 531.73 946.666C554.035 945.28 577.133 941.359 599.222 937.873C600.233 945.716 600.296 954.413 599.822 962.324C599.493 967.811 596.853 970.689 592.959 974.163C586.903 979.568 579.597 982.591 572.027 985.242C546.302 994.251 518.16 994.554 491.222 992.906C470.882 991.662 440.925 986.703 426.83 970.603C426.236 969.925 424.756 968.545 424.441 967.741C423.569 965.521 424.17 961.111 424.274 958.736L425.376 938.131Z"/>
	<path fill="#F56C54" transform="scale(0.482069 0.482069)" d="M174.98 1087.99C191.559 1092.16 206.625 1095.24 222.198 1085.63C228.444 1081.78 231.644 1077.52 235.813 1071.65C246.531 1092.65 258.269 1113.26 278.229 1126.75C271.054 1145.18 268.055 1162.63 267.443 1182.33C235.084 1175.41 202.2 1168.53 171.27 1156.51C170.029 1152.12 171.749 1142.97 172.032 1138.14L174.98 1087.99Z"/>
	<path fill="#F56C54" transform="scale(0.482069 0.482069)" d="M743.876 1121.89C748.509 1118.79 753.771 1116.79 758.43 1113.62C772.963 1103.75 780.256 1087.99 787.066 1072.5C798.626 1079.22 811.246 1085.82 824.719 1087.54C832.363 1088.52 840.573 1088 848.26 1087.64L850.881 1154.62C821.437 1166.18 789.036 1178.62 757.481 1182.37C756.557 1169.24 755.55 1156.54 752.054 1143.76C749.972 1136.15 746.872 1129.15 743.876 1121.89Z"/>
	<path fill="#088603" transform="scale(0.482069 0.482069)" d="M50.7693 555.537C53.9339 556.973 61.3812 559.232 63.5525 561.521C66.5512 563.989 70.4936 564.592 74.1611 565.568L97.4303 571.065L194.609 591.285L219.964 595.111C224.677 595.698 231.241 595.423 235.582 597.166L193.259 643.06L168.541 641.339C152.045 639.441 137.433 634.735 122.078 628.665C100.666 620.2 79.4496 609.298 63.3436 592.46C59.8401 588.797 56.1954 584.781 53.4189 580.53C50.8656 576.621 48.9559 572.365 46.0026 568.722L45.5759 568.212C44.75 565.257 45.0626 562.448 45.2797 559.429L46.0433 560.417L47.0595 560.526L50.7693 555.537Z"/>
	<path fill="#811816" transform="scale(0.482069 0.482069)" d="M962.632 809.225C971.142 826.564 975.799 845.046 969.482 864.01C960.825 889.997 932.651 907.25 909.314 918.551C900.642 922.751 891.679 925.881 882.542 928.887C858.522 936.791 827.49 943.694 802.864 934.933C797.65 933.078 793.062 929.945 788.714 926.586L786.948 905.982C815.348 905.164 842.1 896.667 868.192 886.081C893.15 875.956 916.464 864.19 938.242 848.224C951.759 836.792 960.957 827.845 962.632 809.225Z"/>
	<path fill="#811816" transform="scale(0.482069 0.482069)" d="M62.0931 811.189C63.2161 815.795 64.1321 820.918 66.1039 825.232C70.5488 834.955 78.4139 841.626 86.4564 848.274C107.083 862.831 130.138 873.723 153.507 883.114C166.705 888.417 180.379 893.726 194.05 897.634L220.92 905.131C226.005 906.362 231.926 906.771 236.736 908.679C235.137 915.104 235.148 921.944 234.878 928.527C194.867 942.219 152.859 936.25 114.851 919.441C89.9031 908.408 65.1253 891.132 55.1024 864.755C47.9185 845.849 54.3031 828.601 62.0931 811.189Z"/>
	<path fill="#02BA01" transform="scale(0.482069 0.482069)" d="M766.118 395.11C773.524 392.073 780.494 387.997 787.788 384.698C809.063 375.078 833.875 366.639 857.18 364.457C863.917 363.827 871.462 363.678 878.19 364.26C883.506 364.72 888.896 366.438 894.229 365.558L894.994 365.42L900.398 369.077L894.668 374.427L727.727 495.575C723.201 487.568 715.521 480.967 709.014 474.547C718.714 465.693 728.323 456.852 736.51 446.534C748.942 430.869 757.692 413.127 766.118 395.11Z"/>
	<path fill="#F56C54" transform="scale(0.482069 0.482069)" d="M165.901 1354.24L233.165 1376.28L232.853 1522.9C219.592 1516.81 206.599 1510.74 195.451 1501.13C195.429 1496.12 189.693 1490.37 187.308 1486.09C184.481 1481.01 181.933 1475.55 179.822 1470.13C165.675 1433.78 166.046 1392.64 165.901 1354.24Z"/>
	<path fill="#02BA01" transform="scale(0.482069 0.482069)" d="M181.384 514.603C206.851 536.018 233.589 554.804 264.36 567.747L239.901 592.513L63.5525 561.521C61.3812 559.232 53.9339 556.973 50.7693 555.537C56.784 548.166 64.6616 544.114 73.0802 540.082C98.4603 527.926 126.232 522.868 153.853 518.763C162.233 517.518 173.688 517.818 181.384 514.603Z"/>
	<path fill="#FAA230" transform="scale(0.482069 0.482069)" d="M301.062 541.097C304.787 546.571 308.596 551.211 313.348 555.827L262.177 610.553C219.738 657.242 179.204 704.95 141.649 755.687C125.436 777.59 108.01 799.884 95.7399 824.328C91.8019 832.172 89.5615 840.164 86.4564 848.274C78.4139 841.626 70.5488 834.955 66.1039 825.232C64.1321 820.918 63.2161 815.795 62.0931 811.189C71.1242 792.063 87.452 775.047 101.053 759.027L130.225 724.632L188.059 662.503L301.062 541.097Z"/>
	<path fill="#FAA230" transform="scale(0.482069 0.482069)" d="M713.219 554.736L722.622 540.77L807.392 630.328C851.692 677.041 897.38 723.386 937.73 773.576C946.217 784.133 957.548 796.585 962.632 809.225C960.957 827.845 951.759 836.792 938.242 848.224C933.569 830.596 925.049 815.992 915.158 800.843C901.864 780.482 886.791 761.687 872.131 742.342C822.425 676.752 770.509 613.876 713.219 554.736Z"/>
	<path fill="#F56C54" transform="scale(0.482069 0.482069)" d="M685.417 1396.5L687.069 1396.44C687.312 1396.83 688.093 1397.8 688.161 1398.19C688.813 1401.95 688.165 1406.88 688.166 1410.8L688.178 1440.77L688.221 1554.03C682.637 1556.14 675.918 1556.37 670.026 1557.24L633.647 1562.64L630.731 1562.69C630.486 1562.43 629.317 1561.38 629.259 1561.14C628.612 1558.41 629.257 1553.97 629.256 1551.04L629.247 1523.01L629.21 1402.03L685.417 1396.5Z"/>
	<path fill="#F56C54" transform="scale(0.482069 0.482069)" d="M335.719 1395.99L395.022 1402.87L395.188 1562.9L335.75 1554.1L335.719 1395.99Z"/>
	<path fill="#02BA01" transform="scale(0.482069 0.482069)" d="M125.096 368.668L125.595 368.693C131.319 368.826 137.157 365.509 143.012 364.878C160.915 362.949 180.353 366.607 197.711 370.995C207.697 373.52 217.893 376.921 227.553 380.459L247.235 387.73C250.53 388.958 254.669 391.074 258.182 390.948C262.962 398.676 266.011 407.479 270.614 415.431C283.469 437.636 298.526 457.175 315.367 476.456L299.453 500.01L132.838 382.053C129.7 378.132 124.858 375.511 120.663 372.855C121.982 371.199 123.437 369.972 125.096 368.668Z"/>
	<path fill="#02BA01" transform="scale(0.482069 0.482069)" d="M782.849 591.313C776.24 582.66 767.118 574.552 759.578 566.597C791.199 554.338 818.179 537.602 843.978 515.637C877.047 517.853 909.627 521.981 940.506 534.688C951.439 539.187 963.222 544.92 971.267 553.858C972.114 554.799 973.265 556.339 973.575 557.562C970.997 558.01 968.395 558.202 966.239 559.788C964.749 562.295 961.936 563.075 959.299 564.208C948.682 568.768 936.88 571.715 925.683 574.569C901.313 580.78 876.07 584.805 851.224 588.585L821.936 593.387C816.339 594.083 791.841 595.471 788.88 597.811C786.368 596.211 784.672 593.628 782.849 591.313Z"/>
	<path fill="#075E05" transform="scale(0.482069 0.482069)" d="M966.239 559.788C964.749 562.295 961.936 563.075 959.299 564.208C948.682 568.768 936.88 571.715 925.683 574.569C901.313 580.78 876.07 584.805 851.224 588.585L821.936 593.387C816.339 594.083 791.841 595.471 788.88 597.811C786.368 596.211 784.672 593.628 782.849 591.313C844.113 582.071 906.376 576.32 966.239 559.788Z"/>
	<path fill="#C9B2AB" transform="scale(0.482069 0.482069)" d="M311.169 495.589C317.427 485.188 325.962 476.259 333.686 466.932L374.259 417.893L413.891 369.388C420.919 360.777 427.627 350.733 436.064 343.48L466.65 343.471L374.665 529.275C374.041 529.568 373.436 529.744 372.765 529.906C359.978 532.992 342.052 526.949 331.196 520.131C320.393 513.346 314.042 508.187 311.169 495.589Z"/>
	<path fill="#C9B2AB" transform="scale(0.482069 0.482069)" d="M652.313 528.097C649.355 524.525 647.068 519.482 644.727 515.44L629.72 488.012L603.826 439.646L557.281 343.335L586.961 343.426L655.124 427.331L684.641 459.659C695.805 471.371 710.54 483.258 717.857 497.568C713.909 508.204 705.481 521.188 694.667 526.035C681.801 531.801 665.824 530.091 652.313 528.097Z"/>
	<path fill="#02BA01" transform="scale(0.482069 0.482069)" d="M269.375 224.138C274.865 224.123 281.065 223.684 286.438 224.837C305.113 228.846 323.601 246.046 336.771 259.178C357.813 280.159 374.388 305.382 387.718 331.843L396.601 350.485C398.048 353.549 399.437 357.52 401.601 360.099L404.751 360.084C405.357 361.565 405.839 362.708 405.819 364.348C402.472 364.348 402.482 361.439 399.711 364.201C396.545 367.356 393.869 371.46 390.976 374.903L371.506 398.411C368.135 402.693 365.297 407.059 361.344 410.875C322.922 358.375 291.449 301.688 272.842 239.111C273.41 237.563 269.909 226.235 269.375 224.138Z"/>
	<path fill="#088603" transform="scale(0.482069 0.482069)" d="M259.222 225.999C262.801 226.216 265.981 225.129 269.375 224.138C269.909 226.235 273.41 237.563 272.842 239.111C272.612 244.348 273.936 248.404 275.291 253.411C277.906 263.075 281.303 272.443 285.039 281.722C296.485 310.155 308.843 337.991 324.814 364.222C335.75 382.185 348.555 398.665 360.275 416.056L324.47 462.545C298.213 434.474 276.519 402.492 262.798 366.425C255.086 346.154 250.125 324.984 245.881 303.744L245.075 288.765C244.258 267.491 243.893 242.552 259.222 225.999Z"/>
	<path fill="#02BA01" transform="scale(0.482069 0.482069)" d="M761.394 219.595L762.745 220.333C743.928 273.387 716.7 324.206 688.237 372.639C679.053 388.267 670.115 404.525 659.282 419.069L627.293 380.589C625.305 378.196 619.919 373.131 619.007 370.481C618.831 369.97 619.143 368.266 619.181 367.641C619.551 367.48 620.934 367.036 621.138 366.791C622.526 365.122 623.694 361.477 624.604 359.447L632.592 341.101C640.89 322.608 650.529 305.375 662.206 288.812C679.653 264.064 707.214 235.874 736.534 225.585C739.818 224.433 743.253 223.199 746.702 222.68C751.295 221.989 756.892 222.547 760.892 219.943L761.394 219.595Z"/>
	<path fill="#088603" transform="scale(0.482069 0.482069)" d="M114.862 392.797C114.961 385.306 117.297 379.441 120.663 372.855C124.858 375.511 129.7 378.132 132.838 382.053C133.074 382.609 133.37 383.709 133.728 384.146C135.41 386.194 139.761 388.378 142.064 390.072L173.959 413.225L271.682 483.339L292.944 498.585C294.303 499.554 298.034 501.457 298.81 502.6C298.899 502.731 298.73 502.908 298.69 503.062C296.019 513.412 296.168 519.956 300.655 529.885L289.003 542.312C282.734 542.038 276.357 541.796 270.21 540.439C258.152 537.777 246.911 533.111 235.756 527.937C192.936 508.076 157.978 474.94 134.309 434.258C129.755 426.43 125.494 418.352 121.97 410.002C119.439 404.007 118.414 398.44 114.862 392.797Z"/>
	<path fill="#C9B2AB" transform="scale(0.482069 0.482069)" d="M854.143 1347.82C833.794 1357.34 812.939 1363.18 791.665 1370.1L791.585 1182.03L852.153 1161.46L854.143 1347.82Z"/>
	<path fill="#088603" transform="scale(0.482069 0.482069)" d="M900.398 369.077C904.692 374.812 908.129 382.479 908.244 389.775L907.933 390.295C905.302 394.962 904.857 400.748 903.062 405.789C900.975 411.651 897.841 417.343 894.936 422.829C871.913 466.318 833.944 500.28 791.315 524.001C780.213 530.178 768.677 535.332 757.048 540.409C752.27 542.494 745.079 544.501 740.909 547.427L725.757 532.298C725.476 532.016 723.758 530.482 723.719 530.246C723.533 529.114 725.495 525.307 725.947 524.163C728.913 516.668 729.925 510.037 729.611 501.993L727.727 495.575L894.668 374.427L900.398 369.077Z"/>
	<path fill="#075E05" transform="scale(0.482069 0.482069)" d="M894.668 374.427C893.646 379.801 885.337 385.316 881.286 388.998C850.704 416.796 818.065 441.96 783.904 465.221L729.611 501.993L727.727 495.575L894.668 374.427Z"/>
	<path fill="#C9B2AB" transform="scale(0.482069 0.482069)" d="M468.235 538.204L501.863 343.157C508.697 343.581 515.263 343.776 522.094 343.22C525.385 356.671 527.273 370.533 529.771 384.157L544.574 468.566L551.482 509.421C553.033 518.82 555.036 528.928 554.833 538.486C551.27 543.842 547.26 548.47 541.903 552.105C531.391 559.238 515.897 562.107 503.439 559.675C487.321 556.529 478.258 551.189 468.235 538.204Z"/>
	<path fill="#C9B2AB" transform="scale(0.482069 0.482069)" d="M380.204 526.052L471.483 343.462L498.554 343.331L464.316 536.074C464.178 536.897 464.251 536.632 463.917 537.605C462.224 542.535 454.195 547.536 449.597 549.578C436.718 555.297 418.055 552.355 405.377 547.203C396.228 543.485 384.169 535.591 380.204 526.052Z"/>
	<path fill="#C9B2AB" transform="scale(0.482069 0.482069)" d="M559.203 537.652L525.829 343.319L553.006 343.268L648.084 530.566C630.846 543.77 610.45 557.255 587.653 554.283C576.603 552.843 566.332 546.117 559.203 537.652Z"/>
	<path fill="#088603" transform="scale(0.482069 0.482069)" d="M762.745 220.333L765.125 222.512C778.829 240.124 780.163 265.16 779.795 286.621C779.644 295.416 779.432 304.5 778.352 313.229L777.235 319.564L765.826 357.395C754.283 391.294 739.274 421.947 715.39 448.933C711.944 452.826 705.539 461.508 701.132 463.827L700.601 464.04L663.763 424.643C662.03 422.909 660.678 421.067 659.282 419.069C670.115 404.525 679.053 388.267 688.237 372.639C716.7 324.206 743.928 273.387 762.745 220.333Z"/>
	<path fill="#075E05" transform="scale(0.482069 0.482069)" d="M762.745 220.333L765.125 222.512C763.044 225.331 763.066 229.547 762.453 232.938C761.731 236.936 760.511 240.908 759.231 244.76C753.717 261.364 746.417 277.893 738.99 293.72C724.178 325.282 707.262 355.602 688.977 385.265L663.763 424.643C662.03 422.909 660.678 421.067 659.282 419.069C670.115 404.525 679.053 388.267 688.237 372.639C716.7 324.206 743.928 273.387 762.745 220.333Z"/>
	<path fill="#C9B2AB" transform="scale(0.482069 0.482069)" d="M166.934 1160.92L232.422 1180.74L233.134 1369.87L165.137 1346.77C168.116 1341.74 166.817 1180.21 166.934 1160.92Z"/>
	<path fill="#F56C54" transform="scale(0.482069 0.482069)" d="M236.516 1377.1L331.657 1395.64L331.626 1553.32L236.351 1524.61L236.516 1377.1Z"/>
	<path fill="#F56C54" transform="scale(0.482069 0.482069)" d="M783.795 1378.84C784.849 1378.52 786.146 1378.75 787.248 1378.8C788.763 1381.6 788.021 1387.28 788.024 1390.56L788.018 1422.12L788 1479.41C788.103 1494.32 788.852 1509.06 787.392 1523.93C757.74 1536.58 727.337 1545.12 696.026 1552.5L692.65 1552.39C691.048 1550.27 691.713 1546.37 691.706 1543.79L691.645 1516.03L691.557 1395.67L783.795 1378.84Z"/>
	<path fill="#B65951" transform="scale(0.482069 0.482069)" d="M401.491 1356.01L402.087 1360.68C403.519 1353.91 404.666 1347.05 406.763 1340.45C414.756 1315.28 430.9 1290.84 453.284 1276.25C477.502 1260.46 505.412 1254.54 533.875 1260.82C562.741 1267.2 586.073 1284.42 601.839 1309.28C607.982 1318.97 613.288 1330.13 616.771 1341.07C618.693 1347.11 618.871 1355.13 622.394 1360.4C623.858 1368.22 623.234 1376.5 623.235 1384.43L623.245 1423.16L623.274 1564.1L600.209 1566.29L600.552 1441.63L600.641 1394.08C600.643 1379 601.147 1363.75 597.374 1349.01C591.255 1325.11 575.897 1304.64 554.647 1292.17C535.16 1280.74 512.394 1276.17 490.337 1282.02C456.847 1290.89 431.135 1318.95 425.133 1353.18C423.103 1364.75 423.374 1376.66 423.412 1388.36L423.581 1430.5L423.875 1535.27C423.892 1541 425.226 1562.65 423.508 1565.62L400.758 1563.48L400.8 1416.18L400.706 1378.58C400.677 1371.23 399.975 1363.2 401.491 1356.01Z"/>
	<path fill="#FEF0E5" transform="scale(0.482069 0.482069)" d="M331.19 1088.65C340.926 1088.18 350.271 1089.98 358.718 1095.02C378.657 1106.91 389.406 1128.76 394.727 1150.6C402.358 1181.93 395.906 1218.5 379.203 1245.93C370.178 1260.76 357.931 1271.14 340.89 1275.31C330.893 1275.55 322.225 1274.82 313.349 1269.66C295.115 1259.04 282.97 1237.83 277.681 1217.87C269.575 1187.28 271.636 1148.9 287.973 1121.15C298.209 1103.77 311.642 1093.66 331.19 1088.65Z"/>
	<path transform="scale(0.482069 0.482069)" d="M330.583 1109.51C337.608 1109.16 345.368 1109.75 351.729 1112.97C366.19 1120.29 375.295 1135.36 380.116 1150.37C388.284 1175.79 386.807 1206.94 374.33 1230.72C367.436 1243.86 357.364 1254.04 342.887 1258.52C335.989 1259.47 328.904 1258.95 322.528 1256.1C308.791 1249.96 299.935 1236.31 294.861 1222.63C285.105 1196.33 285.272 1165.74 297.075 1140.11C304.478 1124.04 314.129 1115.6 330.583 1109.51Z"/>
	<path fill="#FEF0E5" transform="scale(0.482069 0.482069)" d="M681.468 1088.67C690.266 1087.77 698.497 1088.79 706.663 1092.3C724.341 1099.89 736.664 1118.4 743.369 1135.8C754.902 1165.72 755.229 1202.38 742.095 1231.87C732.331 1253.8 719.742 1267.15 696.946 1275.87C687.243 1276.98 677.593 1275.87 668.785 1271.52C650.532 1262.51 639.355 1243.13 633.191 1224.46C622.539 1192.19 624.094 1155 639.59 1124.54C648.878 1106.28 662.044 1094.99 681.468 1088.67Z"/>
	<path transform="scale(0.482069 0.482069)" d="M681.239 1108.73C689.951 1107.22 697.956 1109.04 705.577 1113.31C719.778 1121.26 729.197 1138.29 733.488 1153.52C740.441 1178.2 738.493 1209.51 725.794 1232.06C718.282 1245.4 708.369 1254.3 693.397 1258.5C685.926 1258.87 679.086 1258.26 672.26 1255.05C657.449 1248.08 648.763 1233.7 643.553 1218.78C634.737 1193.53 635.587 1162.23 647.516 1138.14C655.043 1122.93 665.222 1114.04 681.239 1108.73Z"/>
	<path fill="#811816" transform="scale(0.482069 0.482069)" d="M886.053 1471.29C896.315 1482.35 906.204 1498.83 905.407 1514.46C904.412 1533.96 892.241 1550.27 877.948 1562.54C869.238 1570.01 859.596 1575.75 849.672 1581.43C816.155 1600.62 778.307 1611.93 740.853 1620.54L698.22 1630.37C605.991 1647.77 509.743 1649.33 416.366 1641.93C374.486 1638.62 333.029 1632.51 292.082 1623.07C257.535 1615.1 223.779 1605.11 191.746 1589.74C172.73 1580.61 153.709 1569.93 139.683 1553.79C131.412 1544.27 126.079 1532.78 124.329 1520.27C125.253 1520.6 126.273 1520.35 127.063 1520.63C127.255 1520.69 128.874 1523.37 129.087 1523.68C134.024 1530.98 139.2 1537.1 145.739 1543.04C154.818 1551.29 165.593 1558.57 176.462 1564.27C230.624 1592.65 290.2 1605.7 350.36 1613.89C420.985 1623.51 493.167 1625.1 564.249 1620.25C627.121 1615.95 690.599 1606.49 750.892 1587.65C787.487 1576.22 825.2 1563.35 856.988 1541.43C868.702 1533.36 880.244 1523.98 886.863 1511.07C893.757 1497.62 890.316 1484.87 886.053 1471.29Z"/>
	<path fill="#FAA230" transform="scale(0.482069 0.482069)" d="M507.013 52.7691L509.193 51.0374C512.921 51.5372 515.696 55.4396 518.069 58.1456L532.748 75.8682C561.62 113.631 575.381 163.261 569.024 210.509L562.529 239.23L449.025 239.422C435.662 215.278 430.041 187.194 433.912 159.758C438.861 124.684 460.555 84.5311 488.936 63.0804C491.616 62.1852 493.684 60.4381 495.917 58.7615L498.225 59.4823C499.934 59.1591 505.312 54.0792 507.013 52.7691Z"/>
	<path fill="#FEF0E5" transform="scale(0.482069 0.482069)" d="M507.013 52.7691C506.306 59.2555 489.273 78.1029 484.691 84.8588C476.947 96.2775 469.914 107.986 464.093 120.52C457.082 135.614 451.66 151.976 448.746 168.377C447.199 177.079 446.464 185.83 445.878 194.641C445.689 197.479 446.27 204.593 445.13 206.863C436.936 172.822 439.911 136.276 458.35 105.983C468.845 88.7387 484.07 73.78 498.225 59.4823C499.934 59.1591 505.312 54.0792 507.013 52.7691Z"/>
	<path fill="#B65951" transform="scale(0.482069 0.482069)" d="M156.152 1470.11C195.043 1528.16 268.527 1547.67 333.423 1560.48C389.842 1571.61 446.713 1575.97 504.14 1576.46C578.785 1577.09 654.569 1570.84 726.975 1552.09C762.951 1542.78 800.163 1530.21 831.231 1509.36C850.88 1496.17 864.131 1480.03 874.869 1459.12C878.876 1462.84 883.251 1466.53 886.053 1471.29C890.316 1484.87 893.757 1497.62 886.863 1511.07C880.244 1523.98 868.702 1533.36 856.988 1541.43C825.2 1563.35 787.487 1576.22 750.892 1587.65C690.599 1606.49 627.121 1615.95 564.249 1620.25C493.167 1625.1 420.985 1623.51 350.36 1613.89C290.2 1605.7 230.624 1592.65 176.462 1564.27C165.593 1558.57 154.818 1551.29 145.739 1543.04C139.2 1537.1 134.024 1530.98 129.087 1523.68C128.874 1523.37 127.255 1520.69 127.063 1520.63C126.273 1520.35 125.253 1520.6 124.329 1520.27L124.296 1518.87C126.523 1514.43 126.528 1509.63 128.336 1505.08C134.081 1490.61 144.919 1480.39 156.152 1470.11Z"/>
	<path fill="#B65951" transform="scale(0.482069 0.482069)" d="M174.98 1087.99L176.714 1060.13C176.975 1057.53 176.957 1053.33 178.135 1051.07C182.479 1051.52 186.758 1051.93 191.125 1051.58C210.995 1049.96 224.847 1042.14 237.668 1026.97C238.702 1029.62 238.621 1032.82 239.22 1035.62C242.063 1048.91 250.544 1060.37 261.802 1067.79C273.846 1075.72 290.193 1079.04 304.334 1075.86C325.586 1071.1 337.675 1057.64 348.592 1040.03L350.648 1049.21C355.2 1065.94 363.557 1079.7 378.91 1088.4C391.665 1095.63 407.497 1097.55 421.598 1093.53C440.109 1088.25 449.306 1075.95 458.248 1060.01L460.729 1065.55C467.743 1080.47 477.819 1090.31 493.556 1095.73C508.173 1100.78 525.754 1099.1 539.434 1092.14C553.585 1084.94 560.896 1073.4 565.713 1058.82C568.645 1063.89 571.532 1069.09 575.17 1073.69C584.244 1085.18 597.1 1092.71 611.711 1094.45C627.887 1096.39 644.624 1092.23 657.393 1081.92C670.14 1071.62 675.272 1059.46 677.116 1043.54L680.761 1049.37C689.848 1063.25 702.167 1071.81 718.454 1075.12C733.127 1078.11 750.319 1074.16 762.669 1065.93C776.735 1056.56 782.199 1044.21 785.41 1028.17L797.059 1040.11C812.216 1052.92 827.816 1053.22 846.477 1051.59L848.26 1087.64C840.573 1088 832.363 1088.52 824.719 1087.54C811.246 1085.82 798.626 1079.22 787.066 1072.5C780.256 1087.99 772.963 1103.75 758.43 1113.62C753.771 1116.79 748.509 1118.79 743.876 1121.89C732.586 1103.06 719.646 1087.77 697.269 1082.37C685.376 1079.49 670.701 1084.35 660.699 1090.61C640.899 1102.99 629.187 1126.6 624.248 1148.75L622.89 1155.88C620.972 1170.21 620.68 1184.02 620.878 1198.44C548.495 1205.08 474.549 1206.4 402.177 1198.52C403.846 1185.33 403.631 1172.31 402.04 1159.13L397.602 1138.54C391.698 1119.39 378.466 1098.42 360.276 1089.01C347.308 1082.3 333.061 1080.65 319.115 1085.24C299.565 1091.68 287.166 1109.26 278.229 1126.75C258.269 1113.26 246.531 1092.65 235.813 1071.65C231.644 1077.52 228.444 1081.78 222.198 1085.63C206.625 1095.24 191.559 1092.16 174.98 1087.99Z"/>
	<path fill="#F56C54" transform="scale(0.482069 0.482069)" d="M402.04 1159.13C403.981 1154.78 414.086 1151.54 418.261 1148.99C422.256 1146.54 426.021 1143.6 429.725 1140.74C442.185 1131.12 451.144 1118.98 460.916 1106.91L467.783 1123.15C474.495 1136.51 485.249 1148.42 499.796 1153.07C510.412 1156.46 522.062 1155.05 531.843 1149.81C548.579 1140.86 555.351 1123.86 560.642 1106.73C572.429 1125.24 588.437 1139.14 608.369 1148.36C611.914 1150 615.696 1150.74 619.288 1152.18C621.789 1153.18 621.822 1153.5 622.89 1155.88C620.972 1170.21 620.68 1184.02 620.878 1198.44C548.495 1205.08 474.549 1206.4 402.177 1198.52C403.846 1185.33 403.631 1172.31 402.04 1159.13Z"/>
	<path fill="#C9580D" transform="scale(0.482069 0.482069)" d="M313.348 555.827L313.929 555.719C327.143 563.213 342.67 565.367 357.354 561.378L364.793 558.563C367.001 563.729 369.218 568.461 372.511 573.057L334.121 639.669L312.799 684.551L291.488 729.932C266.794 787.58 247.872 846.929 236.736 908.679C231.926 906.771 226.005 906.362 220.92 905.131L194.05 897.634C180.379 893.726 166.705 888.417 153.507 883.114C130.138 873.723 107.083 862.831 86.4564 848.274C89.5615 840.164 91.8019 832.172 95.7399 824.328C108.01 799.884 125.436 777.59 141.649 755.687C179.204 704.95 219.738 657.242 262.177 610.553L313.348 555.827Z"/>
	<path fill="#C9580D" transform="scale(0.482069 0.482069)" d="M712.679 554.451L713.219 554.736C770.509 613.876 822.425 676.752 872.131 742.342C886.791 761.687 901.864 780.482 915.158 800.843C925.049 815.992 933.569 830.596 938.242 848.224C916.464 864.19 893.15 875.956 868.192 886.081C842.1 896.667 815.348 905.164 786.948 905.982L770.1 834.25C749.633 761.332 719.034 690.877 681.871 624.952L644.949 564.383C645.882 561.139 648.585 557.863 650.455 555.029C661.441 562.813 672.364 567.129 685.891 566.798C696.854 566.53 705.143 562.327 712.679 554.451Z"/>
	<path fill="#811816" transform="scale(0.482069 0.482069)" d="M503.871 1286.36L511.167 1286.12C531.755 1286.35 553.333 1296.03 567.819 1310.64C579.117 1322.03 587.595 1336.37 591.319 1352.04C594.376 1364.9 594.085 1378.11 594.083 1391.24L594.069 1433.88L593.979 1566.82L521.165 1567.14L430.614 1566.81L430.346 1435.25L429.909 1388.45C429.855 1377.35 429.406 1365.83 431.428 1354.87C433.801 1341.99 439.515 1329.43 447.412 1319C461.639 1300.21 480.468 1289.52 503.871 1286.36Z"/>
	<path transform="scale(0.482069 0.482069)" d="M460.617 1407.12C466.424 1406.7 471.26 1406.79 476.579 1409.42C483.487 1412.84 488.769 1418.44 491.178 1425.8C493.683 1433.45 493.069 1441.87 489.294 1448.99C485.154 1456.81 478.566 1461.13 470.378 1463.76C464.83 1464.59 458.502 1464.09 453.361 1461.68C445.727 1458.1 441.684 1452.22 438.91 1444.45C436.955 1438.97 436.549 1431.28 438.747 1425.8L440.317 1422.17C445.235 1413.02 451.052 1409.89 460.617 1407.12Z"/>
	<path fill="#F7DE07" transform="scale(0.482069 0.482069)" d="M460.085 1412.81C463.808 1412.52 468.392 1412.09 471.913 1413.51L472.84 1413.92C478.914 1416.57 483.133 1421.8 485.491 1427.91C487.793 1433.87 486.455 1440.74 483.91 1446.4C481.241 1452.35 475.72 1455.58 469.861 1457.72C466.001 1458.3 461.962 1458.27 458.186 1457.19C452.497 1455.57 448.483 1451.58 445.78 1446.41C442.836 1440.78 442.317 1433.58 444.384 1427.56C447.063 1419.74 452.969 1416.2 460.085 1412.81Z"/>
	<path fill="#C9580D" transform="scale(0.482069 0.482069)" d="M472.319 582.658C478.721 587.72 486.245 591.339 494.072 593.575C507.779 597.491 526.989 597.384 539.645 589.976C543.169 587.914 545.5 583.946 548.922 582.193L549.764 581.786C563.582 636.828 574.606 692.499 582.383 748.727L599.222 937.873C577.133 941.359 554.035 945.28 531.73 946.666C496.685 948.844 459.679 945.502 425.376 938.131L430.954 853.29L437.478 775.223C445.469 710.178 458.274 646.595 472.319 582.658Z"/>
	<path fill="#C9580D" transform="scale(0.482069 0.482069)" d="M466.696 567.812C467.265 568.671 468.78 570.448 469.052 571.362C469.461 572.74 467.532 580.108 467.177 581.844L459.762 612.057L445.802 681.719C430.955 766.306 423.311 852.249 419.114 937.98C414.909 937.521 410.036 938.051 405.776 938.126C392.764 938.358 379.55 939.496 366.56 939.097C330.93 938.002 293.323 929.395 260.063 916.645C253.596 914.166 247.727 912.66 241.948 908.658C262.37 790.299 315.796 678.036 377.221 575.746C381.401 579.301 385.553 583.223 390.353 585.928C401.36 592.132 413.387 593.334 425.764 592.688C443.739 591.752 455.345 580.461 466.696 567.812Z"/>
	<path fill="#C9580D" transform="scale(0.482069 0.482069)" d="M556.872 567.72L559.492 564.403C563.734 565.819 567.4 570.718 571.236 573.29C586.541 583.552 608.967 585.799 625.66 577.702C630.61 575.301 635.332 569.908 640.312 568.457C641.465 569.787 642.738 571.058 643.586 572.605C695.226 654.744 738.597 741.607 765.169 835.287C772.064 859.596 777.128 883.915 781.713 908.736C731.637 930.285 679.111 941.109 624.482 939.004C617.984 938.754 611.375 937.683 604.885 937.089C600.564 854.409 593.786 772.195 579.26 690.595L562.212 609.035C559.369 596.845 554.863 584.589 553.214 572.195L556.872 567.72Z"/>
	<path fill="#811816" transform="scale(0.482069 0.482069)" d="M556.872 567.72L559.492 564.403C563.734 565.819 567.4 570.718 571.236 573.29C586.541 583.552 608.967 585.799 625.66 577.702C630.61 575.301 635.332 569.908 640.312 568.457C641.465 569.787 642.738 571.058 643.586 572.605L637.813 578.441C627.678 587.751 612.974 592.447 599.29 591.843C581.808 591.072 568.179 580.079 556.872 567.72Z"/>
	<path fill="#C9B2AB" transform="scale(0.482069 0.482069)" d="M236.654 1181.7L267.386 1188.08C269.181 1208.39 272.394 1228.77 282.871 1246.63C291.591 1261.48 305.23 1276.28 322.494 1280.6C335.335 1283.81 348.319 1282.01 359.664 1275.17C383.983 1260.49 395.104 1230.78 401.422 1204.6C406.625 1203.77 414.03 1205.83 419.49 1206.22L482.776 1209.99C529.412 1211.11 575.635 1208.19 622.064 1204.25C625.088 1222.77 630.822 1240.97 642.272 1256.1C652.118 1269.12 666.442 1280.58 683.11 1282.51C695.955 1284 709.563 1279.4 719.688 1271.56C745.769 1251.34 753.674 1220.89 757.562 1189.73L787.408 1183.01L787.573 1361.72L787.494 1369.85C782.337 1374.16 771.284 1374.95 764.754 1376.33C719.878 1385.82 675.293 1391.68 629.514 1394.63L629.575 1382.04C629.31 1341.99 621.992 1307.16 592.362 1278.06C570.725 1256.81 540.832 1245.12 510.58 1245.47C482.024 1245.8 453.153 1257.22 433.045 1277.78C414.072 1297.17 399.576 1322.5 396.047 1349.73C394.059 1365.07 394.829 1380.87 394.967 1396.29L236.662 1370.5L236.654 1181.7Z"/>
</svg>
