<svg xmlns="http://www.w3.org/2000/svg" width="800" height="1600" viewBox="0 0 800 1600"><rect x="0" y="0" width="800" height="1600" rx="0" fill="#131317"/><rect x="4" y="4" width="792" height="56" rx="8" fill="#1C1B20" stroke="#2F2E34" stroke-width="1"/><rect x="16" y="14" width="150" height="36" rx="8" fill="#232228"/><rect x="26" y="23" width="18" height="18" rx="4.5" fill="#009FFF"/><rect x="52" y="28" width="92" height="8" rx="4" fill="#D9D7DD"/><path d="M179 26 L185 32 L179 38" fill="none" stroke="#55545B" stroke-width="2" stroke-linecap="round" stroke-linejoin="round"/><rect x="198" y="14" width="128" height="36" rx="8" fill="#232228"/><rect x="208" y="24" width="16" height="16" rx="4" fill="#8A8990"/><rect x="232" y="28" width="76" height="8" rx="4" fill="#D9D7DD"/><line x1="757" y1="26" x2="775" y2="26" stroke="#D9D7DD" stroke-width="2" stroke-linecap="round"/><line x1="757" y1="32" x2="775" y2="32" stroke="#D9D7DD" stroke-width="2" stroke-linecap="round"/><line x1="757" y1="38" x2="775" y2="38" stroke="#D9D7DD" stroke-width="2" stroke-linecap="round"/><rect x="8" y="68" width="784" height="1316" rx="12" fill="#1C1B20" stroke="#2F2E34" stroke-width="1"/><defs><clipPath id="clip6"><rect x="9" y="69" width="782" height="1314" rx="11"/></clipPath></defs><g clip-path="url(#clip6)"><defs><pattern id="dots5" x="9" y="69" width="50" height="50" patternUnits="userSpaceOnUse"><circle cx="25" cy="25" r="2" fill="#45464E" opacity="0.55"/></pattern></defs><rect x="9" y="69" width="782" height="1314" fill="url(#dots5)"/></g><path d="M400 236 L194.79 363.77 M194.79 363.77 L200.22 349.79 M194.79 363.77 L209.73 365.07" fill="none" stroke="#FF9800" stroke-width="3" stroke-linecap="round" stroke-linejoin="round"/><path d="M400 236 L605.21 363.77 M605.21 363.77 L590.27 365.07 M605.21 363.77 L599.78 349.79" fill="none" stroke="#FF9800" stroke-width="3" stroke-linecap="round" stroke-linejoin="round"/><path d="M188 456 L188 600 M188 600 L179 588 M188 600 L197 588" fill="none" stroke="#2196F3" stroke-width="3" stroke-linecap="round" stroke-linejoin="round"/><path d="M612 456 L612 600 M612 600 L603 588 M612 600 L621 588" fill="none" stroke="#2196F3" stroke-width="3" stroke-linecap="round" stroke-linejoin="round"/><path d="M188 696 L393.5 843.34 M393.5 843.34 L378.5 843.66 M393.5 843.34 L388.99 829.03" fill="none" stroke="#9C27B0" stroke-width="3" stroke-linecap="round" stroke-linejoin="round"/><path d="M612 696 L406.5 843.34 M406.5 843.34 L411.01 829.03 M406.5 843.34 L421.5 843.66" fill="none" stroke="#FF4081" stroke-width="3" stroke-linecap="round" stroke-linejoin="round"/><path d="M400 936 L400 1080 M400 1080 L391 1068 M400 1080 L409 1068" fill="none" stroke="#2196F3" stroke-width="3" stroke-linecap="round" stroke-linejoin="round"/><rect x="300" y="148" width="200" height="88" rx="10" fill="#2C2B31" stroke="#2F2E34" stroke-width="1"/><rect x="300" y="148" width="200" height="42" rx="10" fill="#FF9800"/><rect x="300" y="180" width="200" height="1" rx="0" fill="#FF9800"/><rect x="300" y="180" width="200" height="56" rx="0" fill="#2C2B31" opacity="0"/><path d="M300 158 a10 10 0 0 1 10 -10 h180 a10 10 0 0 1 10 10 v22 h-200 z" fill="#FF9800"/><rect x="312" y="157" width="14" height="14" rx="3.5" fill="#FFFFFF" opacity="0.92"/><rect x="334" y="160" width="92" height="8" rx="4" fill="#FFFFFF" opacity="0.92"/><rect x="314" y="194" width="112" height="8" rx="4" fill="#5A595F"/><rect x="314" y="210" width="34" height="14" rx="7" fill="#FF9800" opacity="0.3"/><rect x="322" y="214" width="18" height="6" rx="3" fill="#FF9800" opacity="0.95"/><rect x="354" y="210" width="46" height="14" rx="7" fill="#FF9800" opacity="0.3"/><rect x="362" y="214" width="30" height="6" rx="3" fill="#FF9800" opacity="0.95"/><rect x="88" y="368" width="200" height="88" rx="10" fill="#2C2B31" stroke="#2F2E34" stroke-width="1"/><rect x="88" y="368" width="200" height="42" rx="10" fill="#2196F3"/><rect x="88" y="400" width="200" height="1" rx="0" fill="#2196F3"/><rect x="88" y="400" width="200" height="56" rx="0" fill="#2C2B31" opacity="0"/><path d="M88 378 a10 10 0 0 1 10 -10 h180 a10 10 0 0 1 10 10 v22 h-200 z" fill="#2196F3"/><rect x="100" y="377" width="14" height="14" rx="3.5" fill="#FFFFFF" opacity="0.92"/><rect x="122" y="380" width="92" height="8" rx="4" fill="#FFFFFF" opacity="0.92"/><rect x="102" y="414" width="100" height="8" rx="4" fill="#5A595F"/><rect x="102" y="430" width="68" height="8" rx="4" fill="#3B3A41"/><rect x="512" y="368" width="200" height="88" rx="10" fill="#2C2B31" stroke="#2F2E34" stroke-width="1"/><rect x="512" y="368" width="200" height="42" rx="10" fill="#2196F3"/><rect x="512" y="400" width="200" height="1" rx="0" fill="#2196F3"/><rect x="512" y="400" width="200" height="56" rx="0" fill="#2C2B31" opacity="0"/><path d="M512 378 a10 10 0 0 1 10 -10 h180 a10 10 0 0 1 10 10 v22 h-200 z" fill="#2196F3"/><rect x="524" y="377" width="14" height="14" rx="3.5" fill="#FFFFFF" opacity="0.92"/><rect x="546" y="380" width="92" height="8" rx="4" fill="#FFFFFF" opacity="0.92"/><rect x="526" y="414" width="112" height="8" rx="4" fill="#5A595F"/><rect x="526" y="430" width="34" height="14" rx="7" fill="#2196F3" opacity="0.3"/><rect x="534" y="434" width="18" height="6" rx="3" fill="#2196F3" opacity="0.95"/><rect x="509" y="365" width="206" height="94" rx="13" fill="none" stroke="#FFFFFF" stroke-width="2.5" opacity="0.9"/><rect x="88" y="608" width="200" height="88" rx="10" fill="#2C2B31" stroke="#2F2E34" stroke-width="1"/><rect x="88" y="608" width="200" height="42" rx="10" fill="#9C27B0"/><rect x="88" y="640" width="200" height="1" rx="0" fill="#9C27B0"/><rect x="88" y="640" width="200" height="56" rx="0" fill="#2C2B31" opacity="0"/><path d="M88 618 a10 10 0 0 1 10 -10 h180 a10 10 0 0 1 10 10 v22 h-200 z" fill="#9C27B0"/><rect x="100" y="617" width="14" height="14" rx="3.5" fill="#FFFFFF" opacity="0.92"/><rect x="122" y="620" width="92" height="8" rx="4" fill="#FFFFFF" opacity="0.92"/><rect x="102" y="654" width="124" height="8" rx="4" fill="#5A595F"/><rect x="102" y="670" width="68" height="8" rx="4" fill="#3B3A41"/><rect x="512" y="608" width="200" height="88" rx="10" fill="#2C2B31" stroke="#2F2E34" stroke-width="1"/><rect x="512" y="608" width="200" height="42" rx="10" fill="#FF4081"/><rect x="512" y="640" width="200" height="1" rx="0" fill="#FF4081"/><rect x="512" y="640" width="200" height="56" rx="0" fill="#2C2B31" opacity="0"/><path d="M512 618 a10 10 0 0 1 10 -10 h180 a10 10 0 0 1 10 10 v22 h-200 z" fill="#FF4081"/><rect x="524" y="617" width="14" height="14" rx="3.5" fill="#FFFFFF" opacity="0.92"/><rect x="546" y="620" width="92" height="8" rx="4" fill="#FFFFFF" opacity="0.92"/><rect x="526" y="654" width="112" height="8" rx="4" fill="#5A595F"/><rect x="526" y="670" width="34" height="14" rx="7" fill="#FF4081" opacity="0.3"/><rect x="534" y="674" width="18" height="6" rx="3" fill="#FF4081" opacity="0.95"/><rect x="566" y="670" width="46" height="14" rx="7" fill="#FF4081" opacity="0.3"/><rect x="574" y="674" width="30" height="6" rx="3" fill="#FF4081" opacity="0.95"/><rect x="300" y="848" width="200" height="88" rx="10" fill="#2C2B31" stroke="#2F2E34" stroke-width="1"/><rect x="300" y="848" width="200" height="42" rx="10" fill="#2196F3"/><rect x="300" y="880" width="200" height="1" rx="0" fill="#2196F3"/><rect x="300" y="880" width="200" height="56" rx="0" fill="#2C2B31" opacity="0"/><path d="M300 858 a10 10 0 0 1 10 -10 h180 a10 10 0 0 1 10 10 v22 h-200 z" fill="#2196F3"/><rect x="312" y="857" width="14" height="14" rx="3.5" fill="#FFFFFF" opacity="0.92"/><rect x="334" y="860" width="92" height="8" rx="4" fill="#FFFFFF" opacity="0.92"/><rect x="314" y="894" width="90" height="8" rx="4" fill="#5A595F"/><rect x="314" y="910" width="68" height="8" rx="4" fill="#3B3A41"/><rect x="300" y="1088" width="200" height="88" rx="10" fill="#2C2B31" stroke="#2F2E34" stroke-width="1"/><rect x="300" y="1088" width="200" height="42" rx="10" fill="#9C27B0"/><rect x="300" y="1120" width="200" height="1" rx="0" fill="#9C27B0"/><rect x="300" y="1120" width="200" height="56" rx="0" fill="#2C2B31" opacity="0"/><path d="M300 1098 a10 10 0 0 1 10 -10 h180 a10 10 0 0 1 10 10 v22 h-200 z" fill="#9C27B0"/><rect x="312" y="1097" width="14" height="14" rx="3.5" fill="#FFFFFF" opacity="0.92"/><rect x="334" y="1100" width="92" height="8" rx="4" fill="#FFFFFF" opacity="0.92"/><rect x="314" y="1134" width="112" height="8" rx="4" fill="#5A595F"/><rect x="314" y="1150" width="34" height="14" rx="7" fill="#9C27B0" opacity="0.3"/><rect x="322" y="1154" width="18" height="6" rx="3" fill="#9C27B0" opacity="0.95"/><circle cx="744" cy="1332" r="26" fill="#009FFF"/><line x1="735" y1="1332" x2="753" y2="1332" stroke="#FFFFFF" stroke-width="2.5" stroke-linecap="round"/><line x1="744" y1="1323" x2="744" y2="1341" stroke="#FFFFFF" stroke-width="2.5" stroke-linecap="round"/><rect x="0" y="1400" width="800" height="200" rx="16" fill="#1C1B20" stroke="#45464E" stroke-width="1"/><rect x="0" y="1416" width="800" height="184" rx="0" fill="#1C1B20"/><rect x="376" y="1410" width="48" height="5" rx="2.5" fill="#45464E"/><rect x="24" y="1434" width="260" height="14" rx="7" fill="#2196F3"/><rect x="24" y="1456" width="160" height="7" rx="3.5" fill="#55545B"/><line x1="24" y1="1476" x2="776" y2="1476" stroke="#2F2E34" stroke-width="1" stroke-linecap="round"/><rect x="24" y="1496" width="84" height="8" rx="4" fill="#8A8990"/><rect x="24" y="1512" width="752" height="36" rx="8" fill="#232228" stroke="#2F2E34" stroke-width="1"/><rect x="36" y="1526" width="413.6" height="8" rx="4" fill="#D9D7DD"/><rect x="704" y="1430" width="72" height="30" rx="8" fill="#009FFF"/><rect x="716" y="1441" width="48" height="8" rx="4" fill="#FFFFFF" opacity="0.95"/></svg>