<?xml version="1.0" encoding="utf-8" ?>
<svg xmlns="http://www.w3.org/2000/svg" xmlns:xlink="http://www.w3.org/1999/xlink" width="503" height="503">
	<path transform="scale(0.491795 0.491795)" d="M1024 754.811L1024 1024L-0 1024L0 -0L1024 0L1024 719.963L1024 754.811ZM1024 754.811C1022.51 757.962 1021.88 761.667 1021.03 765.047C1019.9 769.538 1018.63 773.925 1016.96 778.25C1008.06 801.355 993.791 819.956 977.831 838.475C984.465 843.995 991.633 849.327 996.832 856.285C1003.49 865.199 1007.39 875.198 1005.74 886.47C1003.35 902.724 991.354 914.557 978.695 923.933C966.332 933.09 951.906 940.141 937.764 946.064C919.017 953.916 899.863 960.078 880.25 965.366C813.656 983.322 744.218 992.757 675.457 997.286L635.911 998.75L577.054 1000.74L497.579 1003.43L409 1001.33C347.416 998.659 285.592 992.764 224.64 983.56C177.078 976.378 128.335 965.697 84.1351 946.327C62.4326 936.817 39.3095 925.01 24.9929 905.355C19.0052 897.135 15.6126 887.542 17.2657 877.301L17.4012 876.5C19.4076 863.559 27.3271 853.162 36.5269 844.322L22.3658 825.031C15.7442 815.97 8.67958 806.853 4.81779 796.195C2.37149 789.444 1.44094 782.738 1.13038 775.604C0.546939 762.202 5.47719 747.858 14.75 738.095C21.0222 731.491 29.6823 727.611 38.7895 727.433C55.0208 727.115 70.19 735.417 81.7047 746.361L79.7357 729.639C78.3736 712.57 79.2282 691.227 91.0655 677.644C97.05 670.777 104.804 666.523 113.985 665.886C126.453 665.02 135.858 671.259 144.879 679.01L144.957 639.949C144.961 638.756 145.409 632.51 144.986 631.801C144.483 630.96 136.137 628.205 134.633 627.512C128.126 624.515 122.132 621.213 117.132 615.997C106.918 605.344 108.752 588.349 109.024 574.844C94.3207 581.673 80.7862 585.781 64.3342 584.394C50.8385 583.255 35.1513 576.376 26.4192 565.862C20.6069 558.864 19.6144 551.253 20.5611 542.487C21.5387 533.436 25.2103 524.47 29.2091 516.377C48.4266 477.484 83.5182 450.247 116.362 423.407L161.746 385.663L211.671 340.796L259.25 297.344L343.057 209.355L372.409 174.617L412.685 121.66L438.158 85.9026C448.834 71.0303 459.845 56.0877 474.122 44.4388C486.013 34.7369 501.009 26.4804 516.953 28.5604C531.046 30.3988 543.153 38.8087 553.416 48.0954C574.766 67.4124 590.267 91.938 606.926 115.151L642.047 162.663C634.615 126.076 641.352 90.0124 658.194 57.0659C682.935 69.1648 702.212 86.3044 720.811 106.325C723.689 99.2308 726.338 92.1485 729.702 85.25C741.142 61.7924 757.397 40.6353 780.198 27.3388C796.142 52.3168 807.915 77.8066 814.443 106.815L818.684 130.119L828.648 122.165C853.717 103.386 886.076 90.0406 917.595 89.1222C922.147 88.9896 926.816 88.7539 931.336 89.3795C934.898 117.133 929.048 144.595 918.832 170.394L908.817 192.431C932.164 190.864 954.57 200.046 974.647 211.023C967.237 227.158 958.261 240.279 946.904 253.782C964.411 264.862 981.694 276.72 995.29 292.551C982.244 305.377 968.232 317.022 953.261 327.541L940.086 336.317C937.484 337.955 934.124 339.579 931.928 341.698C949.564 350.196 965.573 361.851 978.099 376.991C982.06 381.779 985.68 386.481 988.086 392.25L987.733 392.654C983.378 397.15 976.344 401.337 970.823 404.283C960.53 409.776 949.511 414.389 938.018 416.66C928.06 418.628 918.106 418.927 907.998 418.984C915.37 423.347 922.435 430.743 928.78 436.512C948.173 454.146 966.68 472.883 981.76 494.409C989.767 505.839 996.948 518.124 1000.97 531.566C1003.79 541.005 1005.4 551.777 1000.48 560.789C994.422 571.904 981.139 578.638 969.419 581.989C950.637 587.361 931.757 582.855 915.01 573.592C915.615 584.755 917.173 598.154 911.967 608.476C906.167 619.975 890.117 626.96 878.497 630.909L878.487 669.855L898.186 650.45C906.188 643.429 928.136 626.083 938.891 627.404C941.414 627.714 943.508 629.864 944.913 631.83C947.177 634.996 948.567 639.064 949.984 642.664C955.856 657.588 959.907 675.327 959.316 691.472C959.012 699.779 957.204 707.758 955.675 715.889C965.113 708.323 975.373 700.689 987.56 698.49C990.318 697.992 993.02 697.553 995.833 697.52C1002.99 697.436 1010.41 700.47 1015.5 705.463C1019.61 709.492 1021.63 714.848 1024 719.963L1024 0L-0 -0L0 1024L1024 1024L1024 754.811Z"/>
	<path fill="#FAA230" transform="scale(0.491795 0.491795)" d="M498.125 228.986L525.641 229.502L525.944 230.003C526.63 231.738 526.534 235.067 526.759 236.979L529.66 261.365C529.834 262.852 530.882 267.358 530.476 268.5C530.362 268.819 530.124 269.079 529.948 269.369L526.373 269.496L493.345 269.164L498.125 228.986Z"/>
	<path fill="#8D632F" transform="scale(0.491795 0.491795)" d="M842.469 622.662C861.867 617.626 878.876 607.638 889.27 589.938C894.135 581.652 896.464 572.882 898.757 563.658L906.104 570.01L906.229 586.016C906.346 594.886 907.691 603.241 900.559 610.063C894.679 615.688 884.174 619.244 876.713 622.358C870.777 624.836 864.204 627.961 857.91 629.272L857.656 628.515L855 629.378C853.528 630.061 851.589 630.55 850.003 631.003L849 631.255L848.255 631.75C844.264 631.616 846.856 629.394 844.578 627.431L844.346 626.715C842.845 626.008 842.185 625.714 840.509 625.826C839.613 625.886 838.272 624.848 836.979 624.704L836.777 624.267L842.217 623.455L842.469 622.662Z"/>
	<path fill="#811816" transform="scale(0.491795 0.491795)" d="M870.754 825.939C871.434 833.673 870.935 841.729 870.94 849.504C870.946 860.176 871.945 871.712 870.025 882.25C867.439 896.45 858.942 906.901 847.25 914.839L846.178 914.662L846.152 842.722C855.782 837.931 862.904 833.324 870.754 825.939Z"/>
	<path fill="#811816" transform="scale(0.491795 0.491795)" d="M152.974 825.007C160.68 831.542 169.516 836.358 178.52 840.809L177.994 913.25L177.414 913.843C174.549 912.905 171.487 909.767 169.378 907.638C160.156 898.326 154.326 886.256 153.083 873.19C152.524 867.312 152.957 861.273 152.968 855.369L152.974 825.007Z"/>
	<path fill="#FAA230" transform="scale(0.491795 0.491795)" d="M662.143 201.003L689.91 233.757C675.97 244.138 657.668 249.103 641.233 254.016L634.622 255.825L613.922 218.015L662.143 201.003Z"/>
	<path fill="#FAA230" transform="scale(0.491795 0.491795)" d="M361.105 201.804L411.523 217.454L390.037 254.831L383.75 253L331.181 235.342C333.801 231.327 337.784 227.77 341.006 224.202L361.105 201.804Z"/>
	<path fill="#FAA230" transform="scale(0.491795 0.491795)" d="M416.475 218.41C424.343 221.077 432.8 222.103 440.991 223.304L492.686 228.546L488.04 269.037L472.378 267.907L395.483 256.378C403.056 243.899 410.786 231.922 416.475 218.41Z"/>
	<path fill="#FAA230" transform="scale(0.491795 0.491795)" d="M605.856 219.617L607.75 219.338C608.077 219.475 608.474 219.506 608.732 219.75C609.148 220.143 609.635 221.678 609.903 222.255L613.512 230L628.484 257.119C626.372 257.873 623.788 258.015 621.558 258.353L609.196 260.218L554.508 268.434L535.904 269.527L531.358 229.039L605.856 219.617Z"/>
	<path fill="#E46601" transform="scale(0.491795 0.491795)" d="M151.946 457.588L188.921 467.325C176.428 477.918 163.944 489.13 153.744 502.018C140.602 518.622 131.374 538.585 116.02 553.334C107.839 561.194 98.5701 566.712 88.0754 570.935C88.0436 566.691 87.8319 562.319 88.4004 558.107C92.246 529.622 109.75 504.765 128.03 483.5L136.188 473.677L151.946 457.588Z"/>
	<path fill="#14BA1E" transform="scale(0.491795 0.491795)" d="M231.009 975.399C227.21 975.708 223.058 974.715 219.328 973.999L203.391 971.01C170.44 964.771 137.969 957.605 106.316 946.31C90.6334 940.714 75.3096 934.443 61.076 925.71C46.9899 917.068 29.7668 904.632 25.9691 887.544C24.0511 878.914 26.5128 869.996 31.318 862.747C37.8254 852.93 47.2955 845.411 56.895 838.803C75.5124 825.987 95.8935 816.473 117 808.51C126.028 805.104 134.906 801.703 144.379 799.725L144.496 805.566L111.361 820.436C92.9428 829.474 69.6055 841.134 58.25 858.946C53.2591 866.775 49.9549 876.543 51.9128 885.917L52.3157 887.574L52.5059 888.368C56.3377 903.797 73.3923 916.845 86.5086 924.605C106.073 936.18 127.021 944.968 148.587 952.063L193.507 965.211L216.084 971.141C220.497 972.239 227.583 972.506 231.009 975.399Z"/>
	<path fill="#C9B2AB" transform="scale(0.491795 0.491795)" d="M867.62 635.25C868.592 635.033 868.764 635.038 869.679 635.25C870.63 639.388 869.952 645.12 869.953 649.42L869.951 681.29L869.888 815.332C864.42 824.631 856.749 829.643 847.537 834.75L846.394 835.341L845.661 834.955L845.262 642.244L867.62 635.25Z"/>
	<path fill="#B65951" transform="scale(0.491795 0.491795)" d="M152.653 634.218L179.433 643.371L178.892 833.518C169.773 827.614 160.9 822.054 152.821 814.702L152.653 634.218Z"/>
	<path fill="#FAA230" transform="scale(0.491795 0.491795)" d="M173.082 386.928L260.777 410.979L198.25 460.096L194.8 462.881C188.91 461.928 182.957 459.81 177.181 458.26L155.016 452.216L112.691 437.536L173.082 386.928Z"/>
	<path fill="#FAA230" transform="scale(0.491795 0.491795)" d="M849.653 381.526L865.67 393.875L892.975 416.455C899.436 421.765 906.094 426.919 911.971 432.884L911.945 433.361C902.389 437.773 892.378 441.008 882.447 444.466C864.329 450.776 845.967 457.001 827.158 460.903L764.02 409.795C782.851 404.887 801.49 400.424 819.948 394.147C830.285 390.631 840.166 386.97 849.653 381.526Z"/>
	<path fill="#028446" transform="scale(0.491795 0.491795)" d="M940.694 259.724C945.61 261.797 949.995 264.905 954.414 267.859C965.015 274.947 974.866 282.812 984.345 291.324C968.245 307.796 950.059 320.28 931 332.996C929.246 334.166 925.074 337.979 923.213 338.348C922.366 338.516 906.739 333.539 903.752 332.93C881.678 328.433 859.663 331.386 838.419 338.273L819.764 346.501L794.891 326.108C804.376 323.371 814.768 322.729 824.452 320.327C860.409 311.411 896.244 296.952 925.362 273.63C930.699 269.356 935.674 264.373 940.694 259.724Z"/>
	<path fill="#FAA230" transform="scale(0.491795 0.491795)" d="M754.122 412.18L756.25 411.868L820.826 462.537C818.593 463.652 815.446 463.95 813 464.473L796.5 467.971L732.114 481.579L710.076 484.686C697.192 464.306 684.02 444.929 668.155 426.697C669.628 425.595 745.708 413.47 754.122 412.18Z"/>
	<path fill="#FAA230" transform="scale(0.491795 0.491795)" d="M267.137 412.386L352.24 426.234L312.959 484.526C310.296 484.759 307.178 484.027 304.542 483.622L290.611 481.617L201.028 464.478L267.137 412.386Z"/>
	<path fill="#B65951" transform="scale(0.491795 0.491795)" d="M402.946 207.297C390.636 204.789 377.628 200.38 366.204 195.261L409.425 140.509L437.281 101.228C450.191 82.8891 462.905 63.2628 481.035 49.5864C485.429 46.2718 489.75 43.1796 494.815 40.9485C507.483 35.3678 517.741 36.6812 530.384 41.5857C522.992 47.0254 515.378 52.6386 508.728 58.9706C489.484 77.294 475.221 99.2974 461.072 121.578L429.991 170.5L411.688 196.424C408.849 200.133 405.606 203.433 402.946 207.297Z"/>
	<path fill="#14BA1E" transform="scale(0.491795 0.491795)" d="M876.772 339.212C884.188 338.727 892.19 339.102 899.523 340.319C932.087 345.724 958.644 363.059 977.731 389.769C962.179 400.947 946.765 407.188 927.96 410.406L924.22 410.975C919.089 411.426 914.046 411.055 908.923 410.762C905.853 410.587 902.392 410.544 899.5 409.43C893.817 407.242 888.292 401.507 883.547 397.659L861.292 379.771L825.83 352.246C842.485 344.477 858.485 340.312 876.772 339.212Z"/>
	<path fill="#E46601" transform="scale(0.491795 0.491795)" d="M361.388 253.844L386.083 260.814C368.122 289.464 348.773 317.128 326.93 342.977L304.703 367.213L267.348 406.43L221.372 395.163C224.534 391.779 228.162 388.969 231.627 385.928L243.488 374.43L250.608 368.115L307.374 311.364C325.959 292.764 344.981 274.436 361.388 253.844Z"/>
	<path fill="#FAA230" transform="scale(0.491795 0.491795)" d="M464.099 434.701L559.933 434.706L574.734 496.738L563.244 496.966L450.19 496.467L464.099 434.701Z"/>
	<path fill="#FAA230" transform="scale(0.491795 0.491795)" d="M658.78 427.741L659.245 427.699C663.667 430.146 667.19 434.686 670.49 438.44C683.073 452.753 694.562 468.301 703.011 485.44L608.878 494.634L580.554 496.544L566.157 434.672L658.78 427.741Z"/>
	<path fill="#FAA230" transform="scale(0.491795 0.491795)" d="M359.37 427.468L458.589 434.75L444.269 496.04L420.083 494.594L397.185 492.63L352.17 488.637L329.119 486.581C326.143 486.318 322.111 486.513 319.377 485.524L359.37 427.468Z"/>
	<path fill="#C14401" transform="scale(0.491795 0.491795)" d="M88.0754 570.935C80.189 573.173 71.4186 574.03 63.25 573.522C53.0396 572.887 40.5567 567.75 33.856 559.826C29.5992 554.792 28.7219 550.092 29.4351 543.724C30.3524 535.532 33.2566 527.62 36.7226 520.188C51.4616 488.588 80.6521 462.913 107.317 441.482C115.873 445.884 124.803 448.89 133.883 452.013C139.587 453.975 145.28 456.24 151.204 457.443L151.946 457.588L136.188 473.677L128.03 483.5C109.75 504.765 92.246 529.622 88.4004 558.107C87.8319 562.319 88.0436 566.691 88.0754 570.935Z"/>
	<path fill="#C14401" transform="scale(0.491795 0.491795)" d="M221.372 395.163L178.963 381.958L325.708 241.038L361.388 253.844C344.981 274.436 325.959 292.764 307.374 311.364L250.608 368.115L243.488 374.43L231.627 385.928C228.162 388.969 224.534 391.779 221.372 395.163Z"/>
	<path fill="#028446" transform="scale(0.491795 0.491795)" d="M505.77 710.69L507.743 710.52C534.501 710.013 558.602 718.324 577.838 737.36C592.97 752.335 601.552 773.199 604.1 794.108C605.472 805.373 604.927 816.83 604.727 828.141L604.729 857.27L604.945 943.243L589.532 943.492L589.619 842.141L589.569 811.403C589.533 803.967 589.747 796.487 588.529 789.125C586.738 778.295 582.948 768.448 576.938 759.25C564.504 740.221 545.358 730.147 523.614 725.601L511.999 725.031C491.992 725.015 474.518 733.145 460.494 747.189C450.965 756.731 443.703 769.595 440.427 782.678C437.483 794.437 437.551 806.755 437.523 818.796L437.481 851.06L437.425 943.194L424.215 942.972L424.291 912.821L424.429 855.587L424.242 820.266C424.105 807.053 423.729 794.011 426.584 781.017C429.629 767.162 436.282 754.512 445.042 743.46C459.836 724.793 482.337 713.445 505.77 710.69Z"/>
	<path fill="#028446" transform="scale(0.491795 0.491795)" d="M993.992 705.699C998.954 705.967 1004.04 706.261 1008.09 709.512C1014.07 714.312 1016.22 722.548 1016.91 729.845C1017.95 740.849 1016.01 752.663 1012.9 763.221C1004.93 790.339 989.294 812.368 971.27 833.658L951.07 821.787L950.534 821.531L914.428 805.179L934.533 766C940.956 753.544 946.72 739.714 955.616 728.822C964.962 717.38 978.878 707.205 993.992 705.699Z"/>
	<path fill="#028446" transform="scale(0.491795 0.491795)" d="M935.913 636.25C936.667 636.109 937.184 636.17 937.939 636.25C941.364 641.279 943.11 647.177 944.649 653.006C948.491 667.55 951.8 683.086 950.355 698.194C948.229 720.406 935.861 742.403 926.267 762.151C919.629 775.814 913.097 789.487 905.466 802.633C902.591 802.153 899.378 800.571 896.583 799.619L879.983 793.997L879.403 710.769L879.174 688.897C879.161 687.42 878.689 683.476 879.295 682.239C881.001 678.76 886.011 674.294 888.731 671.533C902.755 657.296 917.178 643.904 935.913 636.25Z"/>
	<path fill="#028446" transform="scale(0.491795 0.491795)" d="M661.393 67.4947C667.33 71.1715 673.435 74.5962 679.128 78.6531C694.241 89.4223 707.651 102.69 718.598 117.618C714.148 131.618 713.108 147.127 712.959 161.75C712.756 181.704 714.153 201.295 717.367 220.993L726.053 261.485L720.505 255.323L679.262 207.855C670.498 197.811 660.797 187.843 653.117 176.949C652.256 175.729 651.697 174.684 651.527 173.176L647.639 147.925C644.606 120.045 649.473 92.8249 661.393 67.4947Z"/>
	<path fill="#811816" transform="scale(0.491795 0.491795)" d="M445.851 811.995L446.326 795.5C448.261 776.941 457.169 759.125 471.804 747.25C485.027 736.521 502.061 730.772 519.18 732.824C536.863 734.943 554.434 743.993 565.399 758.25C578.4 775.154 581.825 793.312 580.746 814.324L580.662 814.409C580.311 813.173 580.603 813.732 579.781 812.735L566.009 812.333C563.097 812.219 560.247 811.694 557.436 812.709L556.916 812.59L555.113 811.797C552.521 810.973 549.33 811.413 546.922 812.539L546.551 812.427C544.162 811.491 540.497 811.951 537.89 811.951L518.402 811.982L445.851 811.995Z"/>
	<path fill="#E46601" transform="scale(0.491795 0.491795)" d="M492.699 276.323L531.551 276.499L558.95 429.135L531.513 429.678L465.186 429.129C469.847 413.102 472.897 396.611 476.146 380.25L492.699 276.323Z"/>
	<path fill="#B65951" transform="scale(0.491795 0.491795)" d="M239.985 853.27C221.471 849.753 203.27 846.323 185.959 838.571L186.452 645.055L241.36 657.677C240.988 658.203 240.667 658.594 240.559 659.25C239.779 663.974 240.477 670.205 240.472 675.067L240.43 713.25L239.985 853.27Z"/>
	<path fill="#14BA1E" transform="scale(0.491795 0.491795)" d="M776.397 39.25L777.381 39.1879C777.866 39.5907 778.026 39.6922 778.471 40.25C781.284 43.7768 783.692 48.5598 785.875 52.5218C798.312 75.0942 805.554 98.967 809.529 124.379L810.781 133.333C810.888 134.275 811.304 135.961 811.161 136.866C811.022 137.752 809.432 139.14 808.835 139.781L801.75 147.464C793.902 156.669 787.214 166.141 781.142 176.598C763.788 206.487 752.688 241.631 748.606 275.882L747.865 283.05C744.969 280.417 741.475 277.655 739.288 274.368C737.943 272.348 737.309 269.723 736.562 267.428L732.38 252.986C721.326 211.431 717.233 167.191 725.114 124.694C731.024 92.8286 749.284 57.9047 776.397 39.25Z"/>
	<path fill="#14BA1E" transform="scale(0.491795 0.491795)" d="M907.788 200.211C928.56 199.19 946.276 205.378 964.27 215.038L959.55 224C938.948 259.756 900.951 284.732 863.291 299.451C849.866 304.699 836.277 308.579 822.391 312.348L787.246 318.727L770.202 303.489C777.25 289.264 787.347 275.916 797.707 263.933C824.948 232.425 865.133 203.362 907.788 200.211Z"/>
	<path fill="#E46601" transform="scale(0.491795 0.491795)" d="M917.13 438.25L918.741 438.25C934.181 451.904 949.205 466.455 962.414 482.294C974.74 497.076 985.589 512.828 991.75 531.229C994.215 538.591 996.382 548.525 992.527 555.754C987.779 564.657 976.513 569.675 967.25 572.356C951.888 576.801 934.242 572.609 920.598 565.107C911.24 559.539 902.819 551.862 895.946 543.446C892.892 539.707 890.45 535.452 887.701 531.487L868.93 506.011C857.677 492.039 845.466 479.192 833.034 466.281L917.13 438.25Z"/>
	<path fill="#028446" transform="scale(0.491795 0.491795)" d="M112.505 674.107L115.193 674.015C124.797 673.959 130.642 676.435 137.433 683.148C139.542 685.233 143.237 688.678 144.295 691.456C144.674 692.451 144.363 695.005 144.34 696.127L144.211 709.226L144.471 791.23C134.854 793.586 125.473 797.113 116.209 800.558C90.1543 810.247 65.4198 821.683 43.3113 838.753L29.3813 821.471L18.7336 806.261C11.2043 793.783 6.50004 778.515 10.2394 763.946L10.4884 763C11.8593 757.668 13.9328 752.495 17.226 748.048C21.7581 741.928 28.299 736.57 36.0744 735.573C49.4918 733.852 62.9463 739.785 72.75 748.658C76.3072 751.878 79.5539 756.056 83.4269 758.802C84.694 759.701 86.3068 760.425 87.873 759.896C89.3331 759.404 90.9987 757.792 91.2099 756.25C91.8335 751.697 89.5478 745.345 88.7571 740.75C85.8218 723.693 84.4331 702.555 93.7051 687.127C98.1134 679.792 104.355 676.099 112.505 674.107Z"/>
	<path fill="#E46601" transform="scale(0.491795 0.491795)" d="M694.146 240.25L695.22 240.116C697.518 241.698 699.398 243.99 701.31 246.011L710.551 255.628L754.228 300.154L780.057 322.735L844.978 377.73C825.514 387.975 804.051 394.56 782.649 399.405L758.385 404.963C746.933 396.979 737.798 386.364 728.27 376.277C704.568 351.182 681.778 324.577 661.594 296.557L638.372 261.771C658.007 256.32 675.995 249.527 694.146 240.25Z"/>
	<path fill="#028446" transform="scale(0.491795 0.491795)" d="M914.842 97.209C917.707 96.7861 921.007 97.0482 923.925 97.0074C924.406 131.309 915.577 162.949 899.356 193.099L886.5 195.512C873.487 198.622 861.732 203.975 850.113 210.503C813.605 231.011 786.512 261.386 764.815 296.75L763.75 297.737C760.768 296.182 757.961 293.011 755.452 290.729C755.236 283.478 756.544 275.895 757.614 268.732C763.575 228.829 779.203 187.267 805.021 155.965C832.288 122.905 872.188 101.393 914.842 97.209Z"/>
	<path fill="#811816" transform="scale(0.491795 0.491795)" d="M833.92 847.25L836 847.02L836.455 847.75L836.572 904.849L836.682 915.596C836.705 916.733 837.009 918.084 836.404 919.055C814.291 924.208 792.063 928.163 769.5 930.811L710.25 935.638L614.051 942.775C612.754 942.883 612.802 943.157 611.74 942.269L611.554 875.514C658.232 873.883 704.899 871.737 751.196 865.292C779.395 861.367 806.866 856.346 833.92 847.25Z"/>
	<path fill="#811816" transform="scale(0.491795 0.491795)" d="M185.908 846.074C201.253 851.92 218.069 856.436 234.298 858.993C242.047 860.213 249.983 860.718 257.796 861.427L293.678 864.735L378.431 872.543L406.67 875.142C409.521 875.411 413.939 875.195 416.452 876.313L416.187 942.474L186.024 918.403L185.908 846.074Z"/>
	<path fill="#E46601" transform="scale(0.491795 0.491795)" d="M824.284 468.062L825.75 468.071C844.3 485.632 860.203 504.344 875.544 524.722C879.334 529.757 884.63 535.465 886.499 541.547C887.581 545.071 887.534 548.613 887.522 552.259C887.492 561.58 885.893 570.342 881.56 578.653C874.982 591.268 862.959 600.011 849.603 604.25C827.891 611.142 808.071 606.163 788.416 595.956C771.445 586.55 754.767 569.668 745.021 552.943C740.502 545.189 737.088 536.752 733.047 528.736L713.497 490.384C717.4 489.118 722.296 488.77 726.379 488.144L750.916 484.215L824.284 468.062Z"/>
	<path fill="#E46601" transform="scale(0.491795 0.491795)" d="M195.659 469.75C199.454 468.837 206.377 471.598 210.168 472.522L230.25 476.989L309.937 490.049C298.333 509.247 289.918 530.078 278.665 549.403C276.36 553.362 273.407 557.017 270.755 560.75C261.315 574.038 251.239 587.39 237.706 596.789C222.989 606.489 206.093 610.974 188.454 608.869C173.282 607.058 157.932 598.906 148.511 586.786C140.408 576.363 136.593 564.224 136.47 551.105C136.445 548.497 136.255 545.569 136.664 542.995C137.483 537.847 140.618 532.31 143.182 527.848C153.141 510.517 166.48 495.339 181.271 481.986C185.911 477.798 190.587 473.408 195.659 469.75Z"/>
	<path fill="#E46601" transform="scale(0.491795 0.491795)" d="M704.833 491.25L706.535 491.25C709.667 495.94 712.009 501.504 714.596 506.529L729.695 535.819L737.101 550.105C738.626 552.959 740.911 556.233 741.581 559.401C742.213 562.385 741.824 565.883 741.657 568.926C740.968 581.479 738.056 593.853 730.936 604.398C721.764 617.983 707.807 627.765 691.637 630.805C670.61 634.757 650.455 629.301 632.943 617.419C617.982 606.298 604.333 589.119 597.666 571.624C594.629 563.655 593.429 554.937 591.634 546.621L581.418 502.087L704.833 491.25Z"/>
	<path fill="#E46601" transform="scale(0.491795 0.491795)" d="M316.112 490.962L443.097 501.594L434.648 540.42C432.611 549.798 431.011 559.356 428.057 568.5C426.459 573.447 424.02 578.092 421.677 582.719C414.781 596.339 406.866 607.511 395.485 617.703C388.592 623.127 380.573 627.622 372.122 630.036C354.972 634.933 335.452 633.59 319.785 624.705C303.053 615.215 289.883 599.462 284.748 580.841C282.753 573.605 281.56 564.646 283.089 557.266C284.413 550.881 288.096 545.003 290.897 539.182L316.112 490.962Z"/>
	<path fill="#E46601" transform="scale(0.491795 0.491795)" d="M449.207 501.996L575.508 502.012L590.68 572.913C584.375 593.317 574.586 609.217 558.555 623.385L554.079 626.555C537.473 637.8 517.584 641.321 498.007 637.412C475.656 632.949 457.17 616.885 444.969 598.222C441.53 592.963 438.556 587.465 435.739 581.855C434.923 580.231 433.421 577.882 433.037 576.134C432.404 573.255 434.747 567.303 435.49 564.25L440.75 541.469L449.207 501.996Z"/>
	<path fill="#FE4545" transform="scale(0.491795 0.491795)" d="M546.922 812.539C549.33 811.413 552.521 810.973 555.113 811.797L556.916 812.59L557.436 812.709C560.247 811.694 563.097 812.219 566.009 812.333L579.781 812.735C580.603 813.732 580.311 813.173 580.662 814.409L580.451 943.705L445.902 943.986L445.851 811.995L518.402 811.982L537.89 811.951C540.497 811.951 544.162 811.491 546.551 812.427L546.922 812.539Z"/>
	<path transform="scale(0.491795 0.491795)" d="M546.922 812.539C549.33 811.413 552.521 810.973 555.113 811.797L556.916 812.59L557.436 812.709L557.761 812.999C563.609 818.629 565.62 826.869 565.805 834.75C565.98 842.191 564.114 850.726 558.602 856.106C556.705 857.957 554.169 859.034 551.5 858.969C548.831 858.904 546.859 857.687 545.017 855.834C539.247 850.029 538.204 842.083 538.335 834.302C538.488 825.238 540.267 819.013 546.922 812.539Z"/>
	<path fill="#E46601" transform="scale(0.491795 0.491795)" d="M391.782 262.274L487.719 276.069L459.316 429.034L377.377 423.269L273.781 407.789C303.197 378.159 331.764 348.262 356.632 314.6L369.222 295.917L391.782 262.274Z"/>
	<path fill="#E46601" transform="scale(0.491795 0.491795)" d="M631.74 263.25L632.817 263.186C636.266 267.797 638.972 273.033 642.075 277.886L657.93 301.062L691.37 343.158C710.032 365.445 729.47 387.284 751.151 406.692C736.589 411.241 720.849 412.793 705.781 414.951L649.616 422.954L564.691 429.047L558.451 394.453L542.66 308.081L538.561 285.548C538.059 282.693 536.93 279.06 537.149 276.199L584.131 272.373C600.173 270.3 616.034 267.09 631.74 263.25Z"/>
	<defs>
		<linearGradient id="gradient_0" gradientUnits="userSpaceOnUse" x1="307.88339" y1="784.54431" x2="641.40753" y2="433.83487">
			<stop offset="0" stop-color="#582211"/>
			<stop offset="1" stop-color="#895E2D"/>
		</linearGradient>
	</defs>
	<path fill="url(#gradient_0)" transform="scale(0.491795 0.491795)" d="M857.91 629.272C857.2 630.21 850.81 631.843 849.301 632.319L816.519 642.11C767.558 655.296 717.433 661.868 667.038 666.414L621.505 670.225L546.05 671.018L481.497 671.61L413.75 669.088L308.5 660.031C270.004 655.039 232.207 648.409 194.719 638.191L156.743 626.743C147.35 623.602 137.314 620.186 128.789 615.06C123.565 611.918 119.904 606.449 118.508 600.552L118.323 599.75C117.984 598.411 117.643 597.137 117.557 595.75C117.403 593.262 117.334 570.872 118.017 569.617C118.418 568.879 120.042 567.677 120.678 567.022L126.63 560.401C128.465 563.432 129.019 568.962 130.019 572.5C131.692 578.415 133.975 583.999 137.151 589.278C145.902 603.823 161.483 614.081 177.816 618.067C207.398 625.289 236.167 617.263 258.378 596.756C261.249 594.105 263.908 591.328 266.449 588.36C267.988 586.561 270.258 582.771 272.188 581.609L274.379 589.637C279.889 608.914 294.939 626.742 312.446 636.25C331.488 646.592 354.172 650.451 375.216 644.196C400.406 636.709 416.456 618.629 428.642 596.089C439.961 614.738 452.638 631.517 472.146 642.25C492.078 653.216 515.791 656.391 537.725 649.871C557.115 644.106 573.8 630.222 585.31 613.885C589.218 608.338 592.395 602.396 595.601 596.434L597.142 599.297C608.903 620.619 629.693 638.675 653.31 645.45C672.721 651.018 695.14 649.96 713 639.956C734.216 628.072 745.942 607.608 752.406 584.859C772.192 606.985 799.088 624.153 829.75 623.916C833.982 623.884 838.273 623.182 842.469 622.662L842.217 623.455L836.777 624.267L836.979 624.704C838.272 624.848 839.613 625.886 840.509 625.826C842.185 625.714 842.845 626.008 844.346 626.715L844.578 627.431C846.856 629.394 844.264 631.616 848.255 631.75L849 631.255L850.003 631.003C851.589 630.55 853.528 630.061 855 629.378L857.656 628.515L857.91 629.272Z"/>
	<path fill="#C9B2AB" transform="scale(0.491795 0.491795)" d="M402.946 207.297C405.606 203.433 408.849 200.133 411.688 196.424L429.991 170.5L461.072 121.578C475.221 99.2974 489.484 77.294 508.728 58.9706C515.378 52.6386 522.992 47.0254 530.384 41.5857C540.596 47.257 548.592 54.6481 556.595 63.0505C572.26 79.4964 585.122 98.6184 598.3 117.052L631.753 162.925L646.75 182.015L654.026 190.73C654.899 191.773 656.543 193.254 657.103 194.453L657.266 195.104C651.593 197.53 645.904 200.178 640.1 202.254C620.431 209.291 600.152 213.914 579.551 217.178C520.564 226.526 460.649 222.098 402.946 207.297Z"/>
	<path fill="#45E640" transform="scale(0.491795 0.491795)" d="M144.496 805.566L144.471 849.71C144.436 859.754 143.407 870.082 145.399 880L145.584 880.973C148.554 896.165 158.35 911.342 171.19 920.009C174.816 922.457 178.887 924.555 183.051 925.912C193.719 929.388 205.503 930.617 216.57 932.268L252.25 937.507C314.203 945.557 376.794 950.562 439.244 952.34L495.143 952.716L547.949 952.954L586.937 951.586L649.329 949.461L699.25 945.102L797.082 935.253L822.396 931.372C829.485 929.945 837.161 928.446 843.88 925.739C855.124 921.209 864.318 913.499 870.945 903.391C875.492 896.455 878.505 888.018 879.85 879.856C881.517 869.741 880.572 858.638 880.446 848.398L879.997 802.516C913.924 814.044 978.06 835.249 994.634 868.974C998.079 875.985 998.435 884.538 995.887 891.895C993.696 898.223 989.305 903.617 984.597 908.261C973.229 919.475 958.609 927.687 944.25 934.456C910.418 950.404 872.609 959.606 836.129 967.272C769.746 981.223 702.768 988.404 635.096 991.902L535.25 994.599L450.334 992.546L388.615 991.088L362.9 990.346L344.483 988.209L287.59 981.836L250.75 977.708C244.198 976.975 237.504 976.492 231.009 975.399C227.583 972.506 220.497 972.239 216.084 971.141L193.507 965.211L148.587 952.063C127.021 944.968 106.073 936.18 86.5086 924.605C73.3923 916.845 56.3377 903.797 52.5059 888.368L52.3157 887.574L51.9128 885.917C49.9549 876.543 53.2591 866.775 58.25 858.946C69.6055 841.134 92.9428 829.474 111.361 820.436L144.496 805.566Z"/>
	<path fill="#C9B2AB" transform="scale(0.491795 0.491795)" d="M241.36 657.677C275.878 664.402 310.907 668.804 345.901 672.145L480.523 679.691C569.205 681.447 658.128 679.733 745.856 665.344C776.414 660.332 806.627 653.475 836.465 645.227L836.503 789.327L836.509 824.38C836.51 828.792 837.261 834.932 836.315 839.118C824.247 843.512 811.874 846.474 799.378 849.392C737.459 863.849 673.784 865.811 610.551 868.979L610.588 823.392C610.598 814.235 611.058 804.881 610.342 795.75C608.49 772.14 598.52 749.573 581.839 732.718C563.407 714.095 537.017 703.886 510.973 703.747C486.05 703.614 462.205 714.908 444.805 732.386C430.687 746.569 421.361 765.39 417.923 785.081C416.463 793.441 416.241 801.846 416.269 810.314L416.471 869.576L239.985 853.27L240.43 713.25L240.472 675.067C240.477 670.205 239.779 663.974 240.559 659.25C240.667 658.594 240.988 658.203 241.36 657.677Z"/>
	<path transform="scale(0.491795 0.491795)" d="M685.335 686.687L685.959 686.594C690.111 686.04 694.916 686.671 699.034 687.352C710.233 689.204 719.544 692.905 728.46 700.098C740.903 710.136 749.684 725.559 751.302 741.538C752.997 758.283 748.36 775.035 737.578 788.016C725.887 802.092 710.753 809.089 692.792 810.657C678.927 812.157 663.516 806.628 652.5 798.509C638.415 788.129 629.731 773.411 627.136 756.158C624.875 741.126 629.671 724.858 638.758 712.786C650.791 696.798 665.904 689.361 685.335 686.687Z"/>
	<path fill="#FEF0E4" transform="scale(0.491795 0.491795)" d="M684.264 691.666C698.1 690.896 711.497 693.91 722.798 702.149C734.701 710.827 744.101 725.284 746.298 739.976C748.564 755.123 744.549 770.639 735.376 782.912C725.735 795.812 711.705 803.314 695.906 805.559C681.968 807.612 667.466 803.317 656.083 795.26C644.173 786.83 635.115 772.676 632.791 758.25C630.284 742.689 634.611 726.984 643.873 714.355C653.691 700.967 668.175 694.119 684.264 691.666Z"/>
	<path transform="scale(0.491795 0.491795)" d="M687.806 708.669L688.014 708.612C696.28 707.851 705.748 711.55 712.25 716.483C721.025 723.14 727.074 733.08 728.377 744.08C729.618 754.548 726.318 764.597 719.823 772.758C712.679 781.734 703.483 786.647 692.145 787.943C682.912 788.185 674.884 786.81 667.159 781.527C658.741 775.768 652.412 766.312 650.735 756.218C648.876 745.033 651.241 733.963 657.99 724.821C665.712 714.362 675.313 710.577 687.806 708.669Z"/>
	<path transform="scale(0.491795 0.491795)" d="M328.593 686.672C343.174 684.548 358.925 689.533 370.922 697.667C384.589 706.934 393.888 722.826 396.835 738.895C399.65 754.241 396.54 772.626 387.501 785.496C376.084 801.752 360.95 808.994 341.764 812.353C326.999 813.048 312.072 809.889 299.953 801.032C286.696 791.344 276.191 776.219 273.744 759.729C271.033 741.453 274.995 724.816 286.015 709.987C296.59 695.756 311.439 689.123 328.593 686.672Z"/>
	<path fill="#FEF0E4" transform="scale(0.491795 0.491795)" d="M330.222 691.669C341.586 689.852 355.772 693.901 365.275 700.16C379.629 709.616 388.421 723.901 391.685 740.58C394.656 755.76 390.515 771.832 381.902 784.491C372.418 798.43 357.816 804.121 341.917 807.034C327.197 808.425 312.558 803.865 300.826 794.994C289.177 786.185 280.526 771.821 278.605 757.298C276.455 741.038 280.527 725.422 290.646 712.404C300.295 699.991 314.948 693.597 330.222 691.669Z"/>
	<path transform="scale(0.491795 0.491795)" d="M333.326 711.197L333.766 711.132C341.723 710.395 351.159 713.872 357.456 718.601C366.013 725.027 371.849 734.943 373.267 745.56C374.549 755.164 371.467 765.4 365.62 773.04C358.563 782.261 349.232 786.397 337.944 787.956C328.371 788.248 318.97 785.869 311.449 779.787C303.797 773.599 298.241 764.001 297.323 754.133C296.315 743.292 298.965 732.67 306.051 724.24C313.045 715.921 322.719 712.194 333.326 711.197Z"/>
</svg>
